<?xml version="1.0" encoding="UTF-8"?>
<svg version="1.1" xmlns="http://www.w3.org/2000/svg" width="512" height="512">
<path d="M0 0 C3.09846001 2.35187136 5.75614157 5.00135655 8.4375 7.8125 C9.13037109 8.49892578 9.82324219 9.18535156 10.53710938 9.89257812 C16.49167548 15.97371472 19.41241211 21.05737292 19.5625 29.8125 C19.62630859 31.49279297 19.62630859 31.49279297 19.69140625 33.20703125 C17.58923003 44.73930871 7.77716605 52.74708331 -0.2097168 60.6003418 C-1.5563628 61.93929918 -2.90209217 63.27917898 -4.24697876 64.61990356 C-7.13046434 67.49080419 -10.02002982 70.35538642 -12.91452599 73.21518517 C-17.49296399 77.73929442 -22.05589191 82.27883619 -26.61665344 86.820755 C-36.29511476 96.45492951 -45.99043457 106.07205678 -55.6875 115.6875 C-66.16819789 126.08004823 -76.64591328 136.47550245 -87.10424167 146.89056903 C-91.63721659 151.40363711 -96.17975885 155.90677834 -100.72991407 160.40252149 C-103.55737126 163.2001199 -106.37649738 166.00600016 -109.19343948 168.81418228 C-110.49966016 170.11292253 -111.80933044 171.40820403 -113.12270164 172.69971275 C-114.91738674 174.46545876 -116.69924654 176.24324553 -118.4785614 178.02445984 C-118.99879008 178.53030867 -119.51901875 179.0361575 -120.05501193 179.55733508 C-125.19218311 184.75340341 -127.75086683 190.65057142 -128 198 C-125.93794959 211.38139095 -114.23186839 219.89339474 -105.05981445 228.99023438 C-103.75469548 230.28851278 -102.4498318 231.58704787 -101.14520264 232.88581848 C-98.34845162 235.66930059 -95.5502823 238.45134619 -92.75109291 241.2323761 C-88.32211749 245.63338521 -83.89866708 250.03991923 -79.47636414 254.44763184 C-77.95884717 255.9600059 -76.44132335 257.4723731 -74.92379284 258.98473358 C-74.16422578 259.74171508 -73.40465873 260.49869658 -72.62207448 261.27861691 C-62.33494414 271.52976192 -52.04306402 281.7761027 -41.7409668 292.01220703 C-34.7775466 298.93110976 -27.82128879 305.85712769 -20.87304467 312.79127169 C-17.2007429 316.45551117 -13.52482846 320.11595689 -9.84002113 323.7676239 C-6.37665945 327.19988614 -2.92274421 330.64137735 0.52423096 334.09009361 C1.78812217 335.35129441 3.05543572 336.6090766 4.32645607 337.86309242 C6.06604824 339.58041898 7.7927283 341.30980525 9.51689148 343.04260254 C10.0179614 343.53133897 10.51903132 344.02007541 11.03528517 344.52362204 C15.57410441 349.13386164 18.57670841 354.1614564 19.53125 360.5625 C19.51578125 362.2640625 19.51578125 362.2640625 19.5 364 C19.51546875 365.7015625 19.51546875 365.7015625 19.53125 367.4375 C18.30408252 375.66674074 13.66580011 381.05792733 7.875 386.75 C7.20847412 387.40814697 6.54194824 388.06629395 5.85522461 388.74438477 C-0.15544994 394.48234137 -5.63338188 397.90861416 -14.0625 398.4375 C-21.8523369 397.57196257 -26.40371705 395.84938073 -32.24134827 390.40873718 C-33.01251703 389.69010436 -33.01251703 389.69010436 -33.79926497 388.9569537 C-41.32052495 381.89252524 -48.59048243 374.56587241 -55.88842773 367.27270508 C-57.55675261 365.6090185 -59.22527107 363.94552603 -60.89396667 362.2822113 C-65.3918226 357.79737198 -69.88643127 353.30929283 -74.38001513 348.8201735 C-77.19115719 346.01197573 -80.0028796 343.20436029 -82.81477547 340.39691734 C-90.61903944 332.60481872 -98.42237552 324.81179352 -106.22225857 317.01530933 C-106.71907322 316.51871425 -107.21588787 316.02211916 -107.72775752 315.51047574 C-108.22564418 315.01280735 -108.72353084 314.51513897 -109.23650497 314.00238973 C-110.24515215 312.994186 -111.25380088 311.98598382 -112.26245117 310.9777832 C-112.76275811 310.47769769 -113.26306505 309.97761218 -113.77853281 309.46237256 C-121.90382301 301.3410392 -130.03585909 293.22649632 -138.17078149 285.11481241 C-146.54683103 276.7624957 -154.91722473 268.40454557 -163.28199917 260.04093665 C-167.9692732 255.35457725 -172.65907556 250.67079785 -177.35482597 245.99292946 C-181.76507306 241.59915596 -186.16811077 237.19828416 -190.56573677 232.79187965 C-192.17841501 231.17843105 -193.79365271 229.56753594 -195.41165161 227.95942307 C-197.62333165 225.7604652 -199.82551318 223.55240224 -202.02561951 221.34187317 C-202.66433107 220.71121801 -203.30304264 220.08056285 -203.9611091 219.43079692 C-210.39158169 212.9290724 -215.07081321 206.62744194 -215.25 197.25 C-214.86917741 179.83371364 -195.75598358 166.60655795 -184.2409668 155.09570312 C-182.57402635 153.42576474 -180.90728909 151.7556235 -179.24073792 150.08529663 C-174.74767795 145.58346441 -170.25143801 141.0848217 -165.75431037 136.5870533 C-162.46850871 133.300418 -159.1837437 130.01274814 -155.89907459 126.72498104 C-147.06265063 117.88027857 -138.22397317 109.03783463 -129.38305166 100.19762784 C-128.88305818 99.69767433 -128.38306471 99.19772081 -127.86791992 98.68261719 C-127.36730979 98.18204794 -126.86669966 97.68147869 -126.35091952 97.16574067 C-118.21669622 89.03192486 -110.08748935 80.89311564 -101.96050682 72.75206572 C-93.59503845 64.37223226 -85.2258458 55.99613434 -76.85275966 47.62391233 C-72.15996306 42.93144728 -67.46880548 38.23736454 -62.78146935 33.53944397 C-58.38061317 29.12891914 -53.97499831 24.72320433 -49.56566429 20.32115555 C-47.94902969 18.70556779 -46.33410181 17.08827012 -44.72101212 15.46914291 C-42.51905803 13.25948141 -40.31102719 11.05607463 -38.10136414 8.85412598 C-37.46488329 8.21250157 -36.82840245 7.57087716 -36.1726343 6.90980959 C-25.32007546 -3.85919765 -13.83770812 -7.23272968 0 0 Z " fill="#000000" transform="translate(260,59)"/>
<path d="M0 0 C8.7560636 5.13623843 19.66566638 15.15670801 22.6953125 25.13671875 C24.21982969 33.07012859 23.3128672 39.31321051 19.09765625 46.23046875 C15.04630822 50.98911938 10.60393706 55.32603483 6.14672852 59.70141602 C4.80341745 61.03839851 3.46123263 62.3765134 2.12008667 63.71566772 C-0.76083493 66.58758938 -3.64941911 69.45148784 -6.5442791 72.3093586 C-11.12497301 76.83180483 -15.6874359 81.37235263 -20.24757385 85.91551208 C-28.28499297 93.9184157 -36.33753782 101.90596062 -44.39355469 109.89013672 C-56.52075487 121.90940783 -68.63624576 133.94045108 -80.73706776 145.98627895 C-85.2692685 150.49673241 -89.80939514 154.99900572 -94.35605037 159.49488652 C-97.18633755 162.29634901 -100.01042164 165.10400384 -102.83298111 167.91324997 C-104.13921863 169.21070433 -105.44805446 170.50554905 -106.75971794 171.79751778 C-119.10194085 183.37840095 -119.10194085 183.37840095 -124.15234375 198.98046875 C-123.72540679 214.46404915 -107.09132086 226.1771001 -96.76757812 236.39941406 C-95.48978866 237.66871152 -94.21226984 238.93828148 -92.93499756 240.20809937 C-90.20978505 242.91674484 -87.48316604 245.62396341 -84.75553894 248.33017731 C-80.43942915 252.61337939 -76.12951914 256.90278399 -71.82092285 261.19354248 C-70.33971446 262.66849177 -68.85850566 264.14344065 -67.37729645 265.61838913 C-66.63630612 266.35626333 -65.8953158 267.09413753 -65.13187122 267.85437155 C-55.11785929 277.82550516 -45.0992128 287.79191568 -35.06640625 297.74414062 C-28.27212855 304.48394418 -21.48677995 311.2325982 -14.71151972 317.99152064 C-11.1339157 321.55976415 -7.55188115 325.12329188 -3.95878601 328.67594147 C-0.58594849 332.01090698 2.77504241 335.35736525 6.12737274 338.71294022 C7.35694981 339.93955107 8.59080746 341.16188867 9.82927704 342.37952042 C11.52323339 344.04623368 13.20092668 345.72783322 14.87561035 347.41387939 C15.36519179 347.8882145 15.85477323 348.36254961 16.35919046 348.85125852 C21.01751327 353.605818 23.54072115 359.51473236 23.47265625 366.23046875 C23.04851298 376.53557927 18.2402381 382.07654947 11.09765625 389.23046875 C10.34742188 389.99230469 9.5971875 390.75414062 8.82421875 391.5390625 C2.73125939 397.3647868 -2.50882646 399.74230016 -10.83984375 400.66796875 C-19.6151441 400.26533557 -26.37549325 395.64976223 -32.29299927 389.56134033 C-33.30424419 388.55778523 -33.30424419 388.55778523 -34.33591831 387.53395629 C-36.57191856 385.30777129 -38.78590994 383.06095696 -41.00048828 380.81347656 C-42.60656461 379.20570637 -44.21396612 377.59925904 -45.82258606 375.99403381 C-50.17216766 371.64616982 -54.50303384 367.28008946 -58.83072519 362.91045094 C-63.36163661 358.34196755 -67.9096073 353.79053132 -72.45578003 349.23724365 C-80.07952467 341.59698442 -87.692701 333.94636095 -95.29785156 326.28759766 C-103.12834815 318.40195763 -110.96517335 310.52269587 -118.81054688 302.65185547 C-119.53692644 301.92311139 -119.53692644 301.92311139 -120.27798034 301.17964521 C-122.70757401 298.74222085 -125.13729214 296.30492059 -127.56707215 293.86768198 C-147.69815597 273.67448104 -167.80717515 253.45940734 -187.90234375 233.23046875 C-189.01876595 234.18099146 -190.1342763 235.13258525 -191.24940491 236.08462524 C-192.18135225 236.87932944 -192.18135225 236.87932944 -193.13212681 237.69008827 C-195.35530727 239.62462166 -197.44744514 241.66276067 -199.5234375 243.75390625 C-200.31298828 244.54667969 -201.10253906 245.33945312 -201.91601562 246.15625 C-202.71587891 246.96449219 -203.51574219 247.77273438 -204.33984375 248.60546875 C-205.58024414 249.85263672 -205.58024414 249.85263672 -206.84570312 251.125 C-208.86689906 253.15787915 -210.8857071 255.19306838 -212.90234375 257.23046875 C-212.90234375 254.23046875 -212.90234375 254.23046875 -210.8828125 251.87036133 C-209.50029297 250.51140747 -209.50029297 250.51140747 -208.08984375 249.125 C-207.60153076 248.64093185 -207.11321777 248.15686371 -206.61010742 247.65812683 C-205.04774549 246.11256735 -203.47528048 244.57775768 -201.90234375 243.04296875 C-200.84176613 241.99743593 -199.78186146 240.95122002 -198.72265625 239.90429688 C-196.12364941 237.33837973 -193.51547985 234.78200408 -190.90234375 232.23046875 C-192.22962378 229.26038791 -193.64812516 227.27523731 -196.01953125 225.05859375 C-196.62667969 224.4759375 -197.23382813 223.89328125 -197.859375 223.29296875 C-199.12610134 222.09589945 -200.39687215 220.90309383 -201.671875 219.71484375 C-206.88650515 214.6876316 -210.34853582 209.94423958 -211.43359375 202.66796875 C-211.42328125 201.53359375 -211.41296875 200.39921875 -211.40234375 199.23046875 C-211.41265625 198.09609375 -211.42296875 196.96171875 -211.43359375 195.79296875 C-210.19511204 187.4878561 -205.38389254 182.12700728 -199.57919312 176.38592529 C-198.83962454 175.63870563 -198.10005597 174.89148596 -197.33807623 174.12162328 C-194.86810561 171.63108617 -192.38414883 169.15500225 -189.89990234 166.67871094 C-188.12164119 164.89175169 -186.34421665 163.10395956 -184.56756592 161.31539917 C-180.24658258 156.97043281 -175.91624568 152.63499096 -171.58091323 148.30434701 C-168.05577244 144.78277852 -164.53419555 141.25768366 -161.01509476 137.73007965 C-160.26256492 136.97576425 -160.26256492 136.97576425 -159.49483246 136.20621015 C-158.47551959 135.18447367 -157.45620905 134.16273486 -156.43690081 133.14099374 C-146.88676553 123.56912768 -137.32365251 114.01030999 -127.75654729 104.45540991 C-119.01370048 95.72290097 -110.28739039 86.97407828 -101.56874542 78.21741161 C-92.605436 69.21531529 -83.63102419 60.22442676 -74.6445452 51.24545789 C-69.60385867 46.20859073 -64.56763914 41.16744636 -59.54304123 36.11452484 C-54.81770243 31.36281849 -50.0768886 26.62710516 -45.32530975 21.90161514 C-43.58592976 20.16696534 -41.85163075 18.42720312 -40.12289047 16.68194962 C-37.75804631 14.29615556 -35.37536124 11.92969778 -32.98739624 9.56707764 C-32.31110054 8.87603337 -31.63480485 8.1849891 -30.93801534 7.4730041 C-22.49987754 -0.77843496 -11.31115783 -4.78981435 0 0 Z " fill="#000000" transform="translate(443.90234375,56.76953125)"/>
<path d="" fill="#000000" transform="translate(0,0)"/>
<path d="" fill="#000000" transform="translate(0,0)"/>
<path d="" fill="#000000" transform="translate(0,0)"/>
</svg>
