<?xml version="1.0" encoding="UTF-8"?>
<svg version="1.1" xmlns="http://www.w3.org/2000/svg" width="512" height="512">
<path d="M0 0 C4.39348756 2.93526364 5.18601578 4.94234407 7.76171875 10.09375 C7.76171875 17.02375 7.76171875 23.95375 7.76171875 31.09375 C53.30171875 31.09375 98.84171875 31.09375 145.76171875 31.09375 C145.76171875 24.16375 145.76171875 17.23375 145.76171875 10.09375 C150.77541738 1.3197774 150.77541738 1.3197774 155.76171875 -0.90625 C161.38895636 -1.65603303 166.10238932 -1.70628383 171.26171875 0.78125 C175.20443523 4.42826275 178.58238385 7.65553358 178.87524414 13.27026367 C178.87000732 14.09244385 178.86477051 14.91462402 178.859375 15.76171875 C178.85615234 16.65439453 178.85292969 17.54707031 178.84960938 18.46679688 C178.84123047 19.39556641 178.83285156 20.32433594 178.82421875 21.28125 C178.81970703 22.22162109 178.81519531 23.16199219 178.81054688 24.13085938 C178.79876501 26.45188712 178.78231433 28.77278644 178.76171875 31.09375 C179.46031006 31.06345703 180.15890137 31.03316406 180.87866211 31.00195312 C187.74469617 30.70874973 194.61124376 30.44530444 201.47949219 30.20947266 C203.44912937 30.14002844 205.41861859 30.06577862 207.38769531 29.98193359 C228.53692929 29.10184383 246.82291893 34.7660924 262.76171875 49.09375 C263.67824219 49.87105469 263.67824219 49.87105469 264.61328125 50.6640625 C277.18808335 62.09048085 284.73588862 79.92634318 285.94946361 96.68663323 C286.02285366 99.45167938 286.03803903 102.21057137 286.02914429 104.97657776 C286.0336754 106.0266839 286.03820651 107.07679004 286.04287493 108.15871757 C286.05546587 111.65346475 286.05390197 115.14805502 286.05224609 118.64282227 C286.05823474 121.1585561 286.06504106 123.6742881 286.07260132 126.1900177 C286.08840689 132.30113789 286.09470835 138.41220128 286.09582607 144.52333999 C286.09677945 149.49674064 286.10090412 154.47012866 286.10722733 159.44352531 C286.12482622 173.5754163 286.13406859 187.70727702 286.13256638 201.83917905 C286.13248647 202.59970357 286.13240655 203.3602281 286.13232422 204.14379883 C286.13224246 204.90526315 286.1321607 205.66672747 286.13207646 206.45126646 C286.13126446 218.7773312 286.15038383 231.10327347 286.17860095 243.42930282 C286.20741291 256.1163594 286.22113662 268.80335642 286.2194134 281.49044651 C286.21875225 288.60083152 286.22412284 295.71108822 286.2457695 302.82144356 C286.2660186 309.51515094 286.26522321 316.20854409 286.25073624 322.90228081 C286.24865652 325.34785229 286.25329858 327.79344101 286.26545715 330.23898315 C286.37681507 354.20501532 283.4025678 374.58164082 266.76171875 393.09375 C265.98441406 394.01027344 265.98441406 394.01027344 265.19140625 394.9453125 C253.72647758 407.56249531 235.78538781 415.15438262 218.9589051 416.28149486 C215.8590799 416.35557406 212.7647503 416.37000513 209.66404724 416.36117554 C208.48326743 416.36570665 207.30248761 416.37023776 206.08592659 416.37490618 C202.83484111 416.38531914 199.58389602 416.38688588 196.33279932 416.38451743 C192.81590046 416.38410708 189.29903385 416.39516926 185.78215027 416.40463257 C178.90100653 416.42119769 172.01989707 416.42674012 165.13873505 416.42785732 C159.53985817 416.42881012 153.94099253 416.43293196 148.34211922 416.43925858 C132.43942803 416.45686029 116.53676376 416.46609935 100.63406276 416.46459763 C99.77795437 416.46451772 98.92184599 416.4644378 98.03979492 416.46435547 C96.75404893 416.46423283 96.75404893 416.46423283 95.44232828 416.46410771 C81.5643031 416.46329555 67.68638664 416.48241816 53.80839287 416.5106322 C39.5302798 416.53942862 25.25221963 416.55316873 10.97407681 416.55144465 C2.96943604 416.55078298 -5.03509081 416.5561766 -13.03970528 416.57780075 C-19.85756377 416.59610197 -26.67525672 416.60028729 -33.49312926 416.5867819 C-36.96470251 416.58029637 -40.43595902 416.57997246 -43.90750122 416.5974884 C-68.83961986 416.70018669 -89.90885176 414.46930214 -109.23828125 397.09375 C-110.15480469 396.31644531 -110.15480469 396.31644531 -111.08984375 395.5234375 C-123.66464585 384.09701915 -131.21245112 366.26115682 -132.42602611 349.50086677 C-132.49941616 346.73582062 -132.51460153 343.97692863 -132.50570679 341.21092224 C-132.5102379 340.1608161 -132.51476901 339.11070996 -132.51943743 338.02878243 C-132.53202837 334.53403525 -132.53046447 331.03944498 -132.52880859 327.54467773 C-132.53479724 325.0289439 -132.54160356 322.5132119 -132.54916382 319.9974823 C-132.56496939 313.88636211 -132.57127085 307.77529872 -132.57238857 301.66416001 C-132.57334195 296.69075936 -132.57746662 291.71737134 -132.58378983 286.74397469 C-132.60138872 272.6120837 -132.61063109 258.48022298 -132.60912888 244.34832095 C-132.60904897 243.58779643 -132.60896905 242.8272719 -132.60888672 242.04370117 C-132.60880496 241.28223685 -132.6087232 240.52077253 -132.60863896 239.73623354 C-132.60782696 227.4101688 -132.62694633 215.08422653 -132.65516345 202.75819718 C-132.68397541 190.0711406 -132.69769912 177.38414358 -132.6959759 164.69705349 C-132.69531475 157.58666848 -132.70068534 150.47641178 -132.722332 143.36605644 C-132.7425811 136.67234906 -132.74178571 129.97895591 -132.72729874 123.28521919 C-132.72521902 120.83964771 -132.72986108 118.39405899 -132.74201965 115.94851685 C-132.85337757 91.98248468 -129.8791303 71.60585918 -113.23828125 53.09375 C-112.72007813 52.48273438 -112.201875 51.87171875 -111.66796875 51.2421875 C-102.80521396 41.48870359 -90.69448956 35.68717737 -78.23828125 32.09375 C-77.41199219 31.84882812 -76.58570313 31.60390625 -75.734375 31.3515625 C-59.86909182 27.43222012 -41.3446465 30.39533075 -25.23828125 31.09375 C-25.2539917 30.51931152 -25.26970215 29.94487305 -25.28588867 29.35302734 C-25.34863638 26.72503691 -25.38739631 24.09720463 -25.42578125 21.46875 C-25.45091797 20.56511719 -25.47605469 19.66148438 -25.50195312 18.73046875 C-25.57792669 11.79155023 -24.45932933 7.59242909 -19.73828125 2.28125 C-14.66400199 -2.15874435 -6.18970521 -2.50612846 0 0 Z M-89.23828125 76.09375 C-100.70630747 90.57307413 -99.23828125 109.65895091 -99.23828125 127.09375 C16.92171875 127.09375 133.08171875 127.09375 252.76171875 127.09375 C253.39354466 99.42253556 253.39354466 99.42253556 241.796875 75.09765625 C228.57403057 62.07784974 208.7821882 62.90936286 191.51171875 63.03125 C190.27808594 63.03576172 189.04445313 63.04027344 187.7734375 63.04492188 C184.76947806 63.05656513 181.76562609 63.07291624 178.76171875 63.09375 C178.74713623 63.66818848 178.73255371 64.24262695 178.7175293 64.83447266 C178.6425815 67.46320696 178.54607881 70.09073552 178.44921875 72.71875 C178.42666016 73.62238281 178.40410156 74.52601562 178.38085938 75.45703125 C178.17033491 80.70100424 177.692827 84.56964814 174.76171875 89.09375 C169.35424572 93.97366469 165.90572126 94.44822128 158.75 94.37109375 C154.72224289 93.99727577 152.6514733 92.90940828 149.76171875 90.09375 C146.76171875 84.09375 146.76171875 84.09375 145.76171875 63.09375 C100.22171875 63.09375 54.68171875 63.09375 7.76171875 63.09375 C7.43171875 70.02375 7.10171875 76.95375 6.76171875 84.09375 C2.07140878 92.30179245 2.07140878 92.30179245 -2.23828125 94.09375 C-7.81066784 94.92623306 -12.7191189 94.84000519 -17.80078125 92.34375 C-22.42692762 88.07346104 -24.27310216 84.7413381 -24.5546875 78.42578125 C-24.59658203 77.53310547 -24.63847656 76.64042969 -24.68164062 75.72070312 C-24.72095703 74.79193359 -24.76027344 73.86316406 -24.80078125 72.90625 C-24.84396484 71.96587891 -24.88714844 71.02550781 -24.93164062 70.05664062 C-25.0376679 67.73582146 -25.13973154 65.41489675 -25.23828125 63.09375 C-59.67617535 61.2043262 -59.67617535 61.2043262 -89.23828125 76.09375 Z M-99.23828125 159.09375 C-116.55277619 273.41549445 -116.55277619 273.41549445 -88.2734375 371.08984375 C-75.82571885 383.3464266 -57.50188987 383.25397115 -41.11494446 383.22746277 C-39.53722198 383.2308611 -39.53722198 383.2308611 -37.92762631 383.23432809 C-34.43912545 383.24060642 -30.95066405 383.23984273 -27.4621582 383.23901367 C-24.94613088 383.24200902 -22.43010402 383.24541241 -19.91407776 383.24919128 C-13.80992557 383.2570844 -7.70578759 383.26024428 -1.60163078 383.26080366 C3.36599705 383.26128076 8.33362172 383.26334509 13.30124855 383.26650429 C27.42131843 383.27529973 41.54138075 383.2799254 55.66145339 383.27917381 C56.42084711 383.27913386 57.18024083 383.2790939 57.96264648 383.27905273 C58.7229798 383.27901185 59.48331312 383.27897097 60.26668683 383.27892885 C72.57965191 383.27852269 84.89258636 383.28808773 97.20554259 383.3021911 C109.88361587 383.31659676 122.56167426 383.32345899 135.23975593 383.32259732 C142.34336474 383.3222668 149.44694145 383.32495002 156.55054283 383.33577538 C163.23599777 383.34589918 169.92137404 383.34550248 176.60683632 383.33825874 C179.04918136 383.33721891 181.49153071 383.33953974 183.93386841 383.3456192 C214.12548504 384.27696129 214.12548504 384.27696129 240.7578125 372.12890625 C290.65972599 321.44879528 252.76171875 230.21811023 252.76171875 159.09375 C136.60171875 159.09375 20.44171875 159.09375 -99.23828125 159.09375 Z " fill="#000000" transform="translate(179.23828125,48.90625)"/>
<path d="M0 0 C4.25587496 3.17104409 6.51525456 6.35826368 8.1875 11.375 C8.85262661 18.15929145 6.89513082 23.01787077 2.67064285 28.25571632 C0.86997528 30.20227966 -0.9837173 32.0756454 -2.87255859 33.93676758 C-3.92699409 34.99930756 -3.92699409 34.99930756 -5.00273132 36.08331299 C-7.31236055 38.40537658 -9.63609402 40.71270804 -11.9609375 43.01953125 C-13.57818241 44.63693124 -15.1947597 46.25499905 -16.81069946 47.873703 C-20.19203668 51.25642177 -23.58021715 54.63208462 -26.97363281 58.00268555 C-31.31883527 62.31947068 -35.64826148 66.65167979 -39.97290611 70.98904896 C-43.30616481 74.32926712 -46.64675975 77.66206784 -49.98970413 80.99258995 C-51.58892623 82.58730262 -53.18607114 84.18410121 -54.78107834 85.78302956 C-57.01133622 88.01620299 -59.25107396 90.23941327 -61.49365234 92.46020508 C-62.14840042 93.1194548 -62.8031485 93.77870453 -63.47773743 94.45793152 C-67.52163467 98.43688101 -71.36875935 101.78956409 -77.15625 102.7734375 C-77.8678125 102.76570313 -78.579375 102.75796875 -79.3125 102.75 C-80.37984375 102.76160156 -80.37984375 102.76160156 -81.46875 102.7734375 C-89.0310159 101.4878523 -93.71232475 95.89656016 -98.859375 90.69140625 C-99.71178772 89.83949203 -100.56420044 88.98757782 -101.44244385 88.10984802 C-103.23785962 86.31209699 -105.02959592 84.51066469 -106.81787109 82.70581055 C-109.55795511 79.9420841 -112.31116508 77.19196673 -115.06640625 74.44335938 C-116.81069032 72.69349993 -118.55420656 70.94287469 -120.296875 69.19140625 C-121.1208075 68.36838516 -121.94473999 67.54536407 -122.79364014 66.69740295 C-123.55493225 65.92657883 -124.31622437 65.1557547 -125.10058594 64.36157227 C-125.7708783 63.68667252 -126.44117065 63.01177277 -127.1317749 62.31642151 C-131.02487013 57.81947026 -131.25618142 53.92422571 -131.1171875 48.1328125 C-130.63469864 43.76566975 -129.61873186 41.81263403 -126.8125 38.375 C-122.40358469 35.030992 -117.67208938 33.56817998 -112.14379883 33.97021484 C-103.11907999 35.53718351 -96.41232928 44.42950489 -90.3125 50.6875 C-89.28977061 51.72530768 -88.26633814 52.76242297 -87.2421875 53.79882812 C-84.7574712 56.31629078 -82.28239043 58.84297997 -79.8125 61.375 C-73.47260586 56.20325101 -67.77951335 50.43039593 -62.03944016 44.61597443 C-60.2428047 42.79711325 -58.44205584 40.98241935 -56.64004517 39.16888428 C-51.52165088 34.01707302 -46.40759619 28.86101268 -41.30371094 23.69482422 C-38.17036259 20.5238167 -35.02973405 17.36017817 -31.88432693 14.20113373 C-30.69106042 12.99982582 -29.50057443 11.79574923 -28.31296921 10.5888443 C-26.65478353 8.90415843 -24.98749859 7.22900017 -23.31787109 5.55566406 C-22.83255417 5.05799026 -22.34723724 4.56031647 -21.84721375 4.04756165 C-15.84040626 -1.92422955 -7.77723457 -4.01405655 0 0 Z " fill="#000000" transform="translate(317.8125,269.625)"/>
</svg>
