<?xml version="1.0" encoding="UTF-8"?>
<svg version="1.1" xmlns="http://www.w3.org/2000/svg" width="512" height="512">
<path d="M0 0 C10.24900097 7.98623452 16.11709328 18.69986083 18.25 31.4375 C19.2751953 43.91728127 16.23315754 54.15911165 9.25 64.4375 C8.52683594 65.52289063 7.80367187 66.60828125 7.05859375 67.7265625 C6.16333984 69.06847656 6.16333984 69.06847656 5.25 70.4375 C6.26320312 70.96859375 7.27640625 71.4996875 8.3203125 72.046875 C9.67196459 72.76024694 11.02352207 73.47379817 12.375 74.1875 C13.04015625 74.53554687 13.7053125 74.88359375 14.390625 75.2421875 C17.58586354 76.93378438 20.53635913 78.63802007 23.5078125 80.71875 C26.73183121 82.73950247 28.38665962 82.48865687 32.05078125 81.8046875 C37.66213529 80.86780068 43.21672878 81.21369616 48.75 82.375 C52.90419849 82.90796395 54.83243097 81.7358962 58.1875 79.3125 C59.00863281 78.66925781 59.82976562 78.02601563 60.67578125 77.36328125 C64.56881593 74.4508896 68.85034008 72.46883235 73.25 70.4375 C72.445625 69.261875 72.445625 69.261875 71.625 68.0625 C70.83217649 66.85492539 70.04067467 65.64648268 69.25 64.4375 C68.75628906 63.71046875 68.26257813 62.9834375 67.75390625 62.234375 C61.01077879 51.8085919 58.80728133 40.68292215 60.71875 28.43359375 C63.12140123 17.23552282 68.99397641 6.93541418 78.5 0.3125 C90.73954412 -7.47258566 103.47066385 -9.55956451 117.75 -6.9140625 C129.10875017 -3.45319331 138.54286694 3.70077597 144.71875 13.8515625 C150.61267009 24.91979616 152.08353781 36.93169887 149.0625 49.1875 C146.58938025 57.1757929 142.20521631 63.78335238 137.25 70.4375 C138.14460938 70.85 139.03921875 71.2625 139.9609375 71.6875 C152.01135274 77.38405993 160.98910337 84.85229182 170.25 94.4375 C171.58102853 95.77313416 172.91367379 97.10716628 174.25 98.4375 C175.04277344 98.11652344 175.83554687 97.79554688 176.65234375 97.46484375 C187.41084762 94.39265426 200.37257752 95.27057961 210.48828125 99.89453125 C222.33346385 106.51241969 230.10046811 116.30385752 234.5 129.0625 C237.26109067 141.72371756 235.14434449 154.29848422 228.58984375 165.35546875 C226.5845494 168.47156755 224.4633392 171.46530165 222.25 174.4375 C223.22582031 174.90800781 224.20164062 175.37851563 225.20703125 175.86328125 C226.49234508 176.49186539 227.77749267 177.12078952 229.0625 177.75 C229.70509766 178.05873047 230.34769531 178.36746094 231.00976562 178.68554688 C237.45076295 181.85598597 237.45076295 181.85598597 239.25 184.4375 C240.10563131 188.62315586 239.91259019 192.3055751 237.75 196 C234.05989924 198.12180794 231.30921101 198.39113226 227.25 197.4375 C224.3042373 196.10463986 221.46313452 194.67120969 218.61157227 193.15258789 C203.2148026 185.03241613 186.74789546 185.20250304 170.25 189.4375 C161.94033865 192.08456832 155.12125604 196.12789306 148.25 201.4375 C147.63640625 201.86289062 147.0228125 202.28828125 146.390625 202.7265625 C136.9462595 209.78817524 129.65278124 223.45136674 127.85546875 234.96484375 C128.43572651 238.60150874 130.29928107 239.65187694 133.125 241.9375 C137.04281518 245.18880152 140.06181332 248.38948096 142.88623047 252.62963867 C146.33761122 257.7508344 149.23113058 261.16400308 155.5 262.625 C157.36473116 262.86437757 159.23130556 263.09893087 161.10498047 263.25341797 C163.46823306 263.4562284 165.80831863 263.7587781 168.16015625 264.06640625 C193.95776606 267.18662526 228.60989227 267.73031236 250.7109375 251.671875 C252.20135998 250.52254074 252.20135998 250.52254074 253.25 249.4375 C254.57300557 234.2337802 249.75632029 222.39983338 241.55859375 209.84765625 C239.67879925 206.38546758 240.28110329 204.17467304 241.25 200.4375 C243.48622138 197.5206895 245.40982716 196.54952304 249.0625 196.0625 C253.45184547 196.57889358 254.4687422 198.03045919 257.25 201.4375 C266.69202976 213.96827886 271.42601564 227.55285116 271.6875 243.1875 C271.70981689 243.97962891 271.73213379 244.77175781 271.75512695 245.58789062 C271.72616853 253.07012194 269.11524889 259.10562614 263.875 264.5 C254.65729555 273.17247979 242.36619095 276.90462098 230.25 279.4375 C229.6007959 279.58703125 228.9515918 279.7365625 228.28271484 279.890625 C215.49218054 282.75837466 202.60164914 282.70213379 189.5625 282.6875 C188.67829376 282.68681519 187.79408752 282.68613037 186.88308716 282.6854248 C184.31385046 282.67887314 181.74493083 282.66241827 179.17578125 282.640625 C178.41070251 282.63623413 177.64562378 282.63184326 176.85736084 282.62731934 C171.59685271 282.5596832 166.47167 282.08297305 161.25 281.4375 C161.64832031 282.43007813 162.04664063 283.42265625 162.45703125 284.4453125 C165.96450841 293.36821058 168.60970385 301.9629536 170.25 311.4375 C170.476875 312.71625 170.70375 313.995 170.9375 315.3125 C172.13218148 327.10680225 172.68147158 339.51446927 165.5625 349.5625 C164.48086588 350.87309316 163.37590523 352.16473756 162.25 353.4375 C161.69699219 354.09492188 161.14398438 354.75234375 160.57421875 355.4296875 C140.49337653 377.53151384 103.05168104 382.166714 75.25 385.4375 C74.37915771 385.5420752 73.50831543 385.64665039 72.61108398 385.75439453 C61.68480753 386.86338927 50.65763008 386.67958185 39.6875 386.6875 C38.595513 386.68883942 37.503526 386.69017883 36.37844849 386.69155884 C19.78170002 386.68714193 3.65882468 386.0853788 -12.75 383.4375 C-14.41274337 383.19519546 -16.07550296 382.95300228 -17.73828125 382.7109375 C-29.25556344 380.88281704 -29.25556344 380.88281704 -33.75 376.4375 C-34.68605213 372.94290538 -35.1242539 370.59144952 -34 367.125 C-32.75 365.4375 -32.75 365.4375 -29.75 363.4375 C-22.8322553 362.93942238 -16.23990674 364.19711171 -9.4375 365.375 C-7.29621391 365.74204056 -5.15428523 366.10535273 -3.01171875 366.46484375 C-2.07287842 366.62718506 -1.13403809 366.78952637 -0.16674805 366.95678711 C8.3423595 368.15395987 16.79624333 368.60120869 25.3828125 368.640625 C26.40991837 368.64763931 27.43702423 368.65465363 28.49525452 368.66188049 C31.78854815 368.67927867 35.08166211 368.68573185 38.375 368.6875 C40.06056503 368.68851212 40.06056503 368.68851212 41.78018188 368.68954468 C57.79507076 368.6742375 73.47012648 368.44579978 89.25 365.4375 C90.72509033 365.16413818 90.72509033 365.16413818 92.22998047 364.88525391 C124.76327276 358.81634335 124.76327276 358.81634335 150.6171875 339.67578125 C157.06555819 329.06932325 152.62979499 314.10505791 149.89160156 302.83984375 C145.65339588 286.97076311 137.20590268 272.56790481 126.25 260.4375 C125.49074219 259.59574219 124.73148437 258.75398438 123.94921875 257.88671875 C103.07724386 235.92161261 72.64918387 223.7650023 42.58862305 222.96264648 C8.8206706 222.70830651 -21.09199236 234.42528812 -45.5 257.75 C-63.30903443 276.20522581 -74.21262045 301.55257772 -75.125 327.1875 C-74.99092903 332.81848055 -74.3860396 337.02491928 -70.75 341.4375 C-69.02120178 342.94139187 -67.26929375 344.41896647 -65.5 345.875 C-60.99216055 349.72364284 -60.99216055 349.72364284 -59.92578125 352.8671875 C-59.73218051 356.939479 -60.24660904 358.83046972 -62.875 362 C-66.28098924 363.70299462 -67.99044856 364.05130432 -71.75 363.4375 C-81.70604046 358.3488571 -88.84591927 349.09389447 -92.359375 338.62109375 C-95.62026383 320.39272518 -90.94306694 297.82363388 -82.75 281.4375 C-84.05090576 281.59831055 -85.35181152 281.75912109 -86.69213867 281.92480469 C-91.36486713 282.44167244 -95.97757514 282.61363021 -100.67578125 282.640625 C-101.4972464 282.64763931 -102.31871155 282.65465363 -103.16506958 282.66188049 C-105.79760286 282.67927116 -108.42991142 282.68573129 -111.0625 282.6875 C-111.96050323 282.68817474 -112.85850647 282.68884949 -113.78372192 282.68954468 C-126.63383597 282.67417562 -139.20083896 282.49711625 -151.75 279.4375 C-152.49137207 279.26057617 -153.23274414 279.08365234 -153.99658203 278.90136719 C-167.58082083 275.54515884 -181.00318367 271.04420957 -189.75 259.4375 C-192.67668879 253.95661008 -193.26581249 249.44452638 -193.1875 243.375 C-193.17920166 242.54009033 -193.17090332 241.70518066 -193.16235352 240.8449707 C-192.72177239 224.48075283 -185.64950994 208.57760457 -174.75 196.4375 C-174.03328125 195.62796875 -173.3165625 194.8184375 -172.578125 193.984375 C-164.40558954 185.2776869 -154.79844051 178.91583866 -143.75 174.4375 C-144.12511719 173.97601563 -144.50023437 173.51453125 -144.88671875 173.0390625 C-154.47066948 160.82374999 -158.0550377 148.9473711 -156.75 133.4375 C-154.68561342 122.05724234 -148.9287808 112.02684895 -139.80859375 104.78125 C-130.49927288 98.70457756 -122.84639282 96.25791073 -111.9375 96.25 C-110.62168945 96.23163086 -110.62168945 96.23163086 -109.27929688 96.21289062 C-104.03455412 96.20112232 -99.71288683 96.72452542 -94.75 98.4375 C-94.04875 97.65246094 -93.3475 96.86742187 -92.625 96.05859375 C-82.73863389 85.06926843 -72.9162943 75.74662309 -58.75 70.4375 C-59.31267578 69.74527344 -59.31267578 69.74527344 -59.88671875 69.0390625 C-69.2392411 57.11871915 -72.90592388 45.57287832 -71.75 30.4375 C-69.73564271 18.50872791 -63.86274337 7.88951066 -54.20703125 0.48828125 C-37.63425838 -10.66152504 -16.79129264 -11.18653832 0 0 Z M-50.12109375 21.12109375 C-54.77889135 27.74477235 -55.75731682 34.42475254 -54.75 42.4375 C-52.42883475 51.00370507 -46.81201707 57.98047524 -39.1875 62.4375 C-32.07149382 65.62183153 -24.3245137 65.79429454 -16.87890625 63.5859375 C-8.8236495 59.98130206 -3.02423229 53.62308072 0.25 45.4375 C2.71832308 36.68617271 0.75977412 29.00887428 -3.5 21.25 C-7.73675672 15.9540541 -12.92702051 10.91339273 -19.75 9.4375 C-32.85127028 7.9995557 -41.73650473 10.8393856 -50.12109375 21.12109375 Z M82.65234375 20.453125 C78.13541475 26.84476827 76.73276027 32.678904 77.25 40.4375 C79.3971118 49.4837872 83.73074361 55.99085915 91.25 61.4375 C97.76735192 65.42771546 104.77745316 65.29555164 112.25 64.4375 C120.80852469 62.00730163 126.9581249 56.03479605 131.41015625 48.46484375 C134.09958897 42.37296592 134.32530491 35.40588715 132.59375 29.015625 C129.22284401 20.58836004 123.44651169 14.01459199 115.12109375 10.2890625 C102.24233117 6.46923904 90.90368294 10.12438983 82.65234375 20.453125 Z M-75.75390625 102.2265625 C-77.93176259 104.63882608 -79.08139211 106.24799272 -79.75 109.4375 C-78.59505215 111.84237472 -78.59505215 111.84237472 -76.625 114.0625 C-69.28071117 123.73440792 -67.06694406 134.49196363 -67.75 146.4375 C-68.26601771 149.81180708 -68.94427979 153.12109805 -69.75 156.4375 C-57.10064935 161.15420702 -44.10610678 161.82967718 -30.75 162.4375 C-30.7406543 161.8798999 -30.73130859 161.3222998 -30.72167969 160.74780273 C-30.22304372 136.9526011 -25.27945465 117.42320495 -7.75 100.4375 C-3.70109071 96.61224475 0.54956858 93.41826139 5.25 90.4375 C-18.85627187 70.76005482 -55.66252221 84.41755968 -75.75390625 102.2265625 Z M75.25 88.4375 C74.59 89.0975 73.93 89.7575 73.25 90.4375 C74.33667969 91.19933594 74.33667969 91.19933594 75.4453125 91.9765625 C89.73389919 102.15003622 89.73389919 102.15003622 90.7109375 106.48046875 C90.84903675 109.39648751 90.5617345 111.814031 89.25 114.4375 C85.73052239 116.19723881 82.97258059 116.48316871 79.25 115.4375 C76.08697598 113.38827811 73.19780173 111.10890588 70.25 108.76171875 C61.16933155 101.72656546 49.02042525 97.56145255 37.421875 98.15625 C21.32934052 100.24017533 7.85675035 105.88585908 -2.75 118.4375 C-12.1297875 131.10478417 -15.31686865 144.89076316 -13.75 160.4375 C-11.14032124 174.58879376 -3.67807717 186.72766423 7.78125 195.33984375 C19.79356328 203.50338424 33.71403227 207.30747399 48.1015625 204.75390625 C63.1299638 201.51108582 75.4747056 194.05844015 84.125 181 C91.30906335 168.91925197 94.64482384 155.38331159 91.83691406 141.37695312 C91.03980392 138.36029056 90.07269169 135.42722243 89.02734375 132.48828125 C88.00445596 128.47383219 88.25346699 125.19608767 90.3125 121.5625 C93.39465242 119.77286311 96.78550716 119.72504381 100.25 120.4375 C103.61181911 122.77615677 104.26827085 126.00430601 105.375 129.8125 C105.87386719 131.49472656 105.87386719 131.49472656 106.3828125 133.2109375 C107.58400694 137.68024655 108.36772353 141.89306227 108.56640625 146.51953125 C108.60830078 147.45087891 108.65019531 148.38222656 108.69335938 149.34179688 C108.73267578 150.30150391 108.77199219 151.26121094 108.8125 152.25 C108.85568359 153.22904297 108.89886719 154.20808594 108.94335938 155.21679688 C109.0490226 157.62357027 109.15112327 160.03043983 109.25 162.4375 C118.09089769 162.11661635 126.77834498 161.5404706 135.5 160 C136.55272095 159.81667114 136.55272095 159.81667114 137.62670898 159.62963867 C141.36884547 158.93147549 144.7741069 157.99356842 148.25 156.4375 C148.105625 155.84324219 147.96125 155.24898438 147.8125 154.63671875 C144.94133708 141.81617877 145.43715838 129.47865708 152.25 117.9375 C153.73116284 115.62318307 155.24325431 113.44592442 156.9609375 111.30078125 C158.53258992 109.48915247 158.53258992 109.48915247 157.875 107.125 C150.27204244 94.55087789 134.98174262 87.5192185 121.5 83.25 C105.58579663 79.70285829 90.02621228 81.92594883 75.25 88.4375 Z M-131.69921875 121.26171875 C-137.31428675 127.25347895 -139.82153638 132.66369124 -140.1875 140.875 C-139.91040226 149.23411524 -136.47051449 155.61386177 -130.78125 161.640625 C-124.17506489 167.48455798 -117.60531936 169.23555736 -108.86328125 168.85546875 C-101.2663695 167.83555713 -94.82771309 164.1720317 -89.75 158.4375 C-85.14218943 151.68096947 -83.20079329 145.67560068 -83.75 137.4375 C-85.88749176 128.43174428 -90.20644322 121.81666074 -97.75 116.4375 C-109.87363471 110.04503806 -121.81702931 112.01325689 -131.69921875 121.26171875 Z M172.25 119.4375 C165.96217346 125.53997111 162.67379165 131.92820857 162 140.6875 C162.54371825 148.84327369 165.5294025 155.56895601 171.25 161.4375 C179.60261084 168.10798782 186.59182494 169.48241912 197.25 168.4375 C205.80154028 165.98565978 211.95844209 160.03425671 216.41015625 152.46484375 C219.52966595 145.39879154 219.24014573 137.45482164 216.75 130.25 C213.21519921 122.44863265 207.35468717 117.17596777 199.3984375 114.12109375 C189.58819684 110.99965354 180.19116701 112.94794417 172.25 119.4375 Z M-79.75 171.4375 C-80.74 172.9225 -80.74 172.9225 -81.75 174.4375 C-80.87859375 174.83839844 -80.0071875 175.23929688 -79.109375 175.65234375 C-57.88340802 185.7829189 -42.54563052 200.66861571 -34.4375 223.0625 C-34.210625 223.84625 -33.98375 224.63 -33.75 225.4375 C-28.01147636 223.2797218 -22.55339198 220.49260708 -17.05078125 217.80273438 C-11.72559844 215.24238648 -6.40219001 213.16116335 -0.75 211.4375 C-1.9678888 207.78383359 -3.16631208 207.21283161 -6.25 205 C-14.34840458 198.69737898 -20.27903271 190.46378332 -24.38671875 181.08203125 C-25.67458163 179.21294584 -25.67458163 179.21294584 -28.1640625 178.75 C-32.17515021 178.40044987 -36.18673966 178.10534302 -40.2043457 177.84155273 C-53.7889255 176.93167414 -66.56312903 174.74103572 -79.75 171.4375 Z M153.94921875 171.94921875 C152.60781895 172.3266616 151.2707303 172.71964396 149.9375 173.125 C148.48321257 173.52609789 147.02744231 173.9218542 145.5703125 174.3125 C144.84102539 174.5084375 144.11173828 174.704375 143.36035156 174.90625 C134.48827787 177.1396642 125.31008398 177.70244321 116.19750977 178.00854492 C111.60281999 178.20070151 107.5301144 178.71597797 103.25 180.4375 C101.45708796 182.62300852 101.45708796 182.62300852 100.375 185.375 C95.74004336 194.75556211 89.4773933 202.10245066 80.90234375 208.09765625 C80.35707031 208.53980469 79.81179688 208.98195313 79.25 209.4375 C79.25 210.0975 79.25 210.7575 79.25 211.4375 C80.23097656 211.7778125 81.21195312 212.118125 82.22265625 212.46875 C90.36934844 215.37000524 98.00817418 218.65130002 105.55102539 222.89648438 C108.70357969 224.8126344 108.70357969 224.8126344 112.25 225.4375 C112.52972656 224.62667969 112.80945313 223.81585938 113.09765625 222.98046875 C121.08068857 200.93087144 136.13234426 185.78989676 157.13671875 175.87109375 C158.16410156 175.39800781 159.19148438 174.92492187 160.25 174.4375 C158.28969693 171.41995483 157.57901461 171.386493 153.94921875 171.94921875 Z M-162.75 208.4375 C-171.65500702 219.27296309 -176.98186309 232.30263951 -176.34375 246.46875 C-175.72703937 249.55230314 -175.24112047 250.84676661 -173 253 C-171.02859051 254.33446231 -171.02859051 254.33446231 -168.75 255.4375 C-167.91210938 255.87191406 -167.07421875 256.30632812 -166.2109375 256.75390625 C-138.72700226 269.43588739 -102.72989654 269.29684131 -73.75 262.4375 C-70.25775002 261.13986602 -68.73032065 259.43498041 -66.5625 256.4375 C-61.96338801 250.31524124 -57.14051268 243.98038451 -50.984375 239.36328125 C-50.24703125 238.72777344 -49.5096875 238.09226562 -48.75 237.4375 C-48.32029041 225.4056316 -56.09543422 214.0593354 -63.75 205.4375 C-77.27555777 192.05782652 -94.77467639 185.43764117 -113.65185547 185.3671875 C-132.76718022 186.00777553 -149.66815204 194.76485891 -162.75 208.4375 Z " fill="#000000" transform="translate(216.75,66.5625)"/>
<path d="M0 0 C3.15811466 0.0553173 4.47098237 0.18575797 7.25 1.8125 C9.28896332 5.35852317 9.47300518 8.31951533 8.6875 12.3125 C7.1875 14.8125 7.1875 14.8125 4.6875 16.3125 C0.89595065 16.98845245 -2.21493524 16.79092566 -5.75 15.25 C-8.10509706 12.32967965 -8.24861417 10.01787805 -8.3125 6.3125 C-6.08021955 1.64500451 -5.08469226 0.15811645 0 0 Z " fill="#000000" transform="translate(168.3125,423.6875)"/>
</svg>
