<?xml version="1.0" encoding="UTF-8"?>
<svg version="1.1" xmlns="http://www.w3.org/2000/svg" width="512" height="512">
<path d="M0 0 C0.99644531 0.79277344 1.99289062 1.58554688 3.01953125 2.40234375 C17.29491217 13.99498351 30.15845186 27.14856419 41 42 C41.6290625 42.845625 42.258125 43.69125 42.90625 44.5625 C77.17734263 91.91891891 90.31164158 151.19884728 81.54345703 208.77978516 C75.36089771 245.41408767 60.42529209 280.07017814 37 309 C35.81277344 310.49080078 35.81277344 310.49080078 34.6015625 312.01171875 C23.01359821 326.29326954 9.85256575 339.157627 -5 350 C-5.845625 350.6290625 -6.69125 351.258125 -7.5625 351.90625 C-54.9945965 386.23210931 -114.12836461 399.32237439 -171.77978516 390.54345703 C-195.05193879 386.61595029 -217.25887456 379.24788726 -238 368 C-238.64598145 367.65888184 -239.29196289 367.31776367 -239.95751953 366.96630859 C-268.54290532 351.86101121 -293.92632432 330.12832286 -313 304 C-313.6290625 303.154375 -314.258125 302.30875 -314.90625 301.4375 C-349.17734263 254.08108109 -362.31164158 194.80115272 -353.54345703 137.22021484 C-347.33532436 100.43437931 -332.34976944 66.11614729 -309 37 C-308.20722656 36.00355469 -307.41445313 35.00710937 -306.59765625 33.98046875 C-295.00501649 19.70508783 -281.85143581 6.84154814 -267 -4 C-266.154375 -4.6290625 -265.30875 -5.258125 -264.4375 -5.90625 C-187.27577566 -61.74697156 -78.21434065 -60.76200914 0 0 Z M-216 9 C-216.64050293 9.31018066 -217.28100586 9.62036133 -217.94091797 9.93994141 C-259.81054673 30.29876578 -293.02036727 68.79197019 -308.41625977 112.5949707 C-315.03312607 132.15651373 -318.43047974 151.79316563 -318.375 172.4375 C-318.37478851 173.17234619 -318.37457703 173.90719238 -318.37435913 174.66430664 C-318.33614058 188.07521301 -317.01984753 200.90572274 -314 214 C-313.81808105 214.80775879 -313.63616211 215.61551758 -313.44873047 216.44775391 C-302.91216297 261.82373138 -272.86469964 301.876508 -234 327 C-204.17386321 345.29757024 -171.38502078 355.49269834 -136.3125 355.3125 C-135.57087616 355.31067719 -134.82925232 355.30885437 -134.06515503 355.30697632 C-122.16390454 355.25790921 -110.64302801 354.59357958 -99 352 C-98.22769043 351.83371094 -97.45538086 351.66742188 -96.65966797 351.49609375 C-49.54393346 341.06670386 -8.12151103 311.40858175 18 271 C29.08786622 252.92611312 37.49664989 233.64971334 42.1875 212.9375 C42.3424292 212.25445801 42.4973584 211.57141602 42.65698242 210.86767578 C45.31152854 198.49520769 46.40872783 186.25098712 46.375 173.625 C46.37468277 172.51898438 46.37468277 172.51898438 46.37435913 171.390625 C46.33618849 157.96034984 45.02425204 145.1133755 42 132 C41.81808105 131.19224121 41.63616211 130.38448242 41.44873047 129.55224609 C30.88131268 84.04341113 0.8259201 44.32518005 -38 19 C-43.20912869 15.77112551 -48.56646525 12.83165555 -54 10 C-54.60392578 9.68434082 -55.20785156 9.36868164 -55.83007812 9.04345703 C-72.81300997 0.31430463 -91.16994341 -5.07848819 -110 -8 C-110.99132935 -8.1546875 -110.99132935 -8.1546875 -112.00268555 -8.3125 C-147.3428055 -13.01276533 -184.19942168 -6.88087489 -216 9 Z " fill="#000000" transform="translate(392,83)"/>
<path d="M0 0 C2.20655549 1.69169254 4.33944138 3.44712399 6.46875 5.234375 C7.45875 5.95625 8.44875 6.678125 9.46875 7.421875 C22.85080971 18.79662576 30.65303015 37.39209361 32.19750977 54.5625 C33.56124928 74.81596697 27.97044358 94.26874096 14.71386719 109.88378906 C4.91515192 120.88377235 -7.56820485 128.58002662 -21.53125 133.234375 C-21.54583252 134.47002197 -21.56041504 135.70566895 -21.57543945 136.97875977 C-21.63362196 141.58419028 -21.71085345 146.18914206 -21.79370117 150.79418945 C-21.82685684 152.78336794 -21.85491765 154.77263839 -21.87768555 156.76196289 C-21.911404 159.62946584 -21.96372823 162.49613317 -22.01953125 165.36328125 C-22.02592117 166.24585098 -22.0323111 167.12842072 -22.03889465 168.03773499 C-22.19846468 174.81213422 -23.40772402 179.56479949 -27.71875 184.984375 C-32.71384348 188.98044978 -37.16524598 190.57243528 -43.59375 190.171875 C-49.83834321 189.27019795 -53.9009651 187.29368224 -57.90625 182.234375 C-60.34778124 177.72693272 -60.66026731 174.23285152 -60.69238281 169.12402344 C-60.70199036 167.88883972 -60.7115979 166.65365601 -60.72149658 165.38104248 C-60.72634578 164.03528021 -60.73062431 162.68951578 -60.734375 161.34375 C-60.73861607 160.3216531 -60.73861607 160.3216531 -60.74294281 159.27890778 C-60.75791287 155.6711234 -60.76715535 152.06337876 -60.77148438 148.45556641 C-60.77695767 144.74578854 -60.80096735 141.03637981 -60.82945633 137.32671738 C-60.84817005 134.45950289 -60.85329298 131.59237566 -60.85482025 128.72510529 C-60.85782898 127.35848224 -60.86579675 125.99186007 -60.87900543 124.62529755 C-61.02586355 108.25991069 -61.02586355 108.25991069 -56.22076416 102.72479248 C-50.94939021 97.93280961 -45.20453016 97.09165164 -38.34375 96.484375 C-28.70409986 95.38626214 -20.66727145 91.44335964 -14.03125 84.296875 C-7.60092328 75.45517576 -5.61144798 65.94812528 -6.53125 55.234375 C-8.88127288 45.09570487 -14.03104961 37.4430081 -22.515625 31.484375 C-30.71995778 26.39641669 -39.60739741 24.98511719 -49.0859375 26.6953125 C-59.25500514 29.38805627 -67.20067509 35.21684273 -72.71484375 44.15234375 C-75.16893686 48.94366839 -75.91685852 53.46332138 -76.53125 58.796875 C-77.3781664 66.14663643 -78.51445507 71.29493379 -83.96875 76.609375 C-89.74495094 80.27233169 -94.74783146 81.07068687 -101.53125 80.234375 C-106.805064 78.56658767 -110.63053635 76.03170911 -113.53125 71.234375 C-118.5523811 56.77210303 -113.62576526 40.53422227 -107.46875 27.171875 C-97.76627691 8.75781969 -81.56887554 -3.80946722 -61.78125 -10.140625 C-40.86089392 -15.26309902 -17.8226715 -12.43186346 0 0 Z " fill="#000000" transform="translate(297.53125,139.765625)"/>
<path d="M0 0 C4.44304595 3.15744237 6.45923461 6.97909084 7.6875 12.19921875 C8.32428666 18.67321642 7.33295148 23.72062595 3.6875 29.19921875 C-0.57216475 33.80136911 -5.20036083 34.56900095 -11.3125 34.82421875 C-17.48378102 34.59271303 -21.81783868 33.52828729 -26.3125 29.19921875 C-30.26839179 23.96723283 -30.94608939 18.66417711 -30.3125 12.19921875 C-28.96370159 5.99245999 -26.5307318 2.74761638 -21.3125 -0.80078125 C-14.68583397 -4.66633644 -6.44810899 -3.70506262 0 0 Z " fill="#000000" transform="translate(267.3125,349.80078125)"/>
</svg>
