<?xml version="1.0" encoding="UTF-8"?>
<svg version="1.1" xmlns="http://www.w3.org/2000/svg" width="512" height="512">
<path d="M0 0 C0.66 -0.0103125 1.32 -0.020625 2 -0.03125 C5.10173118 0.79264734 6.08899088 1.89139887 8 4.5 C8.56596343 7.83928301 8.46468015 11.13733757 8.390625 14.515625 C8.38496521 15.48659119 8.37930542 16.45755737 8.37347412 17.45794678 C8.35110311 20.55580169 8.30090473 23.65249533 8.25 26.75 C8.22993597 28.85154578 8.21168503 30.95310972 8.1953125 33.0546875 C8.1512358 38.2035717 8.08220258 43.35158903 8 48.5 C9.24392517 48.49111755 10.48785034 48.48223511 11.76947021 48.4730835 C23.48222494 48.39205861 35.19492293 48.33206379 46.90789413 48.29275131 C52.92992568 48.27186102 58.9517313 48.24351658 64.97363281 48.19824219 C70.78320797 48.1548366 76.59256558 48.13087376 82.40229034 48.12049103 C84.62072424 48.1130902 86.839146 48.09863843 89.05748749 48.07707977 C92.16065871 48.04811666 95.26292668 48.0440411 98.36621094 48.04589844 C99.28690369 48.03151733 100.20759644 48.01713623 101.15618896 48.00231934 C102.00310303 48.00781799 102.85001709 48.01331665 103.72259521 48.01898193 C104.45634243 48.01529476 105.19008965 48.01160759 105.94607162 48.00780869 C108.970718 48.73261715 110.14167663 50.04133533 112 52.5 C112.49219131 55.1786232 112.49219131 55.1786232 112.48101807 58.29595947 C112.48926605 60.07117981 112.48926605 60.07117981 112.49768066 61.88226318 C112.47610901 63.82434662 112.47610901 63.82434662 112.45410156 65.80566406 C112.45297303 67.18554654 112.45360706 68.56543142 112.45587158 69.9453125 C112.45701945 73.68896841 112.4334989 77.43211189 112.40557575 81.17564869 C112.38057399 85.08873206 112.37822108 89.00182711 112.37347412 92.91497803 C112.3610407 100.3239785 112.32821427 107.73274294 112.28807616 115.14163947 C112.24336974 123.57684672 112.22137428 132.01206524 112.20129442 140.44736147 C112.15948185 157.79837752 112.08912283 175.1491638 112 192.5 C112.94325134 192.49111755 113.88650269 192.48223511 114.8583374 192.4730835 C123.74557461 192.39201309 132.63273684 192.33204213 141.52025986 192.29275131 C146.08950964 192.27187235 150.65846102 192.24354929 155.22753906 192.19824219 C159.63660873 192.15479512 164.0453913 192.13086522 168.45465851 192.12049103 C170.13721487 192.11309757 171.81975543 192.09865983 173.50218964 192.07707977 C175.85825101 192.04805997 178.21312473 192.04404325 180.56933594 192.04589844 C181.26561096 192.03151733 181.96188599 192.01713623 182.67926025 192.00231934 C185.80802361 192.02899326 187.64543837 192.23495594 190.18032837 194.12985229 C192.55876107 197.22779409 192.49350508 199.01991976 192.48101807 202.90338135 C192.48926605 204.88054138 192.48926605 204.88054138 192.49768066 206.89764404 C192.48352482 208.35657103 192.46898559 209.81549433 192.45410156 211.27441406 C192.45297317 212.81193004 192.45360678 214.34944817 192.45587158 215.88696289 C192.45702 220.0603353 192.43349024 224.23324854 192.40557575 228.40651417 C192.38058332 232.76803578 192.37822181 237.12956773 192.37347412 241.4911499 C192.36103798 249.75012187 192.32820778 258.00888223 192.28807616 266.26776099 C192.24337828 275.67030518 192.22137641 285.07285944 192.20129442 294.47548342 C192.15947568 313.81710895 192.08911126 333.15853746 192 352.5 C192.58491211 352.47905273 193.16982422 352.45810547 193.77246094 352.43652344 C196.43146465 352.35319885 199.09019355 352.30129103 201.75 352.25 C202.67039062 352.21648437 203.59078125 352.18296875 204.5390625 352.1484375 C211.37844715 352.04931598 211.37844715 352.04931598 214.60742188 354.390625 C216.10431184 356.65800391 216.54207857 357.80697165 216.5 360.5 C216.5103125 361.16 216.520625 361.82 216.53125 362.5 C215.74065562 365.47635533 214.40639753 366.59695869 212 368.5 C208.78910828 369.00139666 208.78910828 369.00139666 204.8972168 369.00336456 C204.17792936 369.00917833 203.45864193 369.01499209 202.71755791 369.02098203 C200.29444153 369.03564204 197.87232864 369.02166963 195.44921875 369.00793457 C193.69969666 369.01254113 191.95017843 369.0188924 190.20066833 369.02684355 C185.38305618 369.04359367 180.56575959 369.03526478 175.74814606 369.02289867 C170.55652186 369.01387369 165.36495313 369.0278052 160.17333984 369.03881836 C149.99900862 369.0566355 139.8247952 369.05274938 129.65045929 369.0411678 C121.38398774 369.0321463 113.11754928 369.03090391 104.85107422 369.03526306 C103.08848975 369.03618246 103.08848975 369.03618246 101.29029751 369.03712043 C98.90343856 369.03839929 96.51657962 369.03969614 94.12972069 369.0410108 C71.73084582 369.05242596 49.33203636 369.03928821 26.93317223 369.01780933 C7.70020705 368.99993752 -11.53266157 369.00304136 -30.765625 369.02148438 C-53.08255098 369.04287456 -75.39941958 369.05132723 -97.71635437 369.03903532 C-100.09459431 369.03776108 -102.47283426 369.0365036 -104.85107422 369.03526306 C-106.02131417 369.03464596 -107.19155413 369.03402886 -108.3972559 369.03339306 C-116.65694108 369.0299346 -124.91658997 369.03577917 -133.17626953 369.04518127 C-143.23757235 369.05638208 -153.2987503 369.05340168 -163.36003876 369.0320583 C-168.49670793 369.02152202 -173.63316865 369.01746984 -178.76983643 369.03065491 C-183.46763953 369.04253139 -188.16504 369.03609504 -192.86280632 369.0147447 C-194.56664568 369.01025842 -196.27051873 369.01259 -197.97433662 369.02224785 C-200.28245366 369.03433241 -202.58917392 369.02201971 -204.8972168 369.00336456 C-206.18154099 369.00271515 -207.46586517 369.00206574 -208.78910828 369.00139666 C-212.55062953 368.41401647 -213.72765059 367.49334051 -216 364.5 C-216.53125 362.5 -216.53125 362.5 -216.5 360.5 C-216.5103125 359.84 -216.520625 359.18 -216.53125 358.5 C-215.70377239 355.38479018 -214.63209566 354.4085158 -212 352.5 C-208.57262805 351.99862792 -205.20441125 352.12420911 -201.75 352.25 C-200.81414062 352.26804687 -199.87828125 352.28609375 -198.9140625 352.3046875 C-196.60832985 352.35174327 -194.30469055 352.41746287 -192 352.5 C-192.00368717 351.69970493 -192.00737434 350.89940987 -192.01117325 350.07486343 C-192.09946539 330.6124901 -192.1656809 311.15015667 -192.20724869 291.68762589 C-192.22788427 282.27572696 -192.25602384 272.86396162 -192.30175781 263.45214844 C-192.34159515 255.24992973 -192.36742557 247.04780775 -192.37635398 238.84549499 C-192.38157401 234.5013696 -192.39386347 230.15752098 -192.42292023 225.81348419 C-192.45004043 221.72590485 -192.45845196 217.63871667 -192.45243073 213.55105591 C-192.4535325 212.04981105 -192.46150686 210.54855331 -192.4768219 209.04738617 C-192.49669255 206.99948048 -192.4895615 204.95136561 -192.48101807 202.90338135 C-192.48470524 201.75667088 -192.48839241 200.6099604 -192.49219131 199.42850113 C-191.88864665 195.83745599 -190.88806437 194.65890341 -188 192.5 C-185.37881671 192.12545019 -183.18430138 191.99188804 -180.56933594 192.04589844 C-179.82748047 192.04531433 -179.085625 192.04473022 -178.32128906 192.04412842 C-175.87517098 192.04690975 -173.43027953 192.07800214 -170.984375 192.109375 C-169.28615993 192.11683726 -167.58793624 192.12253027 -165.88970947 192.12652588 C-161.4244399 192.14178349 -156.95969247 192.18106611 -152.49462891 192.2253418 C-147.93659529 192.26629193 -143.37847713 192.28453633 -138.8203125 192.3046875 C-129.87997919 192.34756047 -120.94003305 192.41581315 -112 192.5 C-112.00368717 191.78216465 -112.00737434 191.0643293 -112.01117325 190.32474136 C-112.09947727 172.86521625 -112.16568664 155.40574779 -112.20724869 137.94604874 C-112.22788158 129.50268794 -112.25601595 121.05947612 -112.30175781 112.61621094 C-112.34160347 105.25779553 -112.36742753 97.899488 -112.37635398 90.5409677 C-112.38157263 86.64395911 -112.39385306 82.74725917 -112.42292023 78.85034943 C-112.45005371 75.18299549 -112.45844936 71.51607759 -112.45243073 67.84863281 C-112.4540573 65.8597864 -112.47559095 63.87098758 -112.49768066 61.88226318 C-112.49218201 60.69878296 -112.48668335 59.51530273 -112.48101807 58.29595947 C-112.48470524 57.2672385 -112.48839241 56.23851753 -112.49219131 55.1786232 C-111.8610683 51.74390035 -110.77636889 50.56969399 -108 48.5 C-105.94607162 48.00780869 -105.94607162 48.00780869 -103.72259521 48.01898193 C-102.87568115 48.01348328 -102.02876709 48.00798462 -101.15618896 48.00231934 C-100.23549622 48.01670044 -99.31480347 48.03108154 -98.36621094 48.04589844 C-97.39026978 48.04531433 -96.41432861 48.04473022 -95.40881348 48.04412842 C-92.1836386 48.04691469 -88.95938839 48.07803314 -85.734375 48.109375 C-83.49807236 48.11683544 -81.26176318 48.1225293 -79.02545166 48.12652588 C-73.13983101 48.14179762 -67.25460526 48.18109318 -61.36914062 48.2253418 C-55.3633356 48.266261 -49.35746675 48.28452976 -43.3515625 48.3046875 C-31.56753484 48.34758556 -19.78380026 48.41585589 -8 48.5 C-8.02094727 47.18805664 -8.04189453 45.87611328 -8.06347656 44.52441406 C-8.1358797 39.65668656 -8.18180113 34.78900665 -8.21972656 29.92089844 C-8.23984126 27.81404618 -8.26713667 25.70724975 -8.30175781 23.60058594 C-8.35028168 20.57212553 -8.37297016 17.54440322 -8.390625 14.515625 C-8.41127014 13.57382385 -8.43191528 12.63202271 -8.45318604 11.66168213 C-8.45542981 5.12167925 -8.45542981 5.12167925 -6.10058594 1.90722656 C-3.83650101 0.3904686 -2.70048437 -0.04219507 0 0 Z M-96 64.5 C-96 159.54 -96 254.58 -96 352.5 C-80.16 352.5 -64.32 352.5 -48 352.5 C-47.96261719 344.73855469 -47.92523438 336.97710937 -47.88671875 328.98046875 C-47.85645353 324.07224312 -47.82531512 319.16405441 -47.79101562 314.25585938 C-47.73662176 306.46022357 -47.68551481 298.66466078 -47.65356445 290.86889648 C-47.62761223 284.58589555 -47.58726728 278.30313877 -47.53681374 272.02028847 C-47.52009023 269.61967308 -47.50861025 267.21901541 -47.50238609 264.81834984 C-47.49280465 261.46351719 -47.46481653 258.109317 -47.43237305 254.75463867 C-47.43380814 253.75554474 -47.43524323 252.75645081 -47.4367218 251.7270813 C-47.42418365 250.81422867 -47.41164551 249.90137604 -47.39872742 248.96086121 C-47.39181397 247.77036557 -47.39181397 247.77036557 -47.38476086 246.55581951 C-46.89559256 243.94213956 -46.13343616 243.05770096 -44 241.5 C-41.13742852 241.20378109 -38.49238836 241.09027841 -35.62890625 241.11181641 C-34.34800613 241.10393097 -34.34800613 241.10393097 -33.04122925 241.09588623 C-30.21480083 241.0826681 -27.38893428 241.09143068 -24.5625 241.1015625 C-22.60099174 241.09954229 -20.6394842 241.09663129 -18.67797852 241.09286499 C-14.56551976 241.08843918 -10.45325638 241.09488099 -6.34082031 241.10888672 C-1.06448313 241.12597871 4.21139629 241.1161389 9.48771667 241.09816933 C13.53856873 241.08733845 17.58931193 241.09077464 21.64016724 241.0985527 C23.58586684 241.10055664 25.53157627 241.09808869 27.4772644 241.09111404 C30.1947454 241.08351103 32.9114809 241.09508748 35.62890625 241.11181641 C36.43627228 241.10574371 37.24363831 241.09967102 38.07546997 241.09341431 C43.52848854 241.15573198 43.52848854 241.15573198 45.70516682 242.74500561 C47.34420814 244.96653374 47.38277982 246.21468575 47.39872742 248.96086121 C47.41126556 249.87371384 47.42380371 250.78656647 47.4367218 251.7270813 C47.43528671 252.72617523 47.43385162 253.72526917 47.43237305 254.75463867 C47.44766052 256.33537422 47.44766052 256.33537422 47.46325684 257.94804382 C47.49349804 261.4380721 47.50266993 264.92782642 47.51171875 268.41796875 C47.52855715 270.83507711 47.54670624 273.25217667 47.56611633 275.66926575 C47.61371334 282.0363795 47.64346004 288.40345757 47.66955566 294.77069092 C47.7045424 302.40743881 47.76158262 310.04404963 47.81494904 317.68068695 C47.89357652 329.28710758 47.94409684 340.89334739 48 352.5 C63.84 352.5 79.68 352.5 96 352.5 C96 257.46 96 162.42 96 64.5 C32.64 64.5 -30.72 64.5 -96 64.5 Z M-176 208.5 C-176 256.02 -176 303.54 -176 352.5 C-154.88 352.5 -133.76 352.5 -112 352.5 C-112 336.66 -112 320.82 -112 304.5 C-121.07939322 304.29008695 -121.07939322 304.29008695 -130.15942383 304.11206055 C-131.28888428 304.07894775 -132.41834473 304.04583496 -133.58203125 304.01171875 C-134.73936768 303.98553467 -135.8967041 303.95935059 -137.08911133 303.93237305 C-140 303.5 -140 303.5 -141.8762207 302.08911133 C-143.28043671 300.10344068 -143.40247088 298.91743724 -143.375 296.5 C-143.38660156 295.4790625 -143.38660156 295.4790625 -143.3984375 294.4375 C-142.86270242 291.83235687 -142.12817675 291.10035568 -140 289.5 C-137.08911133 289.06762695 -137.08911133 289.06762695 -133.58203125 288.98828125 C-132.4525708 288.95516846 -131.32311035 288.92205566 -130.15942383 288.88793945 C-128.72493896 288.86304443 -127.2904541 288.83814941 -125.8125 288.8125 C-121.254375 288.709375 -116.69625 288.60625 -112 288.5 C-112 277.94 -112 267.38 -112 256.5 C-121.07939322 256.29008695 -121.07939322 256.29008695 -130.15942383 256.11206055 C-131.28888428 256.07894775 -132.41834473 256.04583496 -133.58203125 256.01171875 C-134.73936768 255.98553467 -135.8967041 255.95935059 -137.08911133 255.93237305 C-140 255.5 -140 255.5 -141.8762207 254.08911133 C-143.28043671 252.10344068 -143.40247088 250.91743724 -143.375 248.5 C-143.38660156 247.4790625 -143.38660156 247.4790625 -143.3984375 246.4375 C-142.86270242 243.83235687 -142.12817675 243.10035568 -140 241.5 C-137.08911133 241.06762695 -137.08911133 241.06762695 -133.58203125 240.98828125 C-132.4525708 240.95516846 -131.32311035 240.92205566 -130.15942383 240.88793945 C-128.72493896 240.86304443 -127.2904541 240.83814941 -125.8125 240.8125 C-121.254375 240.709375 -116.69625 240.60625 -112 240.5 C-112 229.94 -112 219.38 -112 208.5 C-133.12 208.5 -154.24 208.5 -176 208.5 Z M112 208.5 C112 219.06 112 229.62 112 240.5 C121.07939322 240.70991305 121.07939322 240.70991305 130.15942383 240.88793945 C131.28888428 240.92105225 132.41834473 240.95416504 133.58203125 240.98828125 C134.73936768 241.01446533 135.8967041 241.04064941 137.08911133 241.06762695 C140 241.5 140 241.5 141.8762207 242.91088867 C143.28043671 244.89655932 143.40247088 246.08256276 143.375 248.5 C143.38273437 249.180625 143.39046875 249.86125 143.3984375 250.5625 C142.86270242 253.16764313 142.12817675 253.89964432 140 255.5 C137.08911133 255.93237305 137.08911133 255.93237305 133.58203125 256.01171875 C132.4525708 256.04483154 131.32311035 256.07794434 130.15942383 256.11206055 C128.72493896 256.13695557 127.2904541 256.16185059 125.8125 256.1875 C118.9753125 256.3421875 118.9753125 256.3421875 112 256.5 C112 267.06 112 277.62 112 288.5 C121.07939322 288.70991305 121.07939322 288.70991305 130.15942383 288.88793945 C131.28888428 288.92105225 132.41834473 288.95416504 133.58203125 288.98828125 C134.73936768 289.01446533 135.8967041 289.04064941 137.08911133 289.06762695 C140 289.5 140 289.5 141.8762207 290.91088867 C143.28043671 292.89655932 143.40247088 294.08256276 143.375 296.5 C143.38273437 297.180625 143.39046875 297.86125 143.3984375 298.5625 C142.86270242 301.16764313 142.12817675 301.89964432 140 303.5 C137.08911133 303.93237305 137.08911133 303.93237305 133.58203125 304.01171875 C132.4525708 304.04483154 131.32311035 304.07794434 130.15942383 304.11206055 C128.72493896 304.13695557 127.2904541 304.16185059 125.8125 304.1875 C118.9753125 304.3421875 118.9753125 304.3421875 112 304.5 C112 320.34 112 336.18 112 352.5 C133.12 352.5 154.24 352.5 176 352.5 C176 304.98 176 257.46 176 208.5 C154.88 208.5 133.76 208.5 112 208.5 Z M-32 256.5 C-32 288.18 -32 319.86 -32 352.5 C-10.88 352.5 10.24 352.5 32 352.5 C32 320.82 32 289.14 32 256.5 C10.88 256.5 -10.24 256.5 -32 256.5 Z " fill="#000000" transform="translate(256,63.5)"/>
<path d="M0 0 C0.87269531 -0.0038269 1.74539063 -0.00765381 2.64453125 -0.01159668 C4.48699092 -0.0143149 6.32948924 -0.00695994 8.171875 0.00976562 C10.99045934 0.03117752 13.80649485 0.00996199 16.625 -0.015625 C18.41667229 -0.01298171 20.20834299 -0.00785669 22 0 C22.84175781 -0.00809692 23.68351562 -0.01619385 24.55078125 -0.02453613 C30.38715618 0.06889601 30.38715618 0.06889601 33.52929688 2.43945312 C35.12144695 4.7039853 35.542797 5.7922417 35.5 8.53125 C35.5103125 9.19125 35.520625 9.85125 35.53125 10.53125 C34.72011424 13.58493756 33.53019712 14.62236769 31 16.53125 C28.00263779 17.13239553 25.04890723 17.09182764 22 17.0625 C21.12730469 17.0663269 20.25460937 17.07015381 19.35546875 17.07409668 C17.51300908 17.0768149 15.67051076 17.06945994 13.828125 17.05273438 C11.00954066 17.03132248 8.19350515 17.05253801 5.375 17.078125 C3.58332771 17.07548171 1.79165701 17.07035669 0 17.0625 C-0.84175781 17.07059692 -1.68351562 17.07869385 -2.55078125 17.08703613 C-8.38715618 16.99360399 -8.38715618 16.99360399 -11.52929688 14.62304688 C-13.12144695 12.3585147 -13.542797 11.2702583 -13.5 8.53125 C-13.51546875 7.54125 -13.51546875 7.54125 -13.53125 6.53125 C-11.69061453 -0.39820116 -5.94975317 -0.05723107 0 0 Z " fill="#000000" transform="translate(285,255.46875)"/>
<path d="M0 0 C0.87269531 -0.0038269 1.74539062 -0.00765381 2.64453125 -0.01159668 C4.48699092 -0.0143149 6.32948924 -0.00695994 8.171875 0.00976562 C10.99045934 0.03117752 13.80649485 0.00996199 16.625 -0.015625 C18.41667229 -0.01298171 20.20834299 -0.00785669 22 0 C22.84175781 -0.00809692 23.68351562 -0.01619385 24.55078125 -0.02453613 C30.38715618 0.06889601 30.38715618 0.06889601 33.52929688 2.43945312 C35.12144695 4.7039853 35.542797 5.7922417 35.5 8.53125 C35.5103125 9.19125 35.520625 9.85125 35.53125 10.53125 C34.72011424 13.58493756 33.53019712 14.62236769 31 16.53125 C28.00263779 17.13239553 25.04890723 17.09182764 22 17.0625 C21.12730469 17.0663269 20.25460938 17.07015381 19.35546875 17.07409668 C17.51300908 17.0768149 15.67051076 17.06945994 13.828125 17.05273438 C11.00954066 17.03132248 8.19350515 17.05253801 5.375 17.078125 C3.58332771 17.07548171 1.79165701 17.07035669 0 17.0625 C-0.84175781 17.07059692 -1.68351563 17.07869385 -2.55078125 17.08703613 C-8.38715618 16.99360399 -8.38715618 16.99360399 -11.52929688 14.62304688 C-13.12144695 12.3585147 -13.542797 11.2702583 -13.5 8.53125 C-13.51546875 7.54125 -13.51546875 7.54125 -13.53125 6.53125 C-11.69061453 -0.39820116 -5.94975317 -0.05723107 0 0 Z " fill="#000000" transform="translate(205,255.46875)"/>
<path d="M0 0 C0.87269531 -0.0038269 1.74539063 -0.00765381 2.64453125 -0.01159668 C4.48699092 -0.0143149 6.32948924 -0.00695994 8.171875 0.00976562 C10.99045934 0.03117752 13.80649485 0.00996199 16.625 -0.015625 C18.41667229 -0.01298171 20.20834299 -0.00785669 22 0 C22.84175781 -0.00809692 23.68351562 -0.01619385 24.55078125 -0.02453613 C30.38715618 0.06889601 30.38715618 0.06889601 33.52929688 2.43945312 C35.12144695 4.7039853 35.542797 5.7922417 35.5 8.53125 C35.5103125 9.19125 35.520625 9.85125 35.53125 10.53125 C34.72011424 13.58493756 33.53019712 14.62236769 31 16.53125 C28.00263779 17.13239553 25.04890723 17.09182764 22 17.0625 C21.12730469 17.0663269 20.25460937 17.07015381 19.35546875 17.07409668 C17.51300908 17.0768149 15.67051076 17.06945994 13.828125 17.05273438 C11.00954066 17.03132248 8.19350515 17.05253801 5.375 17.078125 C3.58332771 17.07548171 1.79165701 17.07035669 0 17.0625 C-0.84175781 17.07059692 -1.68351562 17.07869385 -2.55078125 17.08703613 C-8.38715618 16.99360399 -8.38715618 16.99360399 -11.52929688 14.62304688 C-13.12144695 12.3585147 -13.542797 11.2702583 -13.5 8.53125 C-13.51546875 7.54125 -13.51546875 7.54125 -13.53125 6.53125 C-11.69061453 -0.39820116 -5.94975317 -0.05723107 0 0 Z " fill="#000000" transform="translate(285,207.46875)"/>
<path d="M0 0 C0.87269531 -0.0038269 1.74539062 -0.00765381 2.64453125 -0.01159668 C4.48699092 -0.0143149 6.32948924 -0.00695994 8.171875 0.00976562 C10.99045934 0.03117752 13.80649485 0.00996199 16.625 -0.015625 C18.41667229 -0.01298171 20.20834299 -0.00785669 22 0 C22.84175781 -0.00809692 23.68351562 -0.01619385 24.55078125 -0.02453613 C30.38715618 0.06889601 30.38715618 0.06889601 33.52929688 2.43945312 C35.12144695 4.7039853 35.542797 5.7922417 35.5 8.53125 C35.5103125 9.19125 35.520625 9.85125 35.53125 10.53125 C34.72011424 13.58493756 33.53019712 14.62236769 31 16.53125 C28.00263779 17.13239553 25.04890723 17.09182764 22 17.0625 C21.12730469 17.0663269 20.25460938 17.07015381 19.35546875 17.07409668 C17.51300908 17.0768149 15.67051076 17.06945994 13.828125 17.05273438 C11.00954066 17.03132248 8.19350515 17.05253801 5.375 17.078125 C3.58332771 17.07548171 1.79165701 17.07035669 0 17.0625 C-0.84175781 17.07059692 -1.68351563 17.07869385 -2.55078125 17.08703613 C-8.38715618 16.99360399 -8.38715618 16.99360399 -11.52929688 14.62304688 C-13.12144695 12.3585147 -13.542797 11.2702583 -13.5 8.53125 C-13.51546875 7.54125 -13.51546875 7.54125 -13.53125 6.53125 C-11.69061453 -0.39820116 -5.94975317 -0.05723107 0 0 Z " fill="#000000" transform="translate(205,207.46875)"/>
<path d="M0 0 C0.87269531 -0.0038269 1.74539063 -0.00765381 2.64453125 -0.01159668 C4.48699092 -0.0143149 6.32948924 -0.00695994 8.171875 0.00976562 C10.99045934 0.03117752 13.80649485 0.00996199 16.625 -0.015625 C18.41667229 -0.01298171 20.20834299 -0.00785669 22 0 C22.84175781 -0.00809692 23.68351562 -0.01619385 24.55078125 -0.02453613 C30.38715618 0.06889601 30.38715618 0.06889601 33.52929688 2.43945312 C35.12144695 4.7039853 35.542797 5.7922417 35.5 8.53125 C35.5103125 9.19125 35.520625 9.85125 35.53125 10.53125 C34.72011424 13.58493756 33.53019712 14.62236769 31 16.53125 C28.00263779 17.13239553 25.04890723 17.09182764 22 17.0625 C21.12730469 17.0663269 20.25460937 17.07015381 19.35546875 17.07409668 C17.51300908 17.0768149 15.67051076 17.06945994 13.828125 17.05273438 C11.00954066 17.03132248 8.19350515 17.05253801 5.375 17.078125 C3.58332771 17.07548171 1.79165701 17.07035669 0 17.0625 C-0.84175781 17.07059692 -1.68351562 17.07869385 -2.55078125 17.08703613 C-8.38715618 16.99360399 -8.38715618 16.99360399 -11.52929688 14.62304688 C-13.12144695 12.3585147 -13.542797 11.2702583 -13.5 8.53125 C-13.51546875 7.54125 -13.51546875 7.54125 -13.53125 6.53125 C-11.69061453 -0.39820116 -5.94975317 -0.05723107 0 0 Z " fill="#000000" transform="translate(285,159.46875)"/>
<path d="M0 0 C0.87269531 -0.0038269 1.74539062 -0.00765381 2.64453125 -0.01159668 C4.48699092 -0.0143149 6.32948924 -0.00695994 8.171875 0.00976562 C10.99045934 0.03117752 13.80649485 0.00996199 16.625 -0.015625 C18.41667229 -0.01298171 20.20834299 -0.00785669 22 0 C22.84175781 -0.00809692 23.68351562 -0.01619385 24.55078125 -0.02453613 C30.38715618 0.06889601 30.38715618 0.06889601 33.52929688 2.43945312 C35.12144695 4.7039853 35.542797 5.7922417 35.5 8.53125 C35.5103125 9.19125 35.520625 9.85125 35.53125 10.53125 C34.72011424 13.58493756 33.53019712 14.62236769 31 16.53125 C28.00263779 17.13239553 25.04890723 17.09182764 22 17.0625 C21.12730469 17.0663269 20.25460938 17.07015381 19.35546875 17.07409668 C17.51300908 17.0768149 15.67051076 17.06945994 13.828125 17.05273438 C11.00954066 17.03132248 8.19350515 17.05253801 5.375 17.078125 C3.58332771 17.07548171 1.79165701 17.07035669 0 17.0625 C-0.84175781 17.07059692 -1.68351563 17.07869385 -2.55078125 17.08703613 C-8.38715618 16.99360399 -8.38715618 16.99360399 -11.52929688 14.62304688 C-13.12144695 12.3585147 -13.542797 11.2702583 -13.5 8.53125 C-13.51546875 7.54125 -13.51546875 7.54125 -13.53125 6.53125 C-11.69061453 -0.39820116 -5.94975317 -0.05723107 0 0 Z " fill="#000000" transform="translate(205,159.46875)"/>
</svg>
