<?xml version="1.0" encoding="UTF-8"?>
<svg version="1.1" xmlns="http://www.w3.org/2000/svg" width="912" height="153">
<path d="M0 0 C300.96 0 601.92 0 912 0 C912 50.49 912 100.98 912 153 C611.04 153 310.08 153 0 153 C0 102.51 0 52.02 0 0 Z " fill="#FDFEFE" transform="translate(0,0)"/>
<path d="M0 0 C11.55 0 23.1 0 35 0 C37.67920916 6.02822062 40.02128367 11.76454939 42 18 C42.4507993 19.36014802 42.90388793 20.71953964 43.359375 22.078125 C49.1796875 39.5390625 49.1796875 39.5390625 55 57 C57.01373871 53.97939193 57.80460102 51.68409229 58.8125 48.22265625 C61.00845205 40.88756641 63.47958677 33.66650339 66 26.4375 C66.85477602 23.97807628 67.70894933 21.518443 68.5625 19.05859375 C68.93503906 17.98923584 69.30757813 16.91987793 69.69140625 15.81811523 C71.49462042 10.55683418 73.24123169 5.27630493 75 0 C86.88 0 98.76 0 111 0 C111 33.33 111 66.66 111 101 C102.75 101 94.5 101 86 101 C86 79.88 86 58.76 86 37 C85.34 37 84.68 37 84 37 C83.79375 38.27875 83.5875 39.5575 83.375 40.875 C81.87324295 48.42669258 79.22658324 55.62672703 76.72412109 62.89208984 C75.77636003 65.651014 74.85548937 68.4185443 73.9375 71.1875 C68.96875 86.09375 68.96875 86.09375 64 101 C58.06 101 52.12 101 46 101 C44.52429164 96.71760287 43.04906574 92.4350449 41.57495117 88.15209961 C41.07586513 86.7024648 40.57652604 85.25291707 40.0769043 83.8034668 C36.65922498 73.88772248 33.30406381 63.95434855 30 54 C27.525 46.575 27.525 46.575 25 39 C24.67 59.46 24.34 79.92 24 101 C16.08 101 8.16 101 0 101 C0 67.67 0 34.34 0 0 Z " fill="#4370AC" transform="translate(343,20)"/>
<path d="M0 0 C2.14552087 0.03151557 4.29030413 0.04102434 6.43603516 0.046875 C12.30508178 0.08571646 17.96658398 0.1765464 23.75244141 1.28125 C18.55933466 6.91948018 14.25338615 8.58218236 6.75244141 9.28125 C3.10533168 9.39570493 -0.53663267 9.37616937 -4.18505859 9.34375 C-5.15507813 9.33923828 -6.12509766 9.33472656 -7.12451172 9.33007812 C-9.49892619 9.3183815 -11.87320881 9.30199086 -14.24755859 9.28125 C-14.24755859 9.94125 -14.24755859 10.60125 -14.24755859 11.28125 C-13.35617188 11.27339478 -13.35617188 11.27339478 -12.44677734 11.26538086 C-9.7137155 11.24439409 -6.9806707 11.23152155 -4.24755859 11.21875 C-2.84570312 11.20618164 -2.84570312 11.20618164 -1.41552734 11.19335938 C7.88540752 11.16083862 15.20696848 11.34906305 22.75244141 17.28125 C28.56799751 23.0968061 30.04439899 30.35117493 30.75244141 38.28125 C30.95998047 37.29125 31.16751953 36.30125 31.38134766 35.28125 C33.18949556 27.31592509 34.95116024 20.52460223 41.75244141 15.28125 C42.41244141 15.28125 43.07244141 15.28125 43.75244141 15.28125 C48.53431726 26.00041943 46.96827291 39.94149312 46.99267578 51.4921875 C47.00242422 54.27634088 47.03357259 57.05976731 47.06494141 59.84375 C47.2194935 85.66343922 47.2194935 85.66343922 39.47119141 94.703125 C30.2153945 103.20162943 16.43703609 103.79883193 4.53759766 103.72729492 C2.38688132 103.71878734 0.2388347 103.74764366 -1.91162109 103.77929688 C-12.46576656 103.83229017 -24.28399113 102.80332212 -32.81787109 95.8828125 C-40.9322117 86.79297739 -40.40297341 75.27655481 -40.41552734 63.81640625 C-40.41885574 62.74305527 -40.42218414 61.66970428 -40.4256134 60.56382751 C-40.4306505 58.30565822 -40.43302273 56.04748155 -40.43286133 53.78930664 C-40.43504985 50.35745883 -40.45324581 46.92593182 -40.47216797 43.49414062 C-40.47510226 41.28906359 -40.47708682 39.08398504 -40.47802734 36.87890625 C-40.48521286 35.86506363 -40.49239838 34.85122101 -40.49980164 33.80665588 C-40.47208818 25.05804746 -40.19208912 16.16439061 -34.24755859 9.28125 C-24.85781447 0.05026967 -12.45736322 -0.18442546 0 0 Z " fill="#65A0D2" transform="translate(61.24755859375,18.71875)"/>
<path d="M0 0 C8.91 0 17.82 0 27 0 C32.83374399 6.11154132 32.83374399 6.11154132 33.98046875 9.33984375 C36.42498197 15.35987387 40.05642304 20.61728886 43.5625 26.0625 C48.75785612 34.34455695 53.87600896 42.67351456 59 51 C59.33 34.17 59.66 17.34 60 0 C67.92 0 75.84 0 84 0 C84 33.33 84 66.66 84 101 C60 101 60 101 54.28125 95.3515625 C53.04586792 93.39871216 53.04586792 93.39871216 52.30029297 91.64892578 C51.85867828 90.66427338 51.85867828 90.66427338 51.40814209 89.659729 C51.1084552 88.98826843 50.80876831 88.31680786 50.5 87.625 C49.80691454 86.26429237 49.10376554 84.90866811 48.39111328 83.55810547 C46.93472156 80.78154727 45.52322002 77.98831247 44.13769531 75.17578125 C40.82234929 68.56120733 36.81860486 62.37818668 32.875 56.125 C30.60625 52.45375 28.3375 48.7825 26 45 C25.67 63.48 25.34 81.96 25 101 C16.75 101 8.5 101 0 101 C0 67.67 0 34.34 0 0 Z " fill="#4370AC" transform="translate(801,20)"/>
<path d="M0 0 C8.91 0 17.82 0 27 0 C31.71887257 6.74124652 36.09761138 13.34385583 40.1875 20.4375 C46.18088223 30.81705628 52.58789987 40.84750813 59 51 C59.33 34.17 59.66 17.34 60 0 C67.92 0 75.84 0 84 0 C84 33.33 84 66.66 84 101 C76.08 101 68.16 101 60 101 C53.7425881 93.14347173 53.7425881 93.14347173 52.27734375 89.25390625 C49.78656444 83.22849405 46.39707515 77.88450862 42.9375 72.375 C41.7419757 70.42229418 40.54921243 68.46789494 39.359375 66.51171875 C38.79025391 65.5789209 38.22113281 64.64612305 37.63476562 63.68505859 C35.30609115 59.86027337 32.99241553 56.02664133 30.6875 52.1875 C30.32068115 51.5776123 29.9538623 50.96772461 29.57592773 50.33935547 C28.3239939 48.25045977 27.08956107 46.17912214 26 44 C25.67 62.81 25.34 81.62 25 101 C16.75 101 8.5 101 0 101 C0 67.67 0 34.34 0 0 Z " fill="#65A0D2" transform="translate(133,20)"/>
<path d="M0 0 C11.88 0 23.76 0 36 0 C37.52625 4.74375 39.0525 9.4875 40.625 14.375 C43.90686918 24.56472585 47.21253504 34.74373838 50.6484375 44.8828125 C52.53862721 50.55482784 54.25174807 56.28308286 56 62 C57.53748226 67.00129643 59.08047141 72.00087579 60.625 77 C60.82254883 77.64243652 61.02009766 78.28487305 61.22363281 78.94677734 C61.8059807 80.84012281 62.39123518 82.7325735 62.9765625 84.625 C63.31768066 85.73101562 63.65879883 86.83703125 64.01025391 87.9765625 C64.93450454 90.9606756 64.93450454 90.9606756 66.12646484 93.5859375 C67 96 67 96 67 101 C58.42 101 49.84 101 41 101 C38 91 38 91 36 82 C23.79 82 11.58 82 -1 82 C-1.66 85.63 -2.32 89.26 -3 93 C-3.99 95.64 -4.98 98.28 -6 101 C-14.25 101 -22.5 101 -31 101 C-30.27266199 95.18129593 -29.68271833 91.53218883 -27.6875 86.3125 C-25.59316754 80.79588295 -23.80867561 75.23048973 -22.09106445 69.5847168 C-20.17707656 63.29626652 -18.21021928 57.02416193 -16.25 50.75 C-16.03511932 50.06211395 -15.82023865 49.37422791 -15.59884644 48.66549683 C-12.6161686 39.12172573 -9.60964839 29.58592388 -6.5625 20.0625 C-6.24506836 19.07024414 -5.92763672 18.07798828 -5.60058594 17.05566406 C-3.77158466 11.35648822 -1.89308746 5.67926238 0 0 Z " fill="#4370AC" transform="translate(715,20)"/>
<path d="M0 0 C11.88 0 23.76 0 36 0 C37.65 5.28 39.3 10.56 41 16 C42.14073095 19.60593475 43.284594 23.21048296 44.4375 26.8125 C44.91751465 28.31345215 44.91751465 28.31345215 45.40722656 29.84472656 C47.7472019 37.14144676 50.11345494 44.42940485 52.48828125 51.71484375 C52.79636215 52.66007401 53.10444305 53.60530426 53.42185974 54.57917786 C54.97132099 59.33180807 56.52247886 64.08387679 58.07592773 68.83520508 C59.72650878 73.8871711 61.36659236 78.94245784 63 84 C63.22453857 84.69182373 63.44907715 85.38364746 63.68041992 86.09643555 C64.2672999 87.91119305 64.84495751 89.72892585 65.421875 91.546875 C65.7322168 92.51979492 66.04255859 93.49271484 66.36230469 94.49511719 C67 97 67 97 67 101 C58.42 101 49.84 101 41 101 C40.175 98.23625 39.35 95.4725 38.5 92.625 C38.23896484 91.75568848 37.97792969 90.88637695 37.70898438 89.99072266 C37.50595703 89.3054248 37.30292969 88.62012695 37.09375 87.9140625 C36.88427734 87.2123291 36.67480469 86.5105957 36.45898438 85.78759766 C36 84 36 84 36 82 C23.79 82 11.58 82 -1 82 C-1.66 85.63 -2.32 89.26 -3 93 C-3.99 95.64 -4.98 98.28 -6 101 C-14.25 101 -22.5 101 -31 101 C-30.28098462 95.96689234 -29.50148483 91.945836 -27.99609375 87.1953125 C-27.79737671 86.56307266 -27.59865967 85.93083282 -27.3939209 85.2794342 C-26.74709532 83.22623261 -26.09247599 81.17561463 -25.4375 79.125 C-24.98143453 77.68413279 -24.5257918 76.24313171 -24.07055664 74.80200195 C-22.93052746 71.19781688 -21.78389676 67.59577148 -20.63525391 63.99432373 C-19.71096428 61.0925978 -18.79328386 58.18878746 -17.875 55.28515625 C-14.04803612 43.22070023 -10.09810206 31.20007127 -6.05639648 19.20581055 C-5.70134033 18.14918213 -5.34628418 17.09255371 -4.98046875 16.00390625 C-4.67004639 15.08424072 -4.35962402 14.1645752 -4.03979492 13.21704102 C-2.62295265 8.83344612 -1.32377732 4.41259106 0 0 Z " fill="#4370AC" transform="translate(504,20)"/>
<path d="M0 0 C9.054375 -0.04125 18.10875 -0.0825 27.4375 -0.125 C30.27915771 -0.14320801 33.12081543 -0.16141602 36.04858398 -0.18017578 C38.32275199 -0.18602177 40.5969221 -0.19111708 42.87109375 -0.1953125 C44.03419067 -0.20554443 45.1972876 -0.21577637 46.39562988 -0.22631836 C56.82552666 -0.22853772 65.99973659 0.68913805 74 8 C79.35915453 15.67702578 79.20979142 23.56801647 79.25 32.625 C79.270625 33.76324219 79.29125 34.90148438 79.3125 36.07421875 C79.35526141 45.38551615 78.40259794 54.75495496 72 62 C64.55090288 67.32284998 57.59435158 68.13524627 48.53515625 68.09765625 C47.29386963 68.09515869 46.05258301 68.09266113 44.77368164 68.09008789 C43.2189917 68.08098389 41.66430176 68.07187988 40.0625 68.0625 C32.6065625 68.0315625 32.6065625 68.0315625 25 68 C25 78.89 25 89.78 25 101 C16.75 101 8.5 101 0 101 C0 67.67 0 34.34 0 0 Z " fill="#426EAB" transform="translate(591,20)"/>
<path d="M0 0 C23.43 0 46.86 0 71 0 C71 6.93 71 13.86 71 21 C56.15 21 41.3 21 26 21 C26 26.94 26 32.88 26 39 C38.87 39 51.74 39 65 39 C65 45.93 65 52.86 65 60 C51.8 60 38.6 60 25 60 C25 66.6 25 73.2 25 80 C40.18 80 55.36 80 71 80 C71 86.93 71 93.86 71 101 C47.57 101 24.14 101 0 101 C0 67.67 0 34.34 0 0 Z " fill="#65A0D2" transform="translate(246,20)"/>
<path d="M0 0 C2.8477955 -0.087137 5.69437419 -0.14145762 8.54321289 -0.18212891 C9.53256836 -0.21951172 10.52192383 -0.25689453 11.54125977 -0.29541016 C18.83344114 -0.38368135 18.83344114 -0.38368135 22.73461914 2.52880859 C25.07894257 5.86665532 25.72984462 8.29542436 25.75097656 12.27783203 C25.75735641 13.09588318 25.76373627 13.91393433 25.77030945 14.7567749 C25.77142227 15.6380304 25.7725351 16.51928589 25.77368164 17.42724609 C25.77867424 18.79432709 25.77867424 18.79432709 25.7837677 20.18902588 C25.78883163 22.11901342 25.79117619 24.04900972 25.79101562 25.97900391 C25.79319418 28.9176295 25.81133359 31.85587482 25.83032227 34.79443359 C25.83325796 36.67203648 25.83524158 38.54964115 25.83618164 40.42724609 C25.84336716 41.30040466 25.85055267 42.17356323 25.85795593 43.07318115 C25.8371243 48.69751789 25.72823124 54.42436889 22.16821289 59.06787109 C17.82997695 62.19140097 12.32749668 61.4537145 7.23071289 61.50537109 C6.28454102 61.534375 5.33836914 61.56337891 4.36352539 61.59326172 C0.07804961 61.63238474 -2.64413262 61.61423036 -6.43334961 59.48583984 C-10.91915689 54.24048353 -10.71418684 48.91677299 -10.73022461 42.32568359 C-10.73688141 41.37273407 -10.74353821 40.41978455 -10.75039673 39.43795776 C-10.760503 37.42578048 -10.76521438 35.41356982 -10.76489258 33.40136719 C-10.7692624 30.33520848 -10.80559441 27.27049381 -10.84350586 24.20458984 C-10.84937524 22.24495932 -10.85334382 20.285322 -10.85522461 18.32568359 C-10.86959564 17.41505157 -10.88396667 16.50441956 -10.89877319 15.56619263 C-10.85652926 9.63289054 -10.01752006 5.97101453 -6.39428711 1.19287109 C-4.14866248 0.12514441 -2.46992624 0.19896418 0 0 Z " fill="#FAFCFD" transform="translate(56.394287109375,39.80712890625)"/>
<path d="M0 0 C2.825625 -0.04125 5.65125 -0.0825 8.5625 -0.125 C9.43849854 -0.14320801 10.31449707 -0.16141602 11.21704102 -0.18017578 C16.84841258 -0.21960492 21.91405795 0.22400886 26.9140625 3.1015625 C28.75165849 6.31405046 28.42967776 9.77841831 28.375 13.375 C28.38660156 14.13039063 28.39820313 14.88578125 28.41015625 15.6640625 C28.38637447 20.19845598 28.06466236 23.40838212 25 27 C21.98791402 28.04018897 19.18351638 28.11697266 16.015625 28.09765625 C15.17290039 28.09515869 14.33017578 28.09266113 13.46191406 28.09008789 C12.40198242 28.08098389 11.34205078 28.07187988 10.25 28.0625 C6.8675 28.041875 3.485 28.02125 0 28 C0 18.76 0 9.52 0 0 Z " fill="#F8FAFC" transform="translate(616,40)"/>
<path d="M0 0 C2.61144191 3.08925094 3.71705343 5.78948118 4.75390625 9.68359375 C5.05103516 10.77607422 5.34816406 11.86855469 5.65429688 12.99414062 C5.95400391 14.13044922 6.25371094 15.26675781 6.5625 16.4375 C7.16548838 18.6868643 7.77087176 20.93558824 8.37890625 23.18359375 C8.77444702 24.67717407 8.77444702 24.67717407 9.17797852 26.20092773 C9.94438313 29.00547183 9.94438313 29.00547183 11.10131836 31.61352539 C12 34 12 34 12 38 C4.41 38 -3.18 38 -11 38 C-9.88617886 30.20325203 -9.88617886 30.20325203 -8.75 27.125 C-6.88696676 21.82040288 -5.34768598 16.43145651 -3.80175781 11.02783203 C-2.71191388 7.2598645 -1.54384571 3.61416414 0 0 Z " fill="#F5F8FB" transform="translate(732,43)"/>
<path d="M0 0 C2.10224005 2.10224005 2.51181527 3.09428992 3.3671875 5.859375 C3.61130371 6.63925781 3.85541992 7.41914062 4.10693359 8.22265625 C4.36039551 9.05667969 4.61385742 9.89070313 4.875 10.75 C5.13748535 11.59949219 5.3999707 12.44898438 5.67041016 13.32421875 C6.45593657 15.88018236 7.23035379 18.43921379 8 21 C8.22042969 21.73154297 8.44085937 22.46308594 8.66796875 23.21679688 C12 34.34832803 12 34.34832803 12 38 C4.41 38 -3.18 38 -11 38 C-8.68844221 25.28643216 -8.68844221 25.28643216 -6.625 19 C-6.40948486 18.32646484 -6.19396973 17.65292969 -5.97192383 16.95898438 C-4.12805031 11.25295251 -2.12636765 5.60695828 0 0 Z " fill="#F6F9FB" transform="translate(521,43)"/>
<path d="M0 0 C0.33 0 0.66 0 1 0 C1 6.93 1 13.86 1 21 C0.34 21 -0.32 21 -1 21 C-1.22537111 17.87598221 -1.42738648 14.75088667 -1.625 11.625 C-1.68945312 10.73554687 -1.75390625 9.84609375 -1.8203125 8.9296875 C-1.871875 8.07890625 -1.9234375 7.228125 -1.9765625 6.3515625 C-2.02893066 5.56604004 -2.08129883 4.78051758 -2.13525391 3.97119141 C-2 2 -2 2 0 0 Z " fill="#91BDDF" transform="translate(93,55)"/>
</svg>
