<?xml version="1.0" encoding="UTF-8"?>
<svg version="1.1" xmlns="http://www.w3.org/2000/svg" width="343" height="153">
<path d="M0 0 C113.19 0 226.38 0 343 0 C343 50.49 343 100.98 343 153 C229.81 153 116.62 153 0 153 C0 102.51 0 52.02 0 0 Z " fill="#FDFEFE" transform="translate(0,0)"/>
<path d="M0 0 C2.14552087 0.03151557 4.29030413 0.04102434 6.43603516 0.046875 C12.30508178 0.08571646 17.96658398 0.1765464 23.75244141 1.28125 C18.55933466 6.91948018 14.25338615 8.58218236 6.75244141 9.28125 C3.10533168 9.39570493 -0.53663267 9.37616937 -4.18505859 9.34375 C-5.15507813 9.33923828 -6.12509766 9.33472656 -7.12451172 9.33007812 C-9.49892619 9.3183815 -11.87320881 9.30199086 -14.24755859 9.28125 C-14.24755859 9.94125 -14.24755859 10.60125 -14.24755859 11.28125 C-13.35617188 11.27339478 -13.35617188 11.27339478 -12.44677734 11.26538086 C-9.7137155 11.24439409 -6.9806707 11.23152155 -4.24755859 11.21875 C-2.84570312 11.20618164 -2.84570312 11.20618164 -1.41552734 11.19335938 C7.88540752 11.16083862 15.20696848 11.34906305 22.75244141 17.28125 C28.56799751 23.0968061 30.04439899 30.35117493 30.75244141 38.28125 C30.95998047 37.29125 31.16751953 36.30125 31.38134766 35.28125 C33.18949556 27.31592509 34.95116024 20.52460223 41.75244141 15.28125 C42.41244141 15.28125 43.07244141 15.28125 43.75244141 15.28125 C48.53431726 26.00041943 46.96827291 39.94149312 46.99267578 51.4921875 C47.00242422 54.27634088 47.03357259 57.05976731 47.06494141 59.84375 C47.2194935 85.66343922 47.2194935 85.66343922 39.47119141 94.703125 C30.2153945 103.20162943 16.43703609 103.79883193 4.53759766 103.72729492 C2.38688132 103.71878734 0.2388347 103.74764366 -1.91162109 103.77929688 C-12.46576656 103.83229017 -24.28399113 102.80332212 -32.81787109 95.8828125 C-40.9322117 86.79297739 -40.40297341 75.27655481 -40.41552734 63.81640625 C-40.41885574 62.74305527 -40.42218414 61.66970428 -40.4256134 60.56382751 C-40.4306505 58.30565822 -40.43302273 56.04748155 -40.43286133 53.78930664 C-40.43504985 50.35745883 -40.45324581 46.92593182 -40.47216797 43.49414062 C-40.47510226 41.28906359 -40.47708682 39.08398504 -40.47802734 36.87890625 C-40.48521286 35.86506363 -40.49239838 34.85122101 -40.49980164 33.80665588 C-40.47208818 25.05804746 -40.19208912 16.16439061 -34.24755859 9.28125 C-24.85781447 0.05026967 -12.45736322 -0.18442546 0 0 Z " fill="#65A0D2" transform="translate(61.24755859375,18.71875)"/>
<path d="M0 0 C8.91 0 17.82 0 27 0 C31.71887257 6.74124652 36.09761138 13.34385583 40.1875 20.4375 C46.18088223 30.81705628 52.58789987 40.84750813 59 51 C59.33 34.17 59.66 17.34 60 0 C67.92 0 75.84 0 84 0 C84 33.33 84 66.66 84 101 C76.08 101 68.16 101 60 101 C53.7425881 93.14347173 53.7425881 93.14347173 52.27734375 89.25390625 C49.78656444 83.22849405 46.39707515 77.88450862 42.9375 72.375 C41.7419757 70.42229418 40.54921243 68.46789494 39.359375 66.51171875 C38.79025391 65.5789209 38.22113281 64.64612305 37.63476562 63.68505859 C35.30609115 59.86027337 32.99241553 56.02664133 30.6875 52.1875 C30.32068115 51.5776123 29.9538623 50.96772461 29.57592773 50.33935547 C28.3239939 48.25045977 27.08956107 46.17912214 26 44 C25.67 62.81 25.34 81.62 25 101 C16.75 101 8.5 101 0 101 C0 67.67 0 34.34 0 0 Z " fill="#65A0D2" transform="translate(133,20)"/>
<path d="M0 0 C23.43 0 46.86 0 71 0 C71 6.93 71 13.86 71 21 C56.15 21 41.3 21 26 21 C26 26.94 26 32.88 26 39 C38.87 39 51.74 39 65 39 C65 45.93 65 52.86 65 60 C51.8 60 38.6 60 25 60 C25 66.6 25 73.2 25 80 C40.18 80 55.36 80 71 80 C71 86.93 71 93.86 71 101 C47.57 101 24.14 101 0 101 C0 67.67 0 34.34 0 0 Z " fill="#65A0D2" transform="translate(246,20)"/>
<path d="M0 0 C2.8477955 -0.087137 5.69437419 -0.14145762 8.54321289 -0.18212891 C9.53256836 -0.21951172 10.52192383 -0.25689453 11.54125977 -0.29541016 C18.83344114 -0.38368135 18.83344114 -0.38368135 22.73461914 2.52880859 C25.07894257 5.86665532 25.72984462 8.29542436 25.75097656 12.27783203 C25.75735641 13.09588318 25.76373627 13.91393433 25.77030945 14.7567749 C25.77142227 15.6380304 25.7725351 16.51928589 25.77368164 17.42724609 C25.77867424 18.79432709 25.77867424 18.79432709 25.7837677 20.18902588 C25.78883163 22.11901342 25.79117619 24.04900972 25.79101562 25.97900391 C25.79319418 28.9176295 25.81133359 31.85587482 25.83032227 34.79443359 C25.83325796 36.67203648 25.83524158 38.54964115 25.83618164 40.42724609 C25.84336716 41.30040466 25.85055267 42.17356323 25.85795593 43.07318115 C25.8371243 48.69751789 25.72823124 54.42436889 22.16821289 59.06787109 C17.82997695 62.19140097 12.32749668 61.4537145 7.23071289 61.50537109 C6.28454102 61.534375 5.33836914 61.56337891 4.36352539 61.59326172 C0.07804961 61.63238474 -2.64413262 61.61423036 -6.43334961 59.48583984 C-10.91915689 54.24048353 -10.71418684 48.91677299 -10.73022461 42.32568359 C-10.73688141 41.37273407 -10.74353821 40.41978455 -10.75039673 39.43795776 C-10.760503 37.42578048 -10.76521438 35.41356982 -10.76489258 33.40136719 C-10.7692624 30.33520848 -10.80559441 27.27049381 -10.84350586 24.20458984 C-10.84937524 22.24495932 -10.85334382 20.285322 -10.85522461 18.32568359 C-10.86959564 17.41505157 -10.88396667 16.50441956 -10.89877319 15.56619263 C-10.85652926 9.63289054 -10.01752006 5.97101453 -6.39428711 1.19287109 C-4.14866248 0.12514441 -2.46992624 0.19896418 0 0 Z " fill="#FAFCFD" transform="translate(56.394287109375,39.80712890625)"/>
<path d="M0 0 C0.33 0 0.66 0 1 0 C1 6.93 1 13.86 1 21 C0.34 21 -0.32 21 -1 21 C-1.22537111 17.87598221 -1.42738648 14.75088667 -1.625 11.625 C-1.68945312 10.73554687 -1.75390625 9.84609375 -1.8203125 8.9296875 C-1.871875 8.07890625 -1.9234375 7.228125 -1.9765625 6.3515625 C-2.02893066 5.56604004 -2.08129883 4.78051758 -2.13525391 3.97119141 C-2 2 -2 2 0 0 Z " fill="#91BDDF" transform="translate(93,55)"/>
</svg>
