<?xml version="1.0" encoding="UTF-8"?>
<svg version="1.1" xmlns="http://www.w3.org/2000/svg" width="512" height="512">
<path d="M0 0 C1.48428699 1.26484921 2.96409198 2.53499454 4.4375 3.8125 C5.02273438 4.25464844 5.60796875 4.69679688 6.2109375 5.15234375 C25.44878328 20.00974108 36.77929486 46.64221185 40.12402344 70.04248047 C43.18050723 97.05094235 37.81063352 125.76373846 20.98779297 147.703125 C16.12463295 153.71675926 10.95492005 159.39594686 5.4375 164.8125 C6.17613281 164.93310791 6.91476562 165.05371582 7.67578125 165.17797852 C10.36866073 165.79668376 12.23904894 166.60372134 14.625 167.96484375 C15.399646 168.40634766 16.17429199 168.84785156 16.97241211 169.30273438 C17.78589111 169.78033203 18.59937012 170.25792969 19.4375 170.75 C20.28256104 171.24435547 21.12762207 171.73871094 21.99829102 172.24804688 C34.0110188 179.40155261 44.3321418 188.20508699 54.4375 197.8125 C55.12070312 198.43125 55.80390625 199.05 56.5078125 199.6875 C85.63921371 226.99057059 103.20820721 270.50568416 104.67578125 309.96875 C104.70585971 311.74991785 104.73055332 313.53118435 104.75 315.3125 C104.79350586 316.64087891 104.79350586 316.64087891 104.83789062 317.99609375 C104.89848757 324.34478932 103.83278217 329.38004853 100.4375 334.8125 C98.21875 336.96875 98.21875 336.96875 95.9375 338.3125 C95.1846875 338.7765625 94.431875 339.240625 93.65625 339.71875 C88.2272082 342.39503821 82.15600729 342.66957881 76.28515625 341.31640625 C70.43518479 339.32898792 65.95613135 336.51228906 62.85546875 331 C60.55162531 325.32148135 60.54069024 319.10451939 60.0625 313.0625 C56.7766291 277.50246859 42.56727295 246.64477603 15.4375 222.8125 C-10.97103642 201.35980717 -44.27798879 190.3706527 -78.3125 193.375 C-111.87015898 197.01287391 -143.52094173 213.14108808 -164.95117188 239.52197266 C-182.85584141 262.77335591 -191.28227441 287.71380116 -193.39916992 316.76220703 C-194.06557259 324.9561206 -195.05520612 331.84780963 -201.375 337.6875 C-207.34929832 341.67036555 -213.52747613 342.59955086 -220.5625 341.8125 C-225.59698559 340.57421539 -229.96329463 338.61166122 -233.5625 334.8125 C-237.17378691 328.60363509 -238.18736827 323.10112257 -238 316 C-237.98533691 315.09056641 -237.97067383 314.18113281 -237.95556641 313.24414062 C-236.7787364 269.85884086 -217.38534409 229.69414328 -187.5625 198.8125 C-186.75296875 197.95140625 -185.9434375 197.0903125 -185.109375 196.203125 C-172.64278168 183.25395387 -156.9410487 172.29771909 -140.5625 164.8125 C-139.9025 164.8125 -139.2425 164.8125 -138.5625 164.8125 C-139.5215625 163.884375 -139.5215625 163.884375 -140.5 162.9375 C-141.52550891 161.90043606 -142.54551899 160.85792803 -143.5625 159.8125 C-144.22894531 159.13058594 -144.89539063 158.44867188 -145.58203125 157.74609375 C-167.03007465 134.94580943 -174.67403234 106.74526285 -173.74169922 75.93652344 C-172.40960342 52.71377428 -162.5232526 31.3538191 -147.5625 13.8125 C-146.799375 12.801875 -146.03625 11.79125 -145.25 10.75 C-108.65610034 -29.24798335 -42.10937694 -33.21750248 0 0 Z M-112.5625 40.8125 C-113.19671875 41.42609375 -113.8309375 42.0396875 -114.484375 42.671875 C-125.31833891 53.88934205 -130.16458847 69.69850843 -130.0625 85 C-130.05750488 85.99668701 -130.05250977 86.99337402 -130.04736328 88.02026367 C-129.63143984 105.84616871 -122.39473379 120.46526403 -109.5625 132.8125 C-96.20373679 144.11302414 -80.7540853 149.62762645 -63.1953125 149.15625 C-43.98324139 147.33833359 -27.88505905 138.9946377 -15.4375 124.3046875 C-3.926181 108.87356591 -1.33204429 90.29070642 -3.8671875 71.56152344 C-6.40885908 58.44468263 -13.28166082 48.12528699 -22.5625 38.8125 C-23.17738281 38.17441406 -23.79226562 37.53632813 -24.42578125 36.87890625 C-36.45471247 25.31361692 -52.66268069 21.28654123 -68.90039062 21.46289062 C-86.12285724 22.00337516 -100.55316692 28.45757461 -112.5625 40.8125 Z " fill="#000000" transform="translate(258.5625,96.1875)"/>
<path d="M0 0 C26.84966079 16.56606522 43.69654474 41.2655001 50.98828125 71.84375 C56.70706523 99.69455109 51.52260061 128.46299409 36.98828125 152.84375 C34.21607701 157.02279332 31.16351091 160.96291375 27.98828125 164.84375 C28.65859375 165.38 29.32890625 165.91625 30.01953125 166.46875 C30.99921875 167.2525 31.97890625 168.03625 32.98828125 168.84375 C33.5503125 169.29105469 34.11234375 169.73835937 34.69140625 170.19921875 C80.0316069 206.33574619 110.99584326 254.43827185 117.703125 312.98046875 C118.05515227 317.74971489 118.27360787 322.50012786 118.36328125 327.28125 C118.38946533 328.11027832 118.41564941 328.93930664 118.44262695 329.79345703 C118.46156727 336.75086757 116.63753531 342.12090555 111.73828125 347.15625 C105.4326006 351.02564494 99.4138821 352.91156368 91.98828125 351.84375 C85.11187465 350.18966732 81.01787418 347.60697357 77.046875 341.74609375 C74.9522087 337.98187793 74.72498366 334.52091526 74.41015625 330.2890625 C74.30429148 328.94880188 74.19722798 327.60863553 74.08911133 326.26855469 C74.00447128 325.21589417 74.00447128 325.21589417 73.91812134 324.14196777 C70.59305494 283.96130795 56.44954748 249.72917817 27.98828125 220.84375 C27.23675781 220.07933594 26.48523438 219.31492187 25.7109375 218.52734375 C16.61749745 209.83805659 5.50534212 202.52989691 -5.69921875 196.84375 C-10.51994175 194.32859017 -14.69446177 191.20220419 -18.94921875 187.84375 C-19.58883545 187.34488281 -20.22845215 186.84601563 -20.88745117 186.33203125 C-26.45106739 181.82973409 -30.3105209 176.93207439 -32.01171875 169.84375 C-32.62525375 163.5038883 -31.7910635 159.05174786 -28.01171875 153.84375 C-23.40515551 149.04713209 -18.11781057 145.13194692 -12.78125 141.1953125 C0.00146666 131.43191302 7.28396172 116.63725532 9.58203125 100.9609375 C11.61543583 83.41865618 6.50467806 66.49403919 -3.890625 52.2734375 C-15.55546707 38.36988836 -32.13506279 31.76206544 -49.86645508 30.18310547 C-59.03982093 29.36216823 -64.64980556 28.090876 -71.38671875 21.53125 C-75.06029262 15.45572398 -75.87135762 8.61857582 -74.6171875 1.65234375 C-72.94536412 -4.72215703 -69.56248803 -8.64691951 -64.01171875 -12.15625 C-44.60904958 -20.08649626 -17.11063698 -9.71662573 0 0 Z " fill="#000000" transform="translate(375.01171875,86.15625)"/>
</svg>
