<?xml version="1.0" encoding="UTF-8"?>
<svg version="1.1" xmlns="http://www.w3.org/2000/svg" width="512" height="512">
<path d="M0 0 C0.80449854 -0.00297112 1.60899709 -0.00594224 2.43787438 -0.0090034 C5.13079911 -0.01766785 7.82367926 -0.01919672 10.51661682 -0.02069092 C12.4484822 -0.02532057 14.38034667 -0.03034543 16.31221008 -0.03573608 C21.55801699 -0.04884514 26.80381111 -0.05530176 32.04963183 -0.05974674 C35.32669989 -0.06267898 38.60376446 -0.066784 41.88083076 -0.07125092 C52.13346447 -0.08491992 62.38609019 -0.09459034 72.63873237 -0.09845281 C84.47570863 -0.10293672 96.3125696 -0.12050259 108.1495108 -0.1494534 C117.29952591 -0.17105648 126.44950853 -0.1811563 135.59954888 -0.18249393 C141.06476752 -0.18354264 146.5298777 -0.18946504 151.9950695 -0.20731354 C157.13408972 -0.22377112 162.27291964 -0.22596095 167.41195679 -0.21717453 C169.29775056 -0.216403 171.18355448 -0.22076207 173.06932259 -0.23063278 C175.64426144 -0.24332043 178.21852299 -0.23749301 180.79345703 -0.22705078 C181.5390862 -0.23510719 182.28471537 -0.24316359 183.05293936 -0.25146413 C190.86653589 -0.17738702 195.29982772 3.02551348 200.60359192 8.40959167 C201.40545776 9.2054959 201.40545776 9.2054959 202.2235229 10.017479 C204.00394496 11.7883153 205.77349382 13.56962272 207.54322815 15.35113525 C208.82101157 16.62648953 210.09944019 17.90119765 211.37846375 19.17530823 C214.8437548 22.63120491 218.29957877 26.09642689 221.75350285 29.56367946 C225.36992887 33.19143057 228.99407341 36.81145628 232.61714172 40.43257141 C238.69831118 46.5128584 244.77347575 52.59909447 250.84498596 58.68902588 C257.86645801 65.73167904 264.89673326 72.76544734 271.93192029 79.79439825 C278.69947265 86.55625859 285.461344 93.32377115 292.2204361 100.0940876 C295.09743307 102.97573124 297.97630813 105.8554792 300.85668182 108.73374748 C304.24628181 112.12146557 307.63085149 115.51413069 311.01157761 118.91070366 C312.25389678 120.1572694 313.49792129 121.40213826 314.74375534 122.64519119 C316.44210058 124.34031944 318.13418001 126.04146396 319.82478333 127.74430847 C320.56864064 128.4824968 320.56864064 128.4824968 321.32752538 129.23559803 C326.08116384 134.05042102 327.20869098 137.02746736 327.23487854 143.75738525 C327.24254494 144.74107841 327.24254494 144.74107841 327.25036621 145.74464417 C327.26423535 147.9066182 327.26330753 150.06827249 327.26100159 152.23028564 C327.26488999 153.73716856 327.26922496 155.24405038 327.27398682 156.75093079 C327.28144324 159.90741531 327.28116196 163.06378798 327.27589417 166.22027588 C327.27010013 170.2599409 327.28703135 174.29914733 327.31023884 178.33873653 C327.32498968 181.45032924 327.32584606 184.56181183 327.32272911 187.6734333 C327.32324164 189.16254141 327.32846662 190.65165579 327.33854103 192.1407299 C327.35091493 194.22548877 327.34410917 196.30935876 327.33253479 198.394104 C327.33316422 199.57894882 327.33379364 200.76379364 327.33444214 201.98454285 C326.91760587 205.49981953 326.07908941 207.33009248 323.96022034 210.14044189 C318.73323221 213.93257054 315.37845412 214.85357898 308.96022034 214.14044189 C304.26028004 212.42315602 301.75062534 210.27437524 298.96022034 206.14044189 C298.00859662 203.28557075 297.83858895 201.53589872 297.84669495 198.57720947 C297.84677048 197.65648148 297.84684601 196.73575348 297.84692383 195.78712463 C297.85208511 194.79641464 297.8572464 193.80570465 297.86256409 192.78497314 C297.86468651 191.25981331 297.86468651 191.25981331 297.86685181 189.70384216 C297.87245327 186.45351226 297.88500601 183.20325101 297.89772034 179.95294189 C297.90273515 177.75046893 297.90729809 175.54799489 297.91139221 173.34552002 C297.92242317 167.94380385 297.93916272 162.54212778 297.96022034 157.14044189 C296.82984344 157.14710373 295.69946655 157.15376556 294.53483582 157.16062927 C283.85406053 157.22158662 273.17332078 157.26648462 262.49241066 157.29587841 C257.00195154 157.31149833 251.51163346 157.33266934 246.02125549 157.36676025 C240.71740213 157.39948489 235.41368397 157.41732252 230.1097374 157.42507362 C228.0916519 157.43059366 226.07357335 157.4413727 224.05554581 157.45763206 C221.21713324 157.47958064 218.37927124 157.48240158 215.54078674 157.48101807 C214.71647156 157.49180389 213.89215637 157.50258972 213.04286194 157.51370239 C200.96591517 157.45048564 190.56122844 152.60923448 181.71022034 144.51544189 C172.89171428 135.19710149 169.62380532 123.38323661 169.73316956 110.87872314 C169.7328775 109.98998001 169.73258545 109.10123688 169.73228455 108.18556213 C169.73366775 105.27458623 169.74918109 102.36387258 169.76490784 99.45294189 C169.76864156 97.42413472 169.77148683 95.39532574 169.77348328 93.36651611 C169.78109144 88.04662023 169.80071561 82.72683487 169.82289124 77.40698242 C169.8434105 71.97049454 169.85249797 66.53398866 169.86256409 61.09747314 C169.88396427 50.44508104 169.91806602 39.79277068 169.96022034 29.14044189 C147.52461711 29.1776146 125.08917655 29.23748434 102.65370846 29.32434464 C92.2364266 29.3641471 81.81922042 29.39653348 71.40187073 29.41143799 C62.32167412 29.42444822 53.24164393 29.45139687 44.16154104 29.49505496 C39.35405336 29.51768386 34.54677106 29.53335172 29.73922539 29.53232574 C25.21243427 29.53157998 20.68609741 29.54949718 16.15942383 29.58160973 C14.49983861 29.59011506 12.84020247 29.59185433 11.18060493 29.58624458 C8.90979191 29.57959236 6.64041905 29.59755204 4.36975098 29.62145996 C3.10044204 29.62514713 1.8311331 29.6288343 0.52336025 29.63263321 C-4.07385149 30.2878149 -6.27102111 31.4023992 -10.03977966 34.14044189 C-12.80068847 38.59532014 -13.41571447 41.96892446 -13.4200964 47.16859341 C-13.42475632 47.85552227 -13.42941624 48.54245112 -13.43421736 49.25019601 C-13.44616447 51.5510818 -13.43677339 53.85137677 -13.42745972 56.15226746 C-13.43163277 57.81887994 -13.43711012 59.48548958 -13.44377953 61.15209395 C-13.45825662 65.73131591 -13.45398235 70.31035825 -13.44661272 74.88959014 C-13.44188896 79.8283323 -13.45438385 84.76703515 -13.46463013 89.70576477 C-13.48183887 99.38082332 -13.48265385 109.05581699 -13.47741722 118.73088687 C-13.47337825 126.59348677 -13.47481584 134.45606748 -13.48016548 142.31866646 C-13.48128811 143.99628437 -13.48128811 143.99628437 -13.48243343 145.70779355 C-13.48396488 147.97973223 -13.48550323 150.25167091 -13.48704839 152.52360959 C-13.50078088 173.83620906 -13.49533042 195.14877184 -13.48386318 216.46137048 C-13.4739294 235.96580688 -13.48687267 255.47014844 -13.51079737 274.97457021 C-13.53517056 294.99523354 -13.54480067 315.01585267 -13.53814465 335.03653055 C-13.53464855 346.2792385 -13.5369103 357.52187349 -13.55439568 368.76457024 C-13.56909536 378.33495814 -13.56978232 387.90522169 -13.55232476 397.47560709 C-13.5437941 402.35951153 -13.54171558 407.24319362 -13.55697632 412.12708664 C-13.57077185 416.59736451 -13.56612668 421.06722848 -13.54673708 425.53748209 C-13.54296095 427.15518117 -13.5459453 428.772913 -13.55634873 430.39058303 C-13.56948659 432.58970417 -13.5579661 434.78738995 -13.54035091 436.98644924 C-13.54024358 438.20779487 -13.54013624 439.4291405 -13.54002565 440.6874966 C-12.90113368 445.09744505 -11.52679504 447.45114799 -9.03977966 451.14044189 C-4.41970223 454.39283441 -0.02039629 454.56743894 5.46192932 454.51898193 C6.30403426 454.52351206 7.1461392 454.52804219 8.01376247 454.5327096 C10.82810477 454.54431256 13.64196987 454.53469512 16.45631409 454.52520752 C18.47699795 454.52931356 20.49767944 454.53477462 22.51835632 454.54148865 C26.8661319 454.553209 31.21378055 454.55569964 35.56156921 454.5511322 C42.43597393 454.54432382 49.31021154 454.56018801 56.18458557 454.57952881 C70.77645483 454.61738786 85.3683095 454.63018658 99.96022034 454.64044189 C115.71316434 454.6515132 131.46603151 454.66683429 147.21892262 454.71115446 C154.05314078 454.72952301 160.88716805 454.73339868 167.72140503 454.72621918 C171.97185629 454.72469832 176.22221186 454.73547482 180.47263718 454.74959755 C182.44388849 454.75360314 184.41515795 454.75247019 186.38640213 454.74582481 C189.07733952 454.73744983 191.76761393 454.74742609 194.45851135 454.76190186 C195.62845973 454.75156095 195.62845973 454.75156095 196.82204342 454.74101114 C202.82944878 454.80396703 206.85108431 456.2023169 211.27272034 460.26544189 C213.57824718 464.19337651 214.15460835 467.60731333 213.96022034 472.14044189 C212.41154842 477.38871895 210.50297814 480.11193669 205.96022034 483.14044189 C202.75235391 484.74437511 199.26248006 484.28464296 195.73866272 484.28088379 C194.87829643 484.28385491 194.01793014 484.28682603 193.13149214 484.28988719 C190.23129289 484.29859996 187.33113479 484.30008464 184.43092346 484.30157471 C182.35820934 484.30620123 180.28549608 484.31122567 178.21278381 484.31661987 C172.56778306 484.32976591 166.92279421 484.33619367 161.27778053 484.34063053 C157.75094059 484.34355903 154.22410392 484.34766352 150.69726562 484.3521347 C139.66293111 484.36581835 128.62860406 484.37547952 117.59426165 484.3793366 C104.85738069 484.38381306 92.12060728 484.40133823 79.38375902 484.43033719 C69.54075415 484.45196887 59.69777949 484.46204175 49.85475111 484.46337771 C43.97576741 484.46442511 38.09688469 484.47031847 32.21792603 484.48819733 C26.68250258 484.50470255 21.14725572 484.50682152 15.61181641 484.49805832 C13.58418809 484.49728914 11.5565502 484.50161495 9.52894592 484.51151657 C-6.37775013 484.58461411 -18.6444333 483.38074977 -31.07884216 472.32794189 C-39.1489015 463.79572057 -43.15963211 453.69830569 -43.17120743 442.08754444 C-43.17326006 441.38578448 -43.1753127 440.68402452 -43.17742753 439.9609991 C-43.18309289 437.60378828 -43.18164085 435.24663598 -43.18022156 432.88941956 C-43.18280546 431.18456317 -43.18581869 429.47970739 -43.18922496 427.77485245 C-43.19729526 423.08520075 -43.19908455 418.39556434 -43.19982243 413.70590651 C-43.20167292 408.64985533 -43.20922024 403.59381209 -43.21595764 398.5377655 C-43.22954164 387.47989265 -43.23556577 376.42202342 -43.2399683 365.36414361 C-43.24273057 358.46012498 -43.24696789 351.55610775 -43.25147247 344.65209007 C-43.26366515 325.53846608 -43.27396452 306.4248432 -43.27734756 287.3112154 C-43.27756713 286.08781557 -43.2777867 284.86441574 -43.27801292 283.60394318 C-43.27823119 282.37760981 -43.27844947 281.15127643 -43.27867436 279.88778144 C-43.27911783 277.40274703 -43.27956439 274.91771263 -43.28001404 272.43267822 C-43.28023547 271.20001432 -43.2804569 269.96735042 -43.28068504 268.69733306 C-43.28463323 248.72282298 -43.30208791 228.74834938 -43.32537356 208.7738534 C-43.34908527 188.26844034 -43.36154933 167.76304559 -43.36271548 147.25761861 C-43.36363234 135.74373494 -43.36938728 124.22989879 -43.3875351 112.71602821 C-43.40293362 102.91186671 -43.40805799 93.10776742 -43.39979699 83.30359612 C-43.39588965 78.30189249 -43.39682429 73.30031417 -43.41085434 68.29862595 C-43.42358795 63.71719856 -43.42240042 59.13599072 -43.41026363 54.55456366 C-43.40830571 52.89976613 -43.41138946 51.24495306 -43.42010799 49.59017733 C-43.49258077 34.90142026 -41.310701 23.4452284 -31.22727966 12.10137939 C-22.32847411 3.68459247 -12.03933963 -0.01394897 0 0 Z M198.96022034 50.14044189 C198.91376824 58.36409607 198.87828596 66.58769492 198.85659599 74.8114481 C198.84618304 78.6305513 198.83206961 82.44956438 198.80934143 86.26861572 C198.78752387 89.95797035 198.77563301 93.64723857 198.77046585 97.33665276 C198.76678603 98.74037981 198.75960042 100.14410242 198.74876022 101.54779243 C198.7341275 103.52206896 198.73340242 105.49643343 198.73316956 107.47076416 C198.72872833 108.592173 198.72428711 109.71358185 198.7197113 110.86897278 C199.04766894 115.32994153 199.67970096 119.59147628 202.58131409 123.10137939 C203.18072815 123.56802002 203.78014221 124.03466064 204.39772034 124.51544189 C204.99455627 124.99755127 205.59139221 125.47966064 206.20631409 125.97637939 C209.84927471 128.39420181 213.11544482 128.26205099 217.35939026 128.25396729 C218.32565086 128.25418633 218.32565086 128.25418633 219.31143188 128.25440979 C221.43788536 128.25371385 223.56425094 128.24593638 225.69068909 128.23809814 C227.16613721 128.23623283 228.64158595 128.23480946 230.11703491 128.23381042 C233.99847629 128.22999415 237.87988018 128.22017146 241.76130676 128.20910645 C245.72278842 128.1988732 249.68427614 128.1943087 253.64576721 128.18927002 C261.41726866 128.1785484 269.18873925 128.16148265 276.96022034 128.14044189 C272.76713086 123.13881575 268.39830624 118.43453518 263.77735901 113.82818604 C263.08558563 113.13466034 262.39381226 112.44113464 261.68107605 111.72659302 C259.41593957 109.45708912 257.14720577 107.19122216 254.87818909 104.92559814 C253.29717638 103.34391139 251.71631211 101.76207626 250.1355896 100.18009949 C246.83469632 96.87773657 243.53201235 93.57717793 240.2280426 90.27789307 C235.98297511 86.03855055 231.74245019 81.79469689 227.50323009 77.54950809 C224.24610388 74.28878035 220.98661462 71.03042321 217.72638893 67.77279472 C216.16066798 66.20774273 214.59569467 64.64194241 213.03146935 63.07539558 C210.85541809 60.89682149 208.67621634 58.72145013 206.49610901 56.54693604 C205.84522812 55.89403091 205.19434723 55.24112579 204.52374268 54.56843567 C202.11751975 51.57041781 202.11751975 51.57041781 198.96022034 50.14044189 Z " fill="#000000" transform="translate(57.03977966308594,13.85955810546875)"/>
<path d="M0 0 C16.95054837 -0.42561421 33.98361282 2.07482777 49.828125 8.16015625 C50.49005859 8.4128125 51.15199219 8.66546875 51.83398438 8.92578125 C84.76853447 21.78443813 109.31714756 47.29437557 123.828125 79.16015625 C136.86816478 110.57745254 136.45849774 146.76904211 123.828125 178.16015625 C109.82707134 210.69657005 84.54155923 235.851442 51.64355469 249.03564453 C26.97670827 258.40861399 -0.45345715 260.70907296 -26.171875 254.16015625 C-26.81415039 253.99918457 -27.45642578 253.83821289 -28.11816406 253.67236328 C-50.10867616 247.99193571 -68.83891871 236.79631406 -85.171875 221.16015625 C-85.90664063 220.48855469 -86.64140625 219.81695312 -87.3984375 219.125 C-109.31703136 198.40689449 -123.13847213 166.25801472 -124.171875 136.16015625 C-124.2234375 135.08378906 -124.275 134.00742187 -124.328125 132.8984375 C-125.2628357 96.87312934 -111.56784857 64.33642258 -87.171875 38.16015625 C-63.93778574 14.62213268 -32.84326743 1.65834232 0 0 Z M18.828125 31.16015625 C18.828125 58.55015625 18.828125 85.94015625 18.828125 114.16015625 C46.218125 114.16015625 73.608125 114.16015625 101.828125 114.16015625 C101.1468795 107.34770125 100.5463938 102.11664351 98.265625 95.91015625 C97.87080933 94.82226807 97.87080933 94.82226807 97.46801758 93.71240234 C92.97442405 81.81537599 86.34423523 71.61597519 77.828125 62.16015625 C77.14234375 61.391875 76.4565625 60.62359375 75.75 59.83203125 C60.70611707 43.89665896 40.51021975 33.87041809 18.828125 31.16015625 Z M-67.171875 60.16015625 C-86.94466034 81.11930871 -94.80536436 106.63685512 -94.4453125 134.9296875 C-93.62618371 161.55137313 -80.0203209 185.14369661 -61.2734375 203.42578125 C-41.75903497 221.16156015 -15.40957312 229.24138536 10.65185547 228.29199219 C36.37970627 226.73342819 60.49336958 214.39639685 78.140625 195.84765625 C89.87820791 182.29836103 102.828125 161.69137613 102.828125 143.16015625 C101.53852875 143.15873123 100.2489325 143.15730621 98.92025757 143.15583801 C86.76641747 143.13916782 74.61291219 143.09639314 62.4592495 143.02806568 C56.21090266 142.99377653 49.96280085 142.96868263 43.71435547 142.96459961 C37.68410091 142.96032092 31.65439925 142.93189278 25.62431717 142.88672447 C23.32387131 142.87373591 21.02335933 142.86944656 18.72288132 142.87400246 C15.50003117 142.87889849 12.27880312 142.85285799 9.05615234 142.81958008 C8.10524719 142.82820572 7.15434204 142.83683136 6.17462158 142.84571838 C1.85724745 142.77099829 -1.21938783 142.59624395 -4.68612671 139.86894226 C-8.00417349 136.25317845 -9.41404757 133.71946788 -9.4503479 128.80682373 C-9.46151138 127.94308136 -9.47267487 127.07933899 -9.48417664 126.18942261 C-9.48633682 125.25002838 -9.48849701 124.31063416 -9.49072266 123.34277344 C-9.50076828 122.34732513 -9.5108139 121.35187683 -9.52116394 120.32626343 C-9.55205045 117.03652523 -9.56904644 113.74686863 -9.5859375 110.45703125 C-9.60464473 108.17587581 -9.6242178 105.89472731 -9.6446228 103.61358643 C-9.69599692 97.60982355 -9.73559449 91.60603822 -9.77276611 85.60217285 C-9.8127726 79.47561058 -9.86388025 73.34914212 -9.9140625 67.22265625 C-10.01088435 55.20188876 -10.09526918 43.18106837 -10.171875 31.16015625 C-31.44799561 31.16015625 -52.45595027 46.0342338 -67.171875 60.16015625 Z " fill="#000000" transform="translate(365.171875,240.83984375)"/>
<path d="M0 0 C1.27011429 -0.00990463 2.54022858 -0.01980927 3.84883118 -0.03001404 C5.24374487 -0.02577655 6.63865762 -0.02121875 8.03356934 -0.01637268 C9.51239029 -0.02207906 10.99120684 -0.02904436 12.47001648 -0.03717041 C16.47619836 -0.05508596 20.48216102 -0.05393669 24.4883709 -0.04822803 C27.83585956 -0.04513433 31.18330622 -0.05123053 34.5307889 -0.05726677 C42.4283985 -0.07130466 50.3258999 -0.06975642 58.22351074 -0.05836487 C66.36588643 -0.04687968 74.5079329 -0.06096759 82.65026522 -0.08776134 C89.64747322 -0.10992311 96.64457792 -0.1165548 103.64181852 -0.11068493 C107.81820278 -0.10731584 111.99437591 -0.10972735 116.17073059 -0.12693596 C120.09758935 -0.14241111 124.02396041 -0.13844365 127.95079994 -0.11963081 C129.38991007 -0.1159467 130.82905639 -0.11904833 132.26813316 -0.1295166 C134.23625406 -0.14273786 136.20450111 -0.12876388 138.17260742 -0.11352539 C139.27280968 -0.11331611 140.37301193 -0.11310682 141.50655365 -0.1128912 C146.38976647 0.68080826 150.4441053 3.58396619 153.58630371 7.38768005 C155.12763909 12.0116862 155.47240886 16.74455499 153.90270996 21.42674255 C151.61345833 25.89125819 149.11742763 27.53605223 144.58630371 29.38768005 C141.50934696 29.76799679 141.50934696 29.76799679 138.17933655 29.77536011 C136.27633286 29.79021706 136.27633286 29.79021706 134.33488464 29.80537415 C132.94155786 29.80113664 131.54823202 29.79657883 130.15490723 29.79173279 C128.67770878 29.79743923 127.20051475 29.80440455 125.72332764 29.81253052 C121.72121065 29.83044696 117.71931311 29.82929644 113.71716809 29.82358813 C110.37225901 29.82049407 107.02739195 29.82659115 103.68248886 29.83262688 C95.78963301 29.84666553 87.89688541 29.84511634 80.00402832 29.83372498 C71.86962486 29.82224421 63.73555112 29.8363201 55.6011911 29.86312145 C48.60906296 29.88529418 41.61703819 29.8919123 34.62487739 29.88604504 C30.45237356 29.88267802 26.28008106 29.88507341 22.10760689 29.90229607 C18.18320741 29.91778833 14.25929554 29.91378479 10.33491516 29.89499092 C8.89783762 29.8913113 7.46072376 29.89439526 6.02367973 29.90487671 C-7.45795008 29.99567265 -7.45795008 29.99567265 -13.41369629 25.38768005 C-17.06329574 21.50262258 -16.91906258 17.14255648 -16.76135254 12.0478363 C-16.26275954 8.23275955 -15.05100822 6.16379788 -12.41369629 3.38768005 C-8.12117322 0.83798916 -4.9699112 0.01097649 0 0 Z " fill="#000000" transform="translate(87.4136962890625,212.61231994628906)"/>
<path d="M0 0 C1.05437759 -0.00686325 2.10875519 -0.0137265 3.19508362 -0.02079773 C6.67251129 -0.03906546 10.14948787 -0.03522849 13.62695312 -0.02954102 C16.04781237 -0.03410243 18.46867031 -0.03940789 20.88952637 -0.04542542 C25.96009588 -0.05435621 31.03050788 -0.05193317 36.10107422 -0.04199219 C42.59784831 -0.03049599 49.09407941 -0.05072479 55.59078217 -0.07990932 C60.58880056 -0.09825622 65.58668844 -0.09798194 70.58473206 -0.0922718 C72.98011538 -0.09211844 75.37550747 -0.09817503 77.77085876 -0.11056328 C81.11972128 -0.12544426 84.46757525 -0.11481678 87.81640625 -0.09765625 C88.80463882 -0.10732422 89.7928714 -0.11699219 90.81105042 -0.12695312 C96.66121657 -0.06419531 99.93269316 0.54587274 104.40820312 4.40405273 C107.38399434 8.20075187 108.24536758 11.60040412 108.40820312 16.40405273 C107.48830477 20.78999666 106.1325052 23.69785821 102.90820312 26.84155273 C99.50152171 28.97072862 96.92967145 29.52978899 92.9944458 29.55122375 C92.09170929 29.55837906 91.18897278 29.56553436 90.25888062 29.57290649 C88.77673569 29.57693985 88.77673569 29.57693985 87.26464844 29.58105469 C86.22206879 29.58762589 85.17948914 29.59419708 84.10531616 29.60096741 C80.64898611 29.62070644 77.19269952 29.63236433 73.73632812 29.64233398 C72.55629967 29.64640951 71.37627121 29.65048504 70.16048431 29.65468407 C63.91493403 29.67554726 57.66940573 29.689848 51.42382812 29.69921875 C44.97307669 29.71028437 38.52267008 29.74468579 32.07204056 29.78439045 C27.11174884 29.81053561 22.15153956 29.81890874 17.191185 29.82250023 C14.81335877 29.82737148 12.43553636 29.83900071 10.0577774 29.85753822 C6.72801892 29.8818843 3.39915618 29.88097248 0.06933594 29.87402344 C-0.91066376 29.8868335 -1.89066345 29.89964355 -2.90036011 29.9128418 C-9.00629952 29.86645471 -12.58717118 28.96012198 -17.59179688 25.40405273 C-21.24139632 21.51899526 -21.09716317 17.15892916 -20.93945312 12.06420898 C-20.44086013 8.24913223 -19.22910881 6.18017056 -16.59179688 3.40405273 C-11.16748762 -0.15404408 -6.26412097 -0.02853465 0 0 Z " fill="#000000" transform="translate(91.591796875,141.595947265625)"/>
</svg>
