<?xml version="1.0" encoding="UTF-8"?>
<svg version="1.1" xmlns="http://www.w3.org/2000/svg" width="512" height="512">
<path d="M0 0 C7.29117576 3.84724322 12.74629898 9.84192152 18.47836304 15.64108276 C19.75307235 16.91228582 21.02885955 18.18240877 22.30563354 19.45153809 C25.75063009 22.88235285 29.1798696 26.32852156 32.60598707 29.77817678 C36.20211359 33.3944885 39.81130476 36.99772008 43.41870117 40.6027832 C49.47100499 46.6551405 55.51340603 52.71724397 61.5496521 58.78561401 C68.52124753 65.79413114 75.50682734 72.78845912 82.5003885 79.77505291 C89.24049188 86.5088452 95.97202 93.25114282 102.69920731 99.99783707 C105.55703322 102.86382198 108.41755706 105.72707314 111.28025436 108.58819199 C114.65095764 111.95801451 118.0139889 115.33531533 121.37130737 118.71847153 C122.60225828 119.95656624 123.83573628 121.1921545 125.07194901 122.42499542 C126.763007 124.11232067 128.44450461 125.80864648 130.1239624 127.50750732 C130.61131312 127.98953011 131.09866383 128.4715529 131.60078275 128.96818244 C137.08351547 134.56013407 140.20247755 140.1932302 140.72299194 148.00094604 C140.5069144 155.83735826 137.83109483 160.11318461 132.59486389 165.74790955 C132.10854482 166.27150844 131.62222576 166.79510733 131.12116975 167.33457285 C125.64773613 173.19310517 120.00153295 178.87820253 114.33554077 184.54953003 C113.16446161 185.72525339 111.99357407 186.90116764 110.82286072 188.07725525 C107.68092335 191.23214832 104.53580218 194.38384703 101.38962007 197.53450656 C99.41897499 199.50810456 97.44890897 201.48227886 95.47900963 203.45662117 C89.2993958 209.64985366 83.11782537 215.84112308 76.93334085 222.02949184 C69.82130342 229.14602297 62.71588295 236.26907561 55.61605054 243.39778274 C50.10343649 248.93203064 44.58505417 254.4604834 39.06228083 259.98459297 C35.77326273 263.2746561 32.48669026 266.56707443 29.20612526 269.86556816 C26.12560638 272.96260149 23.03796204 276.05235115 19.94479942 279.13675499 C18.81511853 280.26566784 17.68797205 281.39712379 16.56364441 282.53136826 C1.43365744 297.78690168 1.43365744 297.78690168 -9.27700806 298.50094604 C-14.91920069 298.41689103 -19.39304777 296.49162063 -24.21450806 293.68844604 C-28.83766664 288.815387 -31.77846262 283.01745479 -32.15200806 276.25094604 C-31.24812764 264.84731654 -23.42095401 257.43868491 -15.6781311 249.83444214 C-14.57288425 248.73060831 -13.46874249 247.62566704 -12.36561584 246.51971436 C-9.38949016 243.54216309 -6.3982819 240.58020538 -3.40398002 237.62094831 C-0.26930516 234.51768055 2.85107221 231.40010161 5.97303772 228.28405762 C11.87735075 222.39524098 17.79428445 216.51927873 23.71593779 210.64790499 C30.46102926 203.95883812 37.19180837 197.25544732 43.92146361 190.55085635 C57.75618422 176.7682986 71.60864497 163.00369805 85.47299194 149.25094604 C83.95289701 145.66432473 81.84693394 143.38939431 79.09010315 140.66119385 C78.16902267 139.74458984 77.2479422 138.82798584 76.2989502 137.88360596 C75.27524925 136.87495719 74.25147354 135.86638429 73.22763062 134.85787964 C72.15125289 133.7902536 71.07535218 132.72214647 69.99989319 131.65359497 C67.68353647 129.35372426 65.36425893 127.05685395 63.04280663 124.76212692 C59.36737986 121.12810349 55.70122697 117.4848213 52.03678894 113.83972168 C41.61522456 103.47569848 31.1838464 93.1216251 20.73739624 82.78268433 C14.96753017 77.07203996 9.20677512 71.35236304 3.45571882 65.62277472 C-0.17910809 62.00253158 -3.82469884 58.39361531 -7.47877276 54.79280543 C-9.758553 52.5409217 -12.02762298 50.27847562 -14.29389763 48.01300812 C-15.34039406 46.97105016 -16.39114492 45.93334345 -17.44660187 44.9004631 C-24.69355688 37.80220451 -31.32533228 30.78043765 -32.15200806 20.25094604 C-31.80262994 14.55339527 -29.943541 9.8141774 -26.52700806 5.25094604 C-18.83062966 -1.39408819 -9.65619792 -4.49316967 0 0 Z " fill="#000000" transform="translate(137.52700805664063,107.74905395507813)"/>
<path d="M0 0 C1.12209193 1.0568388 1.12209193 1.0568388 2.26685238 2.13502789 C3.13418562 2.94821295 4.00151886 3.76139801 4.89513493 4.59922504 C10.05533412 9.5967817 15.17306884 14.6323912 20.25487423 19.70965862 C21.48280596 20.93295037 22.71093044 22.15604866 23.93923092 23.37897015 C27.24495092 26.67169216 30.54743891 29.96763608 33.8488996 33.26462817 C35.91459835 35.32738037 37.98087613 37.38955086 40.04732609 39.45155048 C46.52248577 45.91307895 52.99567292 52.37657373 59.46595949 58.84298199 C66.91929279 66.29182162 74.37914705 73.73404914 81.84465975 81.17068166 C87.63104957 86.93546496 93.41167145 92.7059905 99.18793684 98.48091823 C102.6322263 101.92416049 106.07889508 105.36493725 109.53159046 108.79975224 C112.77302256 112.02471788 116.00723411 115.25675284 119.2360487 118.49434948 C120.42062547 119.67969692 121.60776513 120.8624896 122.79765797 122.0425005 C124.4233694 123.65549956 126.03952349 125.27751943 127.65366268 126.90208721 C128.5597021 127.80666007 129.46574152 128.71123293 130.39923668 129.64321709 C135.29590791 135.33402225 136.80460886 140.9507605 136.69261837 148.30853558 C136.05729836 154.54124398 133.00581255 158.33135633 128.81058407 162.82893658 C128.32454698 163.35084357 127.8385099 163.87275057 127.33774441 164.41047293 C121.86057632 170.25789559 116.217269 175.9396861 110.5551672 181.60711956 C109.38408803 182.78284292 108.2132005 183.95875717 107.04248714 185.13484478 C103.90054977 188.28973785 100.7554286 191.44143656 97.60924649 194.59209609 C95.63860141 196.56569409 93.6685354 198.53986839 91.69863605 200.5142107 C85.51902223 206.70744319 79.3374518 212.89871261 73.15296727 219.08708137 C66.04092985 226.2036125 58.93550938 233.32666515 51.83567697 240.45537227 C46.32306292 245.98962017 40.80468059 251.51807293 35.28190726 257.04218251 C31.99288916 260.33224563 28.70631669 263.62466396 25.42575169 266.92315769 C22.34523281 270.02019102 19.25758847 273.10994068 16.16442585 276.19434452 C15.03474495 277.32325738 13.90759848 278.45471332 12.78327084 279.58895779 C-2.34671613 294.84449121 -2.34671613 294.84449121 -13.05738163 295.55853558 C-18.69957427 295.47448056 -23.17342134 293.54921016 -27.99488163 290.74603558 C-32.61804021 285.87297653 -35.55883619 280.07504432 -35.93238163 273.30853558 C-35.02850122 261.90490607 -27.20132758 254.49627444 -19.45850468 246.89203167 C-18.35325782 245.78819784 -17.24911606 244.68325657 -16.14598942 243.57730389 C-13.16986374 240.59975262 -10.17865548 237.63779491 -7.18435359 234.67853785 C-4.04967873 231.57527008 -0.92930136 228.45769114 2.19266415 225.34164715 C8.09697717 219.45283051 14.01391087 213.57686826 19.93556422 207.70549452 C26.68065568 201.01642765 33.4114348 194.31303686 40.14109004 187.60844588 C53.97581065 173.82588813 67.8282714 160.06128758 81.69261837 146.30853558 C80.17531117 142.73577606 78.0839773 140.45981167 75.34096432 137.73655987 C74.42685284 136.82403454 73.51274136 135.91150921 72.57092953 134.9713316 C71.55509491 133.96735935 70.53917719 132.96347118 69.52318478 131.95965862 C68.45505089 130.89700138 67.38737938 129.83387922 66.32013607 128.77032757 C64.02189952 126.48179923 61.72064241 124.19636742 59.41706371 121.91321659 C55.77216839 118.30015475 52.13546074 114.6789272 48.50008297 111.05629253 C39.46750072 102.05778795 30.42569187 93.0685695 21.3789587 84.08429241 C14.35105357 77.10488285 7.32638597 70.1222903 0.31222379 63.12906581 C-3.29812799 59.53021476 -6.91530393 55.93841302 -10.53780055 52.35178888 C-12.79457559 50.11426279 -15.04501873 47.87045006 -17.29378033 45.62487316 C-18.3343894 44.58826906 -19.37757087 43.5542396 -20.42355633 42.5230608 C-33.76465485 29.3639837 -33.76465485 29.3639837 -34.55738163 19.05853558 C-34.04184564 11.32549575 -31.01935206 5.54798291 -25.30738163 0.30853558 C-17.69596563 -4.44859942 -7.57229969 -5.55100005 0 0 Z " fill="#000000" transform="translate(269.30738162994385,110.6914644241333)"/>
</svg>
