<?xml version="1.0" encoding="UTF-8"?>
<svg version="1.1" xmlns="http://www.w3.org/2000/svg" width="512" height="512">
<path d="M0 0 C0.74698179 -0.00265183 1.49396358 -0.00530365 2.26358119 -0.00803584 C4.78067094 -0.0157295 7.29771192 -0.01628804 9.81481266 -0.01688576 C11.63216259 -0.02090035 13.44951163 -0.02533857 15.26685959 -0.03016531 C20.27221919 -0.04213726 25.27756915 -0.04778072 30.28294027 -0.05234647 C35.6771768 -0.05830028 41.07140178 -0.06991075 46.46563053 -0.08063698 C59.4993609 -0.10516713 72.5330951 -0.11978959 85.56684145 -0.13269705 C89.24805315 -0.13640871 92.92926446 -0.14038197 96.61047578 -0.14444971 C119.46869421 -0.16968734 142.32691323 -0.19174121 165.18514252 -0.20417786 C170.48064965 -0.20710757 175.77615677 -0.21006923 181.07166386 -0.21308327 C182.38784354 -0.21382932 183.70402323 -0.21457537 185.06008715 -0.21534403 C206.37770006 -0.22799552 227.69521259 -0.26121535 249.01278996 -0.3028851 C270.89793009 -0.34531362 292.78302751 -0.36887401 314.66820866 -0.37409842 C326.95633484 -0.37751162 339.24433065 -0.38925614 351.53241634 -0.42220116 C361.99859391 -0.45021543 372.46461439 -0.4611949 382.93082654 -0.4500057 C388.26916785 -0.44482253 393.60718024 -0.44768392 398.94547367 -0.47247124 C403.83808051 -0.494999 408.73012283 -0.49419628 413.6227398 -0.47526737 C415.387316 -0.47247231 417.15193077 -0.47803823 418.91644507 -0.4930803 C434.69485853 -0.61930104 446.57050812 2.60746298 458.31311893 13.71904564 C464.95742457 20.75721476 469.75226384 30.39190821 469.77825832 40.12193012 C469.78333287 41.13206195 469.78840741 42.14219377 469.79363573 43.18293566 C469.79438236 44.84471978 469.79438236 44.84471978 469.79514408 46.5400753 C469.79952634 47.71855083 469.80390859 48.89702636 469.80842364 50.11121327 C469.819481 53.38353847 469.82603385 56.6558367 469.83060479 59.92817628 C469.8365672 63.45736808 469.84817562 66.98654233 469.8588953 70.51572227 C469.88340735 79.04069636 469.89804607 87.56567625 469.91095537 96.09067473 C469.91466862 98.49979119 469.91864175 100.90890708 469.92270803 103.31802297 C469.94794933 118.2873081 469.96999639 133.25659417 469.98243618 148.22589588 C469.98536575 151.69260664 469.98832743 155.15931737 469.99134159 158.62602806 C469.99208764 159.4876343 469.99283369 160.34924055 469.99360235 161.23695607 C470.00624579 175.182746 470.03945564 189.12840815 470.08114342 203.0741384 C470.12362048 217.40175587 470.14713799 231.72930804 470.15235674 246.0569883 C470.15576466 254.09740179 470.16744624 262.1376157 470.20045948 270.17796707 C470.22854083 277.02830343 470.23942414 283.87839929 470.22826402 290.72878873 C470.22309758 294.22015371 470.2258309 297.71101572 470.25072956 301.20230675 C470.2734868 304.99898627 470.26509343 308.79441325 470.24924564 312.59110069 C470.26312773 313.67888028 470.27700982 314.76665987 470.29131258 315.88740247 C470.15668681 329.04954555 464.9679346 339.39424005 456.05921268 348.80888939 C448.05664871 356.36362132 438.12901678 360.29272467 427.28248787 360.27402878 C426.53550608 360.2766806 425.78852429 360.27933243 425.01890668 360.28206462 C422.50181692 360.28975827 419.98477595 360.29031682 417.46767521 360.29091454 C415.65032528 360.29492913 413.83297624 360.29936734 412.01562828 360.30419409 C407.01026868 360.31616603 402.00491872 360.3218095 396.9995476 360.32637525 C391.60531107 360.33232905 386.21108609 360.34393953 380.81685734 360.35466576 C367.78312697 360.37919591 354.74939277 360.39381837 341.71564642 360.40672582 C338.03443472 360.41043749 334.35322341 360.41441075 330.67201209 360.41847849 C307.81379366 360.44371612 284.95557464 360.46576999 262.09734535 360.47820663 C256.80183822 360.48113635 251.5063311 360.48409801 246.21082401 360.48711205 C244.23655448 360.48823112 244.23655448 360.48823112 242.22240072 360.4893728 C220.90478781 360.5020243 199.58727528 360.53524413 178.26969791 360.57691388 C156.38455778 360.61934239 134.49946036 360.64290279 112.61427921 360.6481272 C100.32615303 360.6515404 88.03815722 360.66328492 75.75007153 360.69622993 C65.28389396 360.72424421 54.81787348 360.73522368 44.35166133 360.72403447 C39.01332002 360.71885131 33.67530763 360.7217127 28.3370142 360.74650002 C23.44440736 360.76902778 18.55236504 360.76822506 13.65974807 360.74929614 C11.89517187 360.74650109 10.1305571 360.75206701 8.3660428 360.76710908 C-7.41237067 360.89332982 -19.28802025 357.6665658 -31.03063107 346.55498314 C-37.6749367 339.51681402 -42.46977597 329.88212057 -42.49577045 320.15209866 C-42.500845 319.14196683 -42.50591954 318.131835 -42.51114786 317.09109312 C-42.51164561 315.98323704 -42.51214337 314.87538096 -42.51265621 313.73395348 C-42.51703847 312.55547795 -42.52142072 311.37700242 -42.52593577 310.16281551 C-42.53699313 306.89049031 -42.54354598 303.61819208 -42.54811692 300.34585249 C-42.55407933 296.8166607 -42.56568775 293.28748645 -42.57640743 289.7583065 C-42.60091948 281.23333242 -42.61555821 272.70835253 -42.6284675 264.18335405 C-42.63218075 261.77423759 -42.63615388 259.3651217 -42.64022017 256.95600581 C-42.66546146 241.98672068 -42.68750852 227.01743461 -42.69994831 212.0481329 C-42.70287788 208.58142214 -42.70583956 205.11471141 -42.70885372 201.64800072 C-42.70959977 200.78639448 -42.71034582 199.92478823 -42.71111448 199.03707271 C-42.72375792 185.09128278 -42.75696777 171.14562063 -42.79865555 157.19989038 C-42.84113262 142.87227291 -42.86465012 128.54472074 -42.86986887 114.21704048 C-42.87327679 106.17662699 -42.88495837 98.13641307 -42.91797161 90.09606171 C-42.94605296 83.24572535 -42.95693628 76.39562949 -42.94577615 69.54524005 C-42.94060971 66.05387506 -42.94334303 62.56301306 -42.96824169 59.07172203 C-42.99099893 55.27504251 -42.98260556 51.47961553 -42.96675777 47.68292809 C-42.98063986 46.5951485 -42.99452195 45.50736891 -43.00882471 44.3866263 C-42.87419894 31.22448323 -37.68544673 20.87978872 -28.77672482 11.46513939 C-20.77416084 3.91040746 -10.84652891 -0.0186959 0 0 Z M-7.17125607 34.57451439 C-11.47142683 39.61185729 -12.48177193 43.45280872 -12.48739052 49.94939041 C-12.49061496 50.89554557 -12.49383941 51.84170072 -12.49716157 52.81652725 C-12.49561297 53.84774424 -12.49406436 54.87896124 -12.49246883 55.94142723 C-12.49473439 57.04331953 -12.49699995 58.14521183 -12.49933416 59.28049481 C-12.50567409 62.97991167 -12.50484479 66.6792919 -12.50401974 70.37871361 C-12.50701122 73.02815959 -12.51038533 75.67760267 -12.51419735 78.32704735 C-12.52250054 84.78106397 -12.52525204 91.23507146 -12.52580973 97.68909298 C-12.52628502 102.93538757 -12.52834043 108.18167915 -12.53151035 113.42797279 C-12.54031582 128.30410661 -12.54492987 143.18023321 -12.54417988 158.05636965 C-12.54413992 158.85819237 -12.54409997 159.6600151 -12.5440588 160.48613548 C-12.54401792 161.28893779 -12.54397704 162.0917401 -12.54393492 162.91886975 C-12.54352842 175.93095311 -12.55309917 188.94300753 -12.56719717 201.95508252 C-12.58156064 215.31767331 -12.58846737 228.68025 -12.58760339 242.04284871 C-12.58727142 249.54418861 -12.59001843 257.04549818 -12.60078144 264.54683113 C-12.60988603 270.93320568 -12.61206201 277.31953614 -12.60527202 283.70591436 C-12.60200667 286.96348056 -12.6030373 290.22094458 -12.61062527 293.47850609 C-12.61832331 297.01195803 -12.61371469 300.54518724 -12.60599422 304.07863426 C-12.61113779 305.10538981 -12.61628135 306.13214536 -12.62158078 307.19001472 C-12.58895071 313.94032304 -12.52049586 319.64269924 -7.92125607 324.94951439 C-2.0732127 329.94174653 2.30454702 330.26149655 9.82746029 330.26564884 C10.9017089 330.2682784 10.9017089 330.2682784 11.9976595 330.27096108 C14.40384715 330.27562289 16.80997441 330.27315511 19.21616459 330.27072716 C20.95615727 330.27259504 22.69614954 330.27489565 24.43614113 330.27759248 C29.22279902 330.2837197 34.00943946 330.2835758 38.79610038 330.2823981 C43.95638821 330.28219433 49.11667039 330.28771059 54.2769556 330.29245567 C64.38861885 330.3007677 74.50027626 330.30351076 84.61194263 330.30406805 C92.82925173 330.30454292 101.04655889 330.30659623 109.26386738 330.30976868 C132.55130496 330.31857654 155.83873792 330.32318781 179.12617718 330.3224382 C180.38202323 330.32239825 181.63786928 330.32235829 182.93177128 330.32231712 C184.18914703 330.32227624 185.44652278 330.32223536 186.74200083 330.32219324 C207.12591985 330.32178667 227.50982041 330.33135865 247.89373408 330.34545549 C268.81384706 330.35980923 289.73395103 330.36672624 310.65406907 330.36586171 C322.40314744 330.36552941 334.15220646 330.36829109 345.9012804 330.37903976 C355.90351293 330.38813156 365.90571732 330.39033088 375.90795217 330.38353034 C381.01254549 330.38025853 386.11708479 330.38023226 391.22167301 330.38888359 C395.89357401 330.39672028 400.5653779 330.39534623 405.23727645 330.38659946 C406.92835787 330.38505822 408.61944644 330.38690401 410.31051944 330.39245953 C412.60824584 330.39950874 414.90563054 330.39423464 417.2033453 330.38590336 C419.11819644 330.38622941 419.11819644 330.38622941 421.07173145 330.38656205 C426.40121196 330.01397352 430.37847821 329.23141135 434.45374393 325.69951439 C438.7539147 320.66217149 439.7642598 316.82122005 439.76987839 310.32463837 C439.77310283 309.37848321 439.77632728 308.43232805 439.77964944 307.45750153 C439.77810083 306.42628454 439.77655223 305.39506754 439.7749567 304.33260155 C439.77722226 303.23070925 439.77948782 302.12881695 439.78182203 300.99353397 C439.78816196 297.2941171 439.78733266 293.59473687 439.78650761 289.89531517 C439.78949909 287.24586919 439.7928732 284.5964261 439.79668522 281.94698143 C439.80498841 275.49296481 439.80773991 269.03895732 439.8082976 262.5849358 C439.80877289 257.33864121 439.8108283 252.09234962 439.81399822 246.84605598 C439.82280369 231.96992217 439.82741774 217.09379557 439.82666775 202.21765913 C439.82662779 201.41583641 439.82658784 200.61401368 439.82654667 199.7878933 C439.82650579 198.98509099 439.82646491 198.18228868 439.82642279 197.35515903 C439.82601629 184.34307567 439.83558704 171.33102125 439.84968504 158.31894626 C439.86404851 144.95635546 439.87095524 131.59377878 439.87009126 118.23118007 C439.86975929 110.72984017 439.8725063 103.2285306 439.88326931 95.72719765 C439.8923739 89.3408231 439.89454988 82.95449264 439.88775989 76.56811441 C439.88449454 73.31054822 439.88552517 70.0530842 439.89311314 66.79552269 C439.90081118 63.26207075 439.89620256 59.72884154 439.88848209 56.19539452 C439.89619744 54.65526119 439.89619744 54.65526119 439.90406865 53.08401406 C439.87143858 46.33370574 439.80298373 40.63132953 435.20374393 35.32451439 C429.35570057 30.33228224 424.97794085 30.01253222 417.45502758 30.00837994 C416.73886184 30.0066269 416.0226961 30.00487386 415.28482836 30.0030677 C412.87864072 29.99840589 410.47251346 30.00087367 408.06632328 30.00330162 C406.3263306 30.00143374 404.58633833 29.99913313 402.84634674 29.9964363 C398.05968885 29.99030907 393.27304841 29.99045298 388.48638749 29.99163067 C383.32609966 29.99183445 378.16581748 29.98631819 373.00553226 29.9815731 C362.89386902 29.97326108 352.78221161 29.97051802 342.67054524 29.96996073 C334.45323614 29.96948585 326.23592898 29.96743255 318.01862049 29.9642601 C294.73118291 29.95545224 271.44374995 29.95084096 248.15631069 29.95159058 C246.27254161 29.95165051 246.27254161 29.95165051 244.35071659 29.95171165 C243.09334084 29.95175254 241.83596508 29.95179342 240.54048704 29.95183554 C220.15656802 29.95224211 199.77266746 29.94267013 179.38875379 29.92857329 C158.46864081 29.91421955 137.54853684 29.90730254 116.6284188 29.90816706 C104.87934043 29.90849937 93.13028141 29.90573768 81.38120747 29.89498901 C71.37897494 29.88589722 61.37677055 29.8836979 51.37453569 29.89049844 C46.26994238 29.89377025 41.16540308 29.89379652 36.06081486 29.88514519 C31.38891386 29.8773085 26.71710997 29.87868255 22.04521142 29.88742932 C20.35413 29.88897056 18.66304143 29.88712477 16.97196843 29.88156924 C14.67424203 29.87452004 12.37685733 29.87979414 10.07914257 29.88812542 C8.16429143 29.88779937 8.16429143 29.88779937 6.21075642 29.88746673 C0.88127591 30.26005525 -3.09599035 31.04261743 -7.17125607 34.57451439 Z " fill="#000000" transform="translate(42.35875606536865,75.86298561096191)"/>
<path d="M0 0 C0.96381592 0.00684814 1.92763184 0.01369629 2.9206543 0.02075195 C10.24002684 0.18551652 16.47944656 1.22565859 23.125 4.4375 C23.90488281 4.788125 24.68476563 5.13875 25.48828125 5.5 C39.98568554 12.7111441 48.837962 25.53766564 54.125 40.4375 C58.0287098 53.83515814 55.79023118 69.78634325 49.30078125 81.8203125 C47.63399833 84.73464693 45.91680276 87.59880125 44.125 90.4375 C46.41657434 92.83854445 48.86677161 94.85738985 51.5 96.875 C53.04332825 98.06033974 54.58493918 99.24791813 56.125 100.4375 C56.95644531 101.07042969 57.78789062 101.70335937 58.64453125 102.35546875 C72.80920034 114.24486816 82.67194657 134.32775007 85.125 152.4375 C85.44293419 157.3574087 85.49500599 162.25841249 85.5 167.1875 C85.52449219 168.47527344 85.54898438 169.76304687 85.57421875 171.08984375 C85.60676532 181.55898958 85.60676532 181.55898958 83.4140625 185.140625 C79.13046656 189.43884072 75.85654473 190.8118897 69.79359436 190.82518005 C67.87786369 190.840037 67.87786369 190.840037 65.9234314 190.85519409 C64.51544093 190.85095631 63.1074514 190.84639848 61.69946289 190.84155273 C60.21093737 190.8472574 58.72241623 190.85422203 57.23390198 190.86235046 C53.19667073 190.88028666 49.15965678 190.87911265 45.12239766 190.87340808 C41.75010598 190.87031683 38.37785608 190.87640797 35.00557035 190.88244683 C27.04900697 190.89649199 19.09255096 190.89493089 11.13598633 190.88354492 C2.93171632 190.87206381 -5.27222679 190.88613914 -13.47645372 190.9129414 C-20.52459639 190.93510348 -27.57263649 190.94173464 -34.62081152 190.93586498 C-38.82850921 190.93249539 -43.03599736 190.93491054 -47.2436657 190.95211601 C-51.20087861 190.96759126 -55.15760757 190.96362357 -59.11480141 190.94481087 C-60.5651986 190.94112653 -62.01563169 190.94422903 -63.46599579 190.95469666 C-65.44949721 190.96791664 -67.43312379 190.95394473 -69.41661072 190.93870544 C-70.52548614 190.93849616 -71.63436155 190.93828688 -72.77683926 190.93807125 C-77.56740567 190.16405724 -80.75735765 187.8637528 -83.72290039 184.0793457 C-85.09353673 180.93637987 -85.27787207 178.59330893 -85.30859375 175.16796875 C-85.32019531 173.95713623 -85.33179688 172.74630371 -85.34375 171.4987793 C-85.32828125 169.58125854 -85.32828125 169.58125854 -85.3125 167.625 C-85.30347656 166.3150708 -85.29445312 165.0051416 -85.28515625 163.65551758 C-84.88074704 141.01281466 -76.09184357 119.59062317 -59.875 103.4375 C-54.8203866 99.04183461 -49.53821566 95.01426778 -43.875 91.4375 C-44.26171875 90.75945312 -44.6484375 90.08140625 -45.046875 89.3828125 C-53.92033302 73.52480089 -57.42010711 58.94154413 -54.2265625 40.7421875 C-53.3133477 37.81521697 -52.23769048 35.18303911 -50.875 32.4375 C-50.37742188 31.42558594 -49.87984375 30.41367188 -49.3671875 29.37109375 C-42.01894712 15.7170378 -30.79150623 6.6179949 -16.11328125 1.73828125 C-10.71848271 0.21367536 -5.58312254 -0.06124531 0 0 Z M-18.75 39.375 C-24.05841766 47.02536663 -24.96879999 53.23306989 -23.875 62.4375 C-21.40860576 69.81560244 -16.73251992 74.212217 -10.10546875 78.03515625 C-3.76001167 80.7897138 3.53697309 80.70386244 10.046875 78.40625 C16.91785961 74.65844022 20.68396188 69.31957623 24.125 62.4375 C24.94033856 53.66678661 24.82680582 46.45625834 19.125 39.4375 C14.94072943 34.98400022 9.87868932 31.82488888 3.79296875 30.96875 C-5.60468793 30.88437149 -12.32669859 32.19378692 -18.75 39.375 Z M-43.875 132.4375 C-49.43383375 140.67051658 -53.875 150.42371822 -53.875 160.4375 C-18.235 160.4375 17.405 160.4375 54.125 160.4375 C52.35659885 144.52188964 45.45635938 131.74604964 33.125 121.4375 C29.60094319 119.05638053 25.99918759 117.18353797 22.125 115.4375 C21.24585938 115.02371094 20.36671875 114.60992187 19.4609375 114.18359375 C-3.55403297 104.88035921 -28.54320105 114.04522679 -43.875 132.4375 Z " fill="#000000" transform="translate(144.875,160.5625)"/>
<path d="M0 0 C0.70240974 -0.00538554 1.40481947 -0.01077108 2.12851435 -0.01631981 C4.47611966 -0.03059796 6.82316099 -0.0234963 9.17079163 -0.01637268 C10.85635837 -0.02207634 12.54192124 -0.02904059 14.22747803 -0.03717041 C18.80187476 -0.05511747 23.37607983 -0.05393053 27.9505012 -0.04822803 C31.77015012 -0.0451384 35.5897621 -0.05122612 39.40940577 -0.05726677 C48.42071926 -0.07131548 57.43193796 -0.06974784 66.44325256 -0.05836487 C75.73813958 -0.04688311 85.03273808 -0.06095949 94.32758707 -0.08776134 C102.30990186 -0.10991625 110.29212608 -0.1165562 118.27446944 -0.11068493 C123.04107131 -0.10731367 127.80748824 -0.10974165 132.57406425 -0.12693596 C137.05655416 -0.14239969 141.53861657 -0.13845601 146.02108955 -0.11963081 C147.66499372 -0.11594333 149.30892953 -0.11905807 150.95280457 -0.1295166 C153.19957905 -0.14271816 155.44493654 -0.13118837 157.69165039 -0.11352539 C159.57619383 -0.11321146 159.57619383 -0.11321146 161.49880886 -0.1128912 C166.50210326 0.62145841 169.67770467 2.80194661 172.75697327 6.7665863 C174.84500383 11.51597108 174.52852659 16.31016157 173.90931702 21.38768005 C171.72949827 25.98951964 169.43364972 28.16986078 164.90931702 30.38768005 C161.62465 30.76799679 161.62465 30.76799679 157.81863403 30.77536011 C157.1162243 30.78074565 156.41381456 30.78613118 155.69011968 30.79167992 C153.34251437 30.80595807 150.99547304 30.79885641 148.64784241 30.79173279 C146.96227567 30.79743645 145.27671279 30.8044007 143.59115601 30.81253052 C139.01675927 30.83047758 134.4425542 30.82929064 129.86813283 30.82358813 C126.04848391 30.8204985 122.22887193 30.82658622 118.40922827 30.83262688 C109.39791477 30.84667559 100.38669607 30.84510795 91.37538147 30.83372498 C82.08049446 30.82224321 72.78589596 30.8363196 63.49104697 30.86312145 C55.50873217 30.88527636 47.52650796 30.89191631 39.5441646 30.88604504 C34.77756272 30.88267378 30.01114579 30.88510176 25.24456978 30.90229607 C20.76207987 30.91775979 16.28001746 30.91381611 11.79754448 30.89499092 C10.15364031 30.89130344 8.50970451 30.89441818 6.86582947 30.90487671 C4.61905498 30.91807827 2.3736975 30.90654848 0.12698364 30.8888855 C-1.12937865 30.88867621 -2.38574095 30.88846693 -3.68017483 30.8882513 C-8.68346923 30.15390169 -11.85907064 27.97341349 -14.93833923 24.0087738 C-17.0263698 19.25938903 -16.70989256 14.46519854 -16.09068298 9.38768005 C-12.60267248 2.02410232 -7.89153685 0.01526738 0 0 Z " fill="#000000" transform="translate(278.09068298339844,300.61231994628906)"/>
<path d="M0 0 C0.70240974 -0.00538554 1.40481947 -0.01077108 2.12851435 -0.01631981 C4.47611966 -0.03059796 6.82316099 -0.0234963 9.17079163 -0.01637268 C10.85635837 -0.02207634 12.54192124 -0.02904059 14.22747803 -0.03717041 C18.80187476 -0.05511747 23.37607983 -0.05393053 27.9505012 -0.04822803 C31.77015012 -0.0451384 35.5897621 -0.05122612 39.40940577 -0.05726677 C48.42071926 -0.07131548 57.43193796 -0.06974784 66.44325256 -0.05836487 C75.73813958 -0.04688311 85.03273808 -0.06095949 94.32758707 -0.08776134 C102.30990186 -0.10991625 110.29212608 -0.1165562 118.27446944 -0.11068493 C123.04107131 -0.10731367 127.80748824 -0.10974165 132.57406425 -0.12693596 C137.05655416 -0.14239969 141.53861657 -0.13845601 146.02108955 -0.11963081 C147.66499372 -0.11594333 149.30892953 -0.11905807 150.95280457 -0.1295166 C153.19957905 -0.14271816 155.44493654 -0.13118837 157.69165039 -0.11352539 C159.57619383 -0.11321146 159.57619383 -0.11321146 161.49880886 -0.1128912 C166.50210326 0.62145841 169.67770467 2.80194661 172.75697327 6.7665863 C174.84500383 11.51597108 174.52852659 16.31016157 173.90931702 21.38768005 C171.72949827 25.98951964 169.43364972 28.16986078 164.90931702 30.38768005 C161.62465 30.76799679 161.62465 30.76799679 157.81863403 30.77536011 C157.1162243 30.78074565 156.41381456 30.78613118 155.69011968 30.79167992 C153.34251437 30.80595807 150.99547304 30.79885641 148.64784241 30.79173279 C146.96227567 30.79743645 145.27671279 30.8044007 143.59115601 30.81253052 C139.01675927 30.83047758 134.4425542 30.82929064 129.86813283 30.82358813 C126.04848391 30.8204985 122.22887193 30.82658622 118.40922827 30.83262688 C109.39791477 30.84667559 100.38669607 30.84510795 91.37538147 30.83372498 C82.08049446 30.82224321 72.78589596 30.8363196 63.49104697 30.86312145 C55.50873217 30.88527636 47.52650796 30.89191631 39.5441646 30.88604504 C34.77756272 30.88267378 30.01114579 30.88510176 25.24456978 30.90229607 C20.76207987 30.91775979 16.28001746 30.91381611 11.79754448 30.89499092 C10.15364031 30.89130344 8.50970451 30.89441818 6.86582947 30.90487671 C4.61905498 30.91807827 2.3736975 30.90654848 0.12698364 30.8888855 C-1.12937865 30.88867621 -2.38574095 30.88846693 -3.68017483 30.8882513 C-8.68346923 30.15390169 -11.85907064 27.97341349 -14.93833923 24.0087738 C-17.0263698 19.25938903 -16.70989256 14.46519854 -16.09068298 9.38768005 C-12.60267248 2.02410232 -7.89153685 0.01526738 0 0 Z " fill="#000000" transform="translate(278.09068298339844,240.61231994628906)"/>
<path d="M0 0 C0.69334946 -0.00686325 1.38669891 -0.0137265 2.10105896 -0.02079773 C4.38276917 -0.03903173 6.66378952 -0.03523331 8.94555664 -0.02954102 C10.53829674 -0.03410458 12.13103486 -0.03941067 13.72377014 -0.04542542 C17.05844126 -0.05434989 20.39287281 -0.0519412 23.72753906 -0.04199219 C27.99253259 -0.03050502 32.25669786 -0.05071278 36.5215826 -0.07990932 C39.809954 -0.09829109 43.09812765 -0.09797495 46.38653755 -0.0922718 C47.95855432 -0.09211882 49.53058469 -0.09814423 51.10255241 -0.11056328 C53.30456765 -0.12550931 55.50506229 -0.11477202 57.70703125 -0.09765625 C59.58303261 -0.097407 59.58303261 -0.097407 61.49693298 -0.09715271 C66.50582496 0.63663231 69.68289162 2.81354395 72.76586914 6.78295898 C74.85389971 11.53234376 74.53742246 16.32653425 73.91821289 21.40405273 C71.73806744 26.00658202 69.44202287 28.18439464 64.91821289 30.40405273 C61.62391663 30.79173279 61.62391663 30.79173279 57.83642578 30.80810547 C57.14307632 30.81496872 56.44972687 30.82183197 55.73536682 30.8289032 C53.45365661 30.84713719 51.17263626 30.84333878 48.89086914 30.83764648 C47.29812904 30.84221005 45.70539092 30.84751614 44.11265564 30.85353088 C40.77798452 30.86245536 37.44355297 30.86004667 34.10888672 30.85009766 C29.84389319 30.83861049 25.57972792 30.85881825 21.31484318 30.88801479 C18.02647178 30.90639656 14.73829813 30.90608042 11.44988823 30.90037727 C9.87787146 30.90022429 8.30584109 30.9062497 6.73387337 30.91866875 C4.53185813 30.93361478 2.3313635 30.92287749 0.12939453 30.90576172 C-1.12127304 30.90559555 -2.37194061 30.90542938 -3.6605072 30.90525818 C-8.66939918 30.17147316 -11.84646584 27.99456151 -14.92944336 24.02514648 C-17.01747392 19.27576171 -16.70099668 14.48157122 -16.08178711 9.40405273 C-12.59757623 2.04849643 -7.88405193 0.03408142 0 0 Z " fill="#000000" transform="translate(278.081787109375,180.595947265625)"/>
</svg>
