<?xml version="1.0" encoding="UTF-8"?>
<svg version="1.1" xmlns="http://www.w3.org/2000/svg" width="512" height="512">
<path d="M0 0 C0.66 -0.0103125 1.32 -0.020625 2 -0.03125 C5.17708318 0.81266272 6.15253044 1.7369703 8 4.5 C8.49219407 8.09515669 8.37532185 11.6301265 8.25 15.25 C8.23195313 16.23355469 8.21390625 17.21710937 8.1953125 18.23046875 C8.14824126 20.65463783 8.08250742 23.07682059 8 25.5 C8.7425 25.70625 9.485 25.9125 10.25 26.125 C17.11283272 29.55641636 18.87152261 37.9845532 21.25 44.75 C21.61351562 45.75546875 21.97703125 46.7609375 22.3515625 47.796875 C25 55.20453477 25 55.20453477 25 57.5 C26.485 57.3453125 26.485 57.3453125 28 57.1875 C35.15035955 57.30144995 39.66443612 62.04906672 44.38232422 66.89208984 C44.91615723 67.4433252 45.44999023 67.99456055 46 68.5625 C72.76243288 96.04213178 111.39709497 112.46859359 149.21875 116.875 C153.92210983 117.48188514 157.2463575 118.08280977 160.6875 121.5 C163.3082545 125.18591495 163.95560338 128.54281119 163.6171875 133.0234375 C161.75565092 140.49314756 155.12349354 144.37393521 148.9375 148.1875 C141.12294483 152.79282041 132.2047589 157.5 123 157.5 C123 170.04 123 182.58 123 195.5 C128.92195313 195.46519531 134.84390625 195.43039063 140.9453125 195.39453125 C144.70053072 195.37919978 148.45571026 195.36475771 152.2109375 195.35351562 C158.16935252 195.33559321 164.12762902 195.31440737 170.0859375 195.27368164 C174.89051709 195.24104789 179.69494809 195.22313845 184.49962997 195.21536827 C186.33122979 195.20983199 188.16282162 195.19902093 189.99435806 195.18280983 C192.56298546 195.16098211 195.13100157 195.1580353 197.69970703 195.15942383 C198.45424667 195.148638 199.20878632 195.13785217 199.9861908 195.1267395 C204.74149024 195.15449239 207.96080315 195.99095275 212 198.5 C217.95361033 204.77542711 217.21066752 211.07726206 217.25 219.3125 C217.2809375 220.91448242 217.2809375 220.91448242 217.3125 222.54882812 C217.34263324 228.63950833 217.17188582 233.22501598 214 238.5 C211.30537804 241.1333738 209.71592368 242.39327418 205.95385742 242.95410156 C204.84888916 242.9331543 203.7439209 242.91220703 202.60546875 242.890625 C201.40341797 242.87773437 200.20136719 242.86484375 198.96289062 242.8515625 C197.09407227 242.80128906 197.09407227 242.80128906 195.1875 242.75 C193.92228516 242.73195312 192.65707031 242.71390625 191.35351562 242.6953125 C188.23490665 242.64823916 185.11784027 242.58249094 182 242.5 C182.01110306 243.35555481 182.02220612 244.21110962 182.03364563 245.09259033 C182.13383408 253.1557034 182.20995783 261.21860742 182.25906086 269.28219986 C182.28515421 273.42782393 182.32054618 277.57293368 182.37719727 281.71826172 C182.43152836 285.71887006 182.46142251 289.71898376 182.47438622 293.71993256 C182.48362431 295.24622129 182.50166473 296.77248297 182.52865028 298.2985611 C182.56495893 300.43694011 182.56994515 302.57327635 182.56762695 304.71191406 C182.57873001 305.9288092 182.58983307 307.14570435 182.60127258 308.3994751 C182 311.5 182 311.5 179.69108582 313.92816162 C177 315.5 177 315.5 173.375 315.4375 C170.15160834 314.54211343 168.90723042 314.14893115 167 311.5 C161.03528896 299.57057792 166 284.83749935 166 271.5 C56.44 271.5 -53.12 271.5 -166 271.5 C-166 305.16 -166 338.82 -166 373.5 C-153.46 373.5 -140.92 373.5 -128 373.5 C-127.34 372.18 -126.68 370.86 -126 369.5 C-124.328125 368.11328125 -124.328125 368.11328125 -122.25 366.8125 C-121.44949219 366.30074219 -120.64898437 365.78898437 -119.82421875 365.26171875 C-118.89222656 364.68035156 -117.96023437 364.09898437 -117 363.5 C-106.64352933 357.00158593 -96.38768546 350.53289204 -88 341.5 C-86.96746094 340.38818359 -86.96746094 340.38818359 -85.9140625 339.25390625 C-82.32928563 335.34161655 -78.88703523 331.45362196 -75.8125 327.125 C-72.59953611 322.70717465 -69.24314216 320.24771405 -64 318.5 C-61.41369776 318.41518227 -58.85521944 318.38401771 -56.26953125 318.40234375 C-55.14390022 318.40446617 -55.14390022 318.40446617 -53.99552917 318.40663147 C-51.6011454 318.4122244 -49.20685547 318.42477556 -46.8125 318.4375 C-45.18815239 318.44251592 -43.56380332 318.44707866 -41.93945312 318.45117188 C-37.95959931 318.46219152 -33.97981556 318.47945127 -30 318.5 C-29.8561084 317.23776611 -29.7122168 315.97553223 -29.56396484 314.67504883 C-28.31260158 303.69794457 -20.19191992 295.26622202 -12 288.5 C-5.64281305 284.59567456 0.78580176 284.81500693 7.8125 286.3125 C19.16998293 291.14166597 25.60179256 302.6427898 30 313.5 C30.35027037 314.82898441 30.68741146 316.16165128 31 317.5 C32.43666016 317.51401855 32.43666016 317.51401855 33.90234375 317.52832031 C37.48857496 317.56848337 41.07397179 317.63431125 44.65966797 317.70751953 C46.20545657 317.73557787 47.75138461 317.75686706 49.29736328 317.77099609 C67.38278547 317.9461293 67.38278547 317.9461293 73.63720703 324.11474609 C75.20130735 325.84066837 76.59843382 327.63973944 78 329.5 C78.88365234 330.62728516 78.88365234 330.62728516 79.78515625 331.77734375 C80.95972381 333.27610193 82.12832947 334.77956462 83.2890625 336.2890625 C83.85367187 337.01867187 84.41828125 337.74828125 85 338.5 C85.598125 339.30695313 86.19625 340.11390625 86.8125 340.9453125 C89.3847351 343.94931563 92.25924121 346.34443501 95.375 348.75 C95.98496826 349.22526123 96.59493652 349.70052246 97.22338867 350.19018555 C103.55346638 355.04743544 110.23081586 359.28879431 117 363.5 C118.75620543 364.59426986 120.5071526 365.69707767 122.25 366.8125 C123.27867187 367.45638672 123.27867187 367.45638672 124.328125 368.11328125 C126 369.5 126 369.5 128 373.5 C140.54 373.5 153.08 373.5 166 373.5 C165.881527 362.86463606 165.881527 362.86463606 165.72973633 352.22973633 C165.72096818 350.88884194 165.71332502 349.54793953 165.70703125 348.20703125 C165.69168335 347.52008179 165.67633545 346.83313232 165.66052246 346.12536621 C165.65814515 341.73604943 166.30461057 338.9907771 169 335.5 C172.09173752 333.95413124 174.59429552 334.20640479 178 334.5 C180.20214844 336.01660156 180.20214844 336.01660156 182 338.5 C182.34923596 341.32017427 182.46849209 343.73720263 182.390625 346.546875 C182.38496521 347.31807678 182.37930542 348.08927856 182.37347412 348.8838501 C182.35113589 351.33987279 182.30094763 353.79442055 182.25 356.25 C182.22993154 357.91794763 182.21168137 359.58591821 182.1953125 361.25390625 C182.15127992 365.33650323 182.08227283 369.41800181 182 373.5 C183.05388916 373.48428955 184.10777832 373.4685791 185.19360352 373.45239258 C189.12776965 373.39782744 193.06190274 373.36355388 196.99633789 373.33520508 C198.69463742 373.32017874 200.39289855 373.29975177 202.09106445 373.27368164 C204.54127518 373.23702551 206.99097 373.22021211 209.44140625 373.20703125 C210.56839684 373.18380547 210.56839684 373.18380547 211.71815491 373.16011047 C217.87921949 373.1581721 222.54797295 374.43513512 227.375 378.5 C229.97234487 381.69673215 230.12695122 384.41148517 230.14044189 388.38278198 C230.14615204 389.38937866 230.15186218 390.39597534 230.15774536 391.43307495 C230.15886322 392.53652252 230.15998108 393.63997009 230.16113281 394.77685547 C230.16609772 395.93969055 230.17106262 397.10252563 230.17617798 398.30059814 C230.19081053 402.1561339 230.19760308 406.01162852 230.203125 409.8671875 C230.20742237 411.86574787 230.21172026 413.86430824 230.2160995 415.86286843 C230.22790952 421.4315471 230.23544759 427.00021579 230.2388947 432.56890571 C230.24337588 439.76825275 230.26092805 446.96740997 230.2898953 454.16669929 C230.31151646 459.73367478 230.32159919 465.30059688 230.32293582 470.86761391 C230.32398347 474.19167225 230.33132887 477.51551143 230.34775543 480.83953476 C230.36477489 484.54795542 230.36294551 488.2559118 230.35644531 491.96435547 C230.3656601 493.06375458 230.37487488 494.16315369 230.3843689 495.29586792 C230.33250257 504.7229706 230.33250257 504.7229706 227 508.5 C223.63860785 511.78929619 221.31884728 512.95836135 216.58098158 513.03366944 C215.88350236 513.02459062 215.18602314 513.01551181 214.46740818 513.00615788 C213.71379862 513.01227123 212.96018906 513.01838459 212.18374285 513.02468321 C209.64989476 513.04032597 207.116998 513.02740027 204.58314514 513.0146637 C202.75168896 513.01998705 200.92023714 513.02705151 199.08879369 513.03571075 C194.04928193 513.05439301 189.01006292 513.0480139 183.97053874 513.03755772 C178.5382603 513.03058153 173.10604296 513.04655162 167.67378235 513.05955505 C157.02901805 513.08122686 146.38436053 513.08106 135.73958141 513.07292951 C127.08985506 513.06663639 118.4401599 513.06776022 109.79043388 513.07420158 C108.56058328 513.07510324 107.33073268 513.07600489 106.06361387 513.07693387 C103.56538792 513.07878502 101.06716198 513.08064758 98.56893604 513.08252143 C75.7961203 513.09863783 53.02336008 513.09141504 30.25054765 513.07496829 C9.45873112 513.06012001 -11.33295405 513.06890015 -32.12475586 513.09692383 C-55.47925204 513.12834129 -78.83367086 513.14325714 -102.18818861 513.13312382 C-104.6776651 513.13210124 -107.16714161 513.13110663 -109.65661812 513.1301403 C-110.88156387 513.12966391 -112.10650961 513.12918752 -113.36857493 513.1286967 C-122.00956022 513.12652999 -130.65048447 513.1363503 -139.29145622 513.15091133 C-149.81968104 513.16840468 -160.34772732 513.1683604 -170.87594502 513.14555968 C-176.24986459 513.13439023 -181.62346924 513.13131615 -186.99737549 513.14986038 C-191.91427347 513.16660954 -196.8305805 513.16038974 -201.74743981 513.13564359 C-203.52867476 513.13074157 -205.30995687 513.1343267 -207.09115254 513.14713103 C-209.50867412 513.16325914 -211.92413893 513.14872005 -214.34156704 513.12641239 C-215.0367051 513.13840407 -215.73184315 513.15039575 -216.448046 513.16275081 C-221.97801248 513.05821677 -224.22712129 511.24334231 -228 507.5 C-230.04428478 504.49048953 -230.25223339 502.10448322 -230.26069641 498.50369263 C-230.26778122 497.49716644 -230.27486603 496.49064026 -230.28216553 495.45361328 C-230.27968811 494.35533203 -230.27721069 493.25705078 -230.2746582 492.12548828 C-230.27976913 490.96411346 -230.28488007 489.80273865 -230.29014587 488.60617065 C-230.30406424 484.76083241 -230.30308329 480.91567296 -230.30078125 477.0703125 C-230.30368514 475.07477912 -230.30659353 473.07924567 -230.310188 471.08371341 C-230.32128034 464.8085576 -230.32172244 458.53346165 -230.31567383 452.25830078 C-230.30963635 445.79171591 -230.32193976 439.32534874 -230.3432439 432.85880101 C-230.36087832 427.30112134 -230.36685828 421.74351085 -230.36360615 416.18580425 C-230.36179572 412.86901017 -230.3657231 409.55240567 -230.37832069 406.23563004 C-230.39065115 402.5346829 -230.38391298 398.8342398 -230.37231445 395.13330078 C-230.37995819 394.03906799 -230.38760193 392.94483521 -230.39547729 391.81744385 C-230.35737808 386.31972439 -230.2069013 382.19733559 -227 377.5 C-214.71539218 368.36529162 -194.45654269 373.5 -182 373.5 C-182 330.27 -182 287.04 -182 242.5 C-190.91 242.5 -199.82 242.5 -209 242.5 C-216.03573837 236.63688469 -216.03573837 236.63688469 -217 231.5 C-217.28962175 227.51602577 -217.32460821 223.55578845 -217.3125 219.5625 C-217.33666992 217.97405273 -217.33666992 217.97405273 -217.36132812 216.35351562 C-217.36511107 210.28946169 -217.00569212 205.81555576 -214 200.5 C-207.46000994 194.28700944 -200.67240628 195.28422385 -192.125 195.25 C-190.20494141 195.2190625 -190.20494141 195.2190625 -188.24609375 195.1875 C-186.39564453 195.17976563 -186.39564453 195.17976563 -184.5078125 195.171875 C-183.38004395 195.1625293 -182.25227539 195.15318359 -181.09033203 195.14355469 C-177.63774836 195.54178286 -175.77067146 196.43784226 -173 198.5 C-171.57337781 201.35324437 -171.68966132 203.33454549 -172 206.5 C-173.22265625 209.1796875 -173.22265625 209.1796875 -176 211.5 C-180.26009756 212.13782771 -184.4547741 211.96777791 -188.75 211.8125 C-190.51150391 211.77866211 -190.51150391 211.77866211 -192.30859375 211.74414062 C-195.20627345 211.6852447 -198.10329781 211.59556569 -201 211.5 C-201 216.45 -201 221.4 -201 226.5 C-68.34 226.5 64.32 226.5 201 226.5 C201 221.55 201 216.6 201 211.5 C199.19988087 211.50460896 197.39976173 211.50921793 195.54509354 211.51396656 C152.84358255 211.62218348 110.14208657 211.70466628 67.44046672 211.75532665 C62.18817549 211.76158041 56.93588455 211.768052 51.68359375 211.7746582 C50.63792782 211.77596976 49.59226189 211.77728131 48.51490912 211.7786326 C31.56880062 211.80040751 14.62277667 211.83984049 -2.32328162 211.88576398 C-19.70288637 211.93247064 -37.08244676 211.96028312 -54.46211171 211.97044247 C-65.19209144 211.97731366 -75.92183223 211.99903948 -86.65173844 212.03958233 C-94.00299283 212.06594925 -101.35412314 212.07401476 -108.70542142 212.06750689 C-112.95103965 212.06429453 -117.19623949 212.06932487 -121.44178391 212.09602737 C-125.32563737 212.12027746 -129.20878931 212.1216421 -133.0926744 212.10449447 C-134.50055652 212.10237379 -135.90848159 212.10878686 -137.31627855 212.12441591 C-139.22466008 212.14437705 -141.13330584 212.13072117 -143.04172897 212.11523914 C-144.10342702 212.11713775 -145.16512506 212.11903635 -146.25899577 212.12099248 C-149 211.5 -149 211.5 -151.34114194 209.1529538 C-153.36917085 205.90959794 -153.63992553 204.25956248 -153 200.5 C-151.1329009 198.19724444 -149.64352259 196.82176129 -147 195.5 C-145.18658158 195.41528636 -143.37005839 195.39278917 -141.5546875 195.40234375 C-140.58515137 195.40484131 -139.61561523 195.40733887 -138.61669922 195.40991211 C-137.38193848 195.41901611 -136.14717773 195.42812012 -134.875 195.4375 C-128.996875 195.4684375 -128.996875 195.4684375 -123 195.5 C-123 182.96 -123 170.42 -123 157.5 C-125.64 157.17 -128.28 156.84 -131 156.5 C-142.00170236 152.87044294 -154.85397053 146.81089555 -162.0625 137.4140625 C-163.99990723 133.45852274 -163.98379019 129.73369022 -163 125.5 C-161.55600756 122.34525347 -159.88859959 120.42384138 -157 118.5 C-153.41607364 117.27924549 -149.74503494 116.9738958 -146 116.5 C-105.95228801 109.75059142 -70.19010593 93.58658422 -41.75 64.125 C-37.5213149 59.87089194 -34.27015346 57.60984614 -28.125 57.3125 C-27.09375 57.374375 -26.0625 57.43625 -25 57.5 C-24.85304687 56.96375 -24.70609375 56.4275 -24.5546875 55.875 C-22.94313014 50.24381105 -21.09722193 44.70113006 -19.125 39.1875 C-18.89280762 38.50623047 -18.66061523 37.82496094 -18.42138672 37.12304688 C-16.75786395 32.57213186 -14.80209118 29.67635517 -11 26.5 C-10.01 26.17 -9.02 25.84 -8 25.5 C-8.02094727 24.88479492 -8.04189453 24.26958984 -8.06347656 23.63574219 C-8.14677017 20.84066191 -8.19870013 18.04584285 -8.25 15.25 C-8.28351563 14.28191406 -8.31703125 13.31382813 -8.3515625 12.31640625 C-8.45009026 5.17314384 -8.45009026 5.17314384 -6.234375 1.859375 C-3.9080807 0.44407707 -2.6975348 -0.04214898 0 0 Z M-2 39.5 C-3.98 45.44 -5.96 51.38 -8 57.5 C-2.72 57.5 2.56 57.5 8 57.5 C6.824375 53.8803125 6.824375 53.8803125 5.625 50.1875 C5.38217285 49.43170654 5.1393457 48.67591309 4.88916016 47.8972168 C3.85558205 44.75737638 2.84457252 42.26685877 1 39.5 C0.01 39.5 -0.98 39.5 -2 39.5 Z M-35.5 81.0625 C-61.12844015 107.34102353 -96.64439567 122.75411251 -132 130.5 C-133.68884252 130.87612058 -135.37764558 131.25241835 -137.06640625 131.62890625 C-138.37755148 131.91950863 -139.68872925 132.20996452 -141 132.5 C-138.17709235 135.51453147 -135.33928997 136.91879977 -131.5625 138.625 C-130.42941406 139.14320313 -129.29632813 139.66140625 -128.12890625 140.1953125 C-124.20886506 141.82988648 -120.99852242 142.62380071 -116.75913143 142.63422108 C-115.49288808 142.64090784 -115.49288808 142.64090784 -114.20106405 142.64772969 C-113.27860925 142.64754533 -112.35615444 142.64736097 -111.40574646 142.64717102 C-110.42187031 142.65084771 -109.43799417 142.6545244 -108.42430359 142.6583125 C-105.11806889 142.66935056 -101.81186561 142.67319342 -98.50561523 142.67700195 C-96.13866577 142.68326656 -93.7717173 142.68991336 -91.4047699 142.69691467 C-84.29472068 142.71614225 -77.18467088 142.7267435 -70.07460293 142.73564246 C-66.72332406 142.74002901 -63.37204675 142.74539492 -60.02076912 142.75063133 C-48.87477032 142.76764274 -37.7287725 142.78213537 -26.58276272 142.78938007 C-23.69148698 142.79128986 -20.80021125 142.79321021 -17.90893555 142.79516602 C-16.83106352 142.79589163 -16.83106352 142.79589163 -15.73141629 142.7966319 C-4.09930486 142.80492645 7.53270354 142.83025399 19.16477001 142.86274669 C31.11709298 142.89586073 43.06936368 142.91383281 55.02173275 142.91702431 C61.72849919 142.91918555 68.43509253 142.92832321 75.14181709 142.95348549 C81.45457061 142.97678665 87.76705432 142.98099096 94.07983971 142.97072411 C96.39247663 142.97022912 98.70512693 142.97653839 101.01772308 142.99028015 C116.99785377 143.36842632 116.99785377 143.36842632 132 138.5 C133.07636719 138.01015625 134.15273438 137.5203125 135.26171875 137.015625 C136.06222656 136.59796875 136.86273438 136.1803125 137.6875 135.75 C138.51636719 135.32203125 139.34523438 134.8940625 140.19921875 134.453125 C140.79347656 134.13859375 141.38773437 133.8240625 142 133.5 C138.85556103 131.59678694 135.70041466 130.96856709 132.11425781 130.31030273 C105.73359577 125.45314449 79.90395938 115.05376937 58 99.5 C56.47052734 98.42492187 56.47052734 98.42492187 54.91015625 97.328125 C46.08654703 90.92334302 38.03020976 83.69267894 30.4375 75.875 C27.08768478 72.61107748 24.63857967 72.3742455 20.14892578 72.33886719 C19.16425323 72.32925964 18.17958069 72.3196521 17.16506958 72.30975342 C16.10254974 72.30550354 15.04002991 72.30125366 13.9453125 72.296875 C12.85161346 72.29117493 11.75791443 72.28547485 10.631073 72.27960205 C8.31607023 72.27015213 6.00105401 72.2636181 3.68603516 72.25976562 C0.14592016 72.25005737 -3.39361497 72.21903217 -6.93359375 72.1875 C-9.18228822 72.18097014 -11.43098684 72.1757196 -13.6796875 72.171875 C-14.73815887 72.1595282 -15.79663025 72.1471814 -16.88717651 72.13446045 C-25.76561641 72.16134813 -29.46954172 74.68105731 -35.5 81.0625 Z M-107 158.5 C-107 170.71 -107 182.92 -107 195.5 C-97.1 195.5 -87.2 195.5 -77 195.5 C-76.79060013 189.8018839 -76.79060013 189.8018839 -76.61206055 184.1027832 C-76.40021946 179.50670777 -76.06196697 176.16455086 -73 172.5 C-70.04420137 170.69320459 -67.82795874 170.24808785 -64.38671875 170.24121094 C-63.0251062 170.23175446 -63.0251062 170.23175446 -61.63598633 170.22210693 C-60.1764856 170.22817963 -60.1764856 170.22817963 -58.6875 170.234375 C-57.68162842 170.23246155 -56.67575684 170.2305481 -55.6394043 170.22857666 C-53.51448313 170.22721675 -51.3895536 170.23089964 -49.26464844 170.23925781 C-46.01217995 170.24995992 -42.76026381 170.2393558 -39.5078125 170.2265625 C-37.44270711 170.22788413 -35.37760207 170.23044659 -33.3125 170.234375 C-32.33949951 170.23032654 -31.36649902 170.22627808 -30.36401367 170.22210693 C-29.45627197 170.22841125 -28.54853027 170.23471558 -27.61328125 170.24121094 C-26.41892456 170.24359772 -26.41892456 170.24359772 -25.20043945 170.24603271 C-22.70095146 170.53451517 -21.12466606 171.16274123 -19 172.5 C-15.78518198 177.34061844 -15.48044509 181.75617687 -15.3125 187.375 C-15.209375 190.05625 -15.10625 192.7375 -15 195.5 C-5.1 195.5 4.8 195.5 15 195.5 C15.20916648 190.17605646 15.20916648 190.17605646 15.38793945 184.85107422 C15.62088323 180.10038147 16.30093972 176.56403127 19 172.5 C21.92187581 170.66357509 24.17600215 170.2452149 27.59741211 170.2253418 C28.95418312 170.21104378 28.95418312 170.21104378 30.33836365 170.19645691 C31.30822708 170.19736832 32.27809052 170.19827972 33.27734375 170.19921875 C34.28084366 170.19493362 35.28434357 170.1906485 36.31825256 170.18623352 C38.43896735 170.18049465 40.55970181 170.1799867 42.68041992 170.18432617 C45.92205445 170.18748495 49.16277523 170.16402511 52.40429688 170.13867188 C54.46614468 170.1363987 56.52799494 170.13569547 58.58984375 170.13671875 C59.55768295 170.127509 60.52552216 170.11829926 61.52268982 170.10881042 C70.19173867 170.16830112 70.19173867 170.16830112 74 173.5 C75.8474198 176.25255034 76.27358548 178.55032788 76.4140625 181.828125 C76.46747803 182.9094873 76.46747803 182.9094873 76.52197266 184.01269531 C76.55597168 184.91600586 76.5899707 185.81931641 76.625 186.75 C76.74875 189.6375 76.8725 192.525 77 195.5 C86.9 195.5 96.8 195.5 107 195.5 C107 183.29 107 171.08 107 158.5 C36.38 158.5 -34.24 158.5 -107 158.5 Z M-61 185.5 C-61 188.8 -61 192.1 -61 195.5 C-51.1 195.5 -41.2 195.5 -31 195.5 C-31 192.2 -31 188.9 -31 185.5 C-40.9 185.5 -50.8 185.5 -61 185.5 Z M31 185.5 C31 188.8 31 192.1 31 195.5 C40.9 195.5 50.8 195.5 61 195.5 C61 192.2 61 188.9 61 185.5 C51.1 185.5 41.2 185.5 31 185.5 Z M-166 242.5 C-166 246.79 -166 251.08 -166 255.5 C-56.44 255.5 53.12 255.5 166 255.5 C166 251.21 166 246.92 166 242.5 C56.44 242.5 -53.12 242.5 -166 242.5 Z M-4.25390625 303.2578125 C-11.20567192 309.78597565 -11.20567192 309.78597565 -14 318.5 C-4.76 318.5 4.48 318.5 14 318.5 C12.08472667 312.66829684 12.08472667 312.66829684 8.5625 308.3125 C7.96566406 307.65894531 7.36882812 307.00539063 6.75390625 306.33203125 C6.17511719 305.72746094 5.59632813 305.12289063 5 304.5 C4.27103516 303.63955078 4.27103516 303.63955078 3.52734375 302.76171875 C0.65561978 300.38942504 -1.53955684 301.14090222 -4.25390625 303.2578125 Z M-67.48803711 340.79907227 C-68.71644884 343.00147896 -69.89351594 345.23388357 -71 347.5 C-78.94519493 357.95868954 -89.82279688 365.79367813 -101 372.5 C-101 372.83 -101 373.16 -101 373.5 C-34.34 373.5 32.32 373.5 101 373.5 C97.4547833 370.66382664 93.90316686 367.9367206 90.25 365.25 C79.31886834 357.05541946 69.91085463 348.03201309 62.65889072 336.33728886 C61.14383125 334.30898743 61.14383125 334.30898743 58.75347042 333.97149563 C57.86955403 333.95829816 56.98563765 333.94510069 56.07493591 333.9315033 C55.05873672 333.90721756 54.04253754 333.88293182 52.99554443 333.85791016 C51.88125061 333.85186768 50.76695679 333.8458252 49.61889648 333.83959961 C48.44458572 333.8181337 47.27027496 333.79666779 46.06037903 333.77455139 C42.83677115 333.72187677 39.61373404 333.68789101 36.38978457 333.66631389 C34.37266125 333.6523546 32.35562379 333.63396251 30.33854866 333.61429024 C24.01888961 333.5542059 17.69943397 333.51098808 11.37951893 333.4910726 C4.10012067 333.46789872 -3.17583485 333.38912432 -10.45413643 333.26156992 C-16.08918401 333.16625707 -21.72326303 333.12147163 -27.35910553 333.11416823 C-30.72097516 333.10869361 -34.07948231 333.08242802 -37.44049263 333.00324821 C-54.44909431 331.8147956 -54.44909431 331.8147956 -67.48803711 340.79907227 Z M-214 389.5 C-214 393.79 -214 398.08 -214 402.5 C-178.03 402.5 -142.06 402.5 -105 402.5 C-105 398.21 -105 393.92 -105 389.5 C-140.97 389.5 -176.94 389.5 -214 389.5 Z M-89 389.5 C-89 425.14 -89 460.78 -89 497.5 C-82.73 497.5 -76.46 497.5 -70 497.5 C-70 461.86 -70 426.22 -70 389.5 C-76.27 389.5 -82.54 389.5 -89 389.5 Z M-54 389.5 C-54 425.14 -54 460.78 -54 497.5 C-47.07 497.5 -40.14 497.5 -33 497.5 C-32.98541748 495.47149902 -32.97083496 493.44299805 -32.95581055 491.35302734 C-32.90539925 484.6393913 -32.83879276 477.9259856 -32.76428509 471.21257591 C-32.71962022 467.14352792 -32.68035574 463.07457914 -32.65356445 459.00537109 C-32.62749242 455.07592069 -32.58706296 451.14685291 -32.53681374 447.21763992 C-32.52017127 445.72104285 -32.50864068 444.22437963 -32.50238609 442.72770309 C-32.49271599 440.62584384 -32.46462473 438.52495763 -32.43237305 436.42333984 C-32.42126999 435.22865082 -32.41016693 434.03396179 -32.39872742 432.80307007 C-31.94831118 429.07180825 -31.00474927 426.66974106 -29 423.5 C-23.96791862 419.86963798 -17.26343439 420.0591623 -11.3125 420.1015625 C-10.41055908 420.09869232 -9.50861816 420.09582214 -8.5793457 420.09286499 C-6.68342455 420.09083488 -4.78748195 420.09629058 -2.89160156 420.10888672 C-0.00798207 420.12495552 2.87423603 420.10900209 5.7578125 420.08984375 C7.60937806 420.09182637 9.46094275 420.09567043 11.3125 420.1015625 C12.59096802 420.09245346 12.59096802 420.09245346 13.89526367 420.0831604 C19.07224663 420.14327004 24.66994654 420.37611141 29 423.5 C31.76631582 427.87386608 32.3847344 431.29742165 32.43237305 436.42333984 C32.44766052 437.41951828 32.44766052 437.41951828 32.46325684 438.43582153 C32.49323029 440.61094774 32.50262818 442.78563247 32.51171875 444.9609375 C32.52857715 446.47695359 32.54672896 447.9929558 32.56611633 449.50894165 C32.61349676 453.48398501 32.64338311 457.45897208 32.66955566 461.4342041 C32.69942184 465.4966137 32.74593126 469.55882959 32.79101562 473.62109375 C32.8769127 481.58064979 32.94277837 489.54018611 33 497.5 C39.93 497.5 46.86 497.5 54 497.5 C54 461.86 54 426.22 54 389.5 C18.36 389.5 -17.28 389.5 -54 389.5 Z M70 389.5 C70 425.14 70 460.78 70 497.5 C76.27 497.5 82.54 497.5 89 497.5 C89 461.86 89 426.22 89 389.5 C82.73 389.5 76.46 389.5 70 389.5 Z M105 389.5 C105 393.79 105 398.08 105 402.5 C140.97 402.5 176.94 402.5 214 402.5 C214 398.21 214 393.92 214 389.5 C178.03 389.5 142.06 389.5 105 389.5 Z M-214 418.5 C-214 444.57 -214 470.64 -214 497.5 C-206.74 497.5 -199.48 497.5 -192 497.5 C-191.96261719 495.24800781 -191.92523438 492.99601562 -191.88671875 490.67578125 C-191.84045179 488.48468546 -191.78923721 486.29375702 -191.73754883 484.1027832 C-191.70438084 482.58498379 -191.67632368 481.06706344 -191.65356445 479.54907227 C-191.61986722 477.36161981 -191.56754796 475.17526736 -191.51171875 472.98828125 C-191.48553467 471.67384033 -191.45935059 470.35939941 -191.43237305 469.00512695 C-190.97758048 465.31825123 -190.24441414 463.4242588 -188 460.5 C-184.75800161 458.33866774 -183.80836659 458.2387397 -180.05712891 458.19360352 C-179.05243561 458.17761612 -178.04774231 458.16162872 -177.01260376 458.14515686 C-175.38601334 458.13711281 -175.38601334 458.13711281 -173.7265625 458.12890625 C-172.61066742 458.11987778 -171.49477234 458.1108493 -170.34506226 458.10154724 C-167.98299854 458.0870313 -165.6208945 458.07815468 -163.25878906 458.07446289 C-159.64579468 458.06256846 -156.03450871 458.01339457 -152.421875 457.96289062 C-150.12761251 457.95342642 -147.83333952 457.94619138 -145.5390625 457.94140625 C-143.91854477 457.91210777 -143.91854477 457.91210777 -142.26528931 457.88221741 C-134.75052025 457.9273933 -134.75052025 457.9273933 -130.84130859 460.90991211 C-127.96621544 464.95417931 -127.80081664 467.85812864 -127.68359375 472.6953125 C-127.66281265 473.40275604 -127.64203156 474.11019958 -127.62062073 474.83908081 C-127.55518922 477.10095425 -127.49627026 479.36294462 -127.4375 481.625 C-127.39430867 483.15756422 -127.35069418 484.69011657 -127.30664062 486.22265625 C-127.19871711 489.98165268 -127.09959717 493.74073675 -127 497.5 C-119.74 497.5 -112.48 497.5 -105 497.5 C-105 471.43 -105 445.36 -105 418.5 C-140.97 418.5 -176.94 418.5 -214 418.5 Z M105 418.5 C105 444.57 105 470.64 105 497.5 C112.26 497.5 119.52 497.5 127 497.5 C127.02578125 495.25960937 127.0515625 493.01921875 127.078125 490.7109375 C127.1166056 488.5264055 127.16174597 486.34210478 127.20751953 484.15771484 C127.23563782 482.64676062 127.25689771 481.13566179 127.27099609 479.62451172 C127.29255449 477.44423897 127.33926316 475.26568781 127.390625 473.0859375 C127.4220459 471.12213135 127.4220459 471.12213135 127.45410156 469.11865234 C128.08198421 464.95654294 129.37678372 462.75354925 132 459.5 C134.44786802 458.27606599 136.09211501 458.34683835 138.8293457 458.30712891 C139.83411453 458.29106598 140.83888336 458.27500305 141.87409973 458.25845337 C146.47131723 458.21404895 151.06838975 458.17294062 155.66577148 458.14990234 C158.09165028 458.13333679 160.51748015 458.10603925 162.94311523 458.06787109 C166.43759528 458.01315461 169.93093073 457.99123559 173.42578125 457.9765625 C174.50926346 457.95389313 175.59274567 457.93122375 176.70906067 457.90786743 C184.25045933 457.92905923 184.25045933 457.92905923 188.16088867 460.90771484 C191.03163792 464.95412603 191.19918761 467.85830428 191.31640625 472.6953125 C191.33718735 473.40275604 191.35796844 474.11019958 191.37937927 474.83908081 C191.44481078 477.10095425 191.50372974 479.36294462 191.5625 481.625 C191.60569133 483.15756422 191.64930582 484.69011657 191.69335938 486.22265625 C191.80128289 489.98165268 191.90040283 493.74073675 192 497.5 C199.26 497.5 206.52 497.5 214 497.5 C214 471.43 214 445.36 214 418.5 C178.03 418.5 142.06 418.5 105 418.5 Z M-17 435.5 C-17 455.96 -17 476.42 -17 497.5 C-5.78 497.5 5.44 497.5 17 497.5 C17 477.04 17 456.58 17 435.5 C5.78 435.5 -5.44 435.5 -17 435.5 Z M-176 473.5 C-176 481.42 -176 489.34 -176 497.5 C-165.11 497.5 -154.22 497.5 -143 497.5 C-143 489.58 -143 481.66 -143 473.5 C-153.89 473.5 -164.78 473.5 -176 473.5 Z M143 473.5 C143 481.42 143 489.34 143 497.5 C153.89 497.5 164.78 497.5 176 497.5 C176 489.58 176 481.66 176 473.5 C165.11 473.5 154.22 473.5 143 473.5 Z " fill="#000000" transform="translate(256,-0.5)"/>
</svg>
