<?xml version="1.0" encoding="UTF-8"?>
<svg version="1.1" xmlns="http://www.w3.org/2000/svg" width="512" height="512">
<path d="M0 0 C0.78117187 0.65871094 1.56234375 1.31742188 2.3671875 1.99609375 C28.48445583 24.5519164 44.1863067 57.80096132 47 92 C48.96448864 131.8624326 36.90393155 166.87067323 10.1953125 196.6015625 C6.07401335 201.06568219 1.61145827 205.04732148 -3 209 C-4.00556922 209.99439959 -5.00655484 210.99348784 -6 212 C-5.37657715 212.26103516 -4.7531543 212.52207031 -4.11083984 212.79101562 C33.89971959 228.7880891 33.89971959 228.7880891 39.20703125 238.8828125 C41.56998651 245.19178664 41.86967767 251.97286125 39.078125 258.15234375 C35.86048653 263.66662997 32.14988651 267.87119313 26 270 C15.38058963 272.32356329 7.75621408 268.70713231 -1.25 263.3125 C-39.63534892 241.26185852 -86.92954972 236.34250983 -129.5625 247.1875 C-159.62493214 255.37973409 -185.03398535 270.10327813 -208 291 C-208.74507813 291.67289062 -209.49015625 292.34578125 -210.2578125 293.0390625 C-243.63207755 324.79190576 -259.56118568 370.91979119 -261.4375 416 C-261.82778056 422.98168554 -262.66277495 427.84066541 -267.83203125 432.734375 C-273.78988293 437.51888304 -279.26598964 439.66672503 -287 439 C-294.1055711 437.32892696 -299.52769147 433.56727035 -303.67578125 427.58203125 C-305.65070212 422.23984116 -305.44337382 417.15052287 -305.375 411.5 C-305.3608606 409.70163696 -305.3608606 409.70163696 -305.34643555 407.86694336 C-304.82940137 376.78927523 -296.79997452 345.12200071 -281.95263672 317.76269531 C-281.02072978 316.03835699 -280.12126681 314.2966095 -279.22265625 312.5546875 C-270.64140124 296.0926881 -259.54807575 281.60847652 -247 268 C-246.2471875 267.1440625 -245.494375 266.288125 -244.71875 265.40625 C-240.10563537 260.16120186 -235.40426328 255.42007225 -230 251 C-229.48195801 250.56961426 -228.96391602 250.13922852 -228.43017578 249.69580078 C-210.1955091 234.57449477 -190.61563201 222.65870913 -169 213 C-169.54527344 212.5875 -170.09054688 212.175 -170.65234375 211.75 C-180.35279303 204.32127987 -188.5259804 196.70686624 -196 187 C-196.66902344 186.14664063 -197.33804688 185.29328125 -198.02734375 184.4140625 C-220.03710639 155.38732603 -228.61348739 119.34000332 -223.6875 83.36328125 C-218.36978652 48.01473051 -199.32485148 15.28818134 -170.60595703 -6.26098633 C-167.79702215 -8.2716132 -164.92175369 -10.15817078 -162 -12 C-160.89398438 -12.70511719 -159.78796875 -13.41023438 -158.6484375 -14.13671875 C-108.67308502 -44.29425904 -44.005792 -37.51680233 0 0 Z M-157.2578125 40.484375 C-175.0413566 61.34236231 -183.03615089 85.73328371 -181 113 C-178.39083701 136.85841085 -166.28494018 159.72276092 -147.65234375 174.9140625 C-126.01530166 191.42067193 -101.7854778 197.37800141 -74.72509766 194.78173828 C-56.56098421 192.20111892 -39.49486083 183.13901924 -26 171 C-25.29230469 170.37480469 -24.58460938 169.74960938 -23.85546875 169.10546875 C-8.08785011 154.33304497 2.48382528 131.333501 3.23828125 109.76171875 C3.73652396 82.42825885 -3.62034468 58.87385566 -22.53515625 38.51660156 C-35.16854491 25.43683317 -50.53456588 17.44574687 -68 13 C-68.90621094 12.75507812 -69.81242187 12.51015625 -70.74609375 12.2578125 C-101.66478806 5.21548899 -136.17887743 17.29025268 -157.2578125 40.484375 Z " fill="#000000" transform="translate(334,53)"/>
<path d="M0 0 C4.6002676 4.26520874 8.51902484 8.69702016 9.44140625 15.03125 C9.48136719 16.1759375 9.52132812 17.320625 9.5625 18.5 C9.65724609 20.18609375 9.65724609 20.18609375 9.75390625 21.90625 C8.60638967 33.25518902 -3.00660413 45.58039735 -9.26257324 54.76483154 C-12.50505843 59.52676013 -15.73368121 64.2980543 -18.9609375 69.0703125 C-19.6274231 70.05577057 -20.29390869 71.04122864 -20.98059082 72.05654907 C-27.37720256 81.53032605 -33.67102656 91.0703002 -39.94476318 100.62573242 C-49.36223613 114.96797982 -58.79722973 129.29896418 -68.35656738 143.54718018 C-69.44035155 145.16472584 -70.5213903 146.78411483 -71.5994873 148.40545654 C-73.07946671 150.62974386 -74.56949526 152.8469421 -76.0625 155.0625 C-76.49137512 155.71135162 -76.92025024 156.36020325 -77.36212158 157.02871704 C-81.3518907 162.90240693 -86.05990529 167.08876298 -93 169 C-108.70237569 171.75336796 -124.04869535 157.13926631 -136.125 148.875 C-138.91489324 146.97589092 -141.70618348 145.07885054 -144.4977417 143.18218994 C-146.33135397 141.93489893 -148.16343957 140.68536052 -149.99395752 139.43353271 C-154.35513636 136.45450695 -158.73150096 133.50905622 -163.16699219 130.64160156 C-163.98199188 130.11140411 -164.79699158 129.58120667 -165.63668823 129.03494263 C-167.14710761 128.0556993 -168.66305731 127.08490348 -170.18582153 126.12496948 C-175.82686612 122.45701595 -180.4385822 118.26478267 -183.375 112.125 C-184.7670927 105.1645365 -184.8230983 98.20780319 -181 92 C-176.73479126 87.3997324 -172.30297984 83.48097516 -165.96875 82.55859375 C-164.25171875 82.49865234 -164.25171875 82.49865234 -162.5 82.4375 C-161.3759375 82.37433594 -160.251875 82.31117188 -159.09375 82.24609375 C-147.0260017 83.46126486 -133.68224391 96.20500339 -123.9375 102.875 C-121.41135141 104.60322743 -118.88440051 106.33020206 -116.35438538 108.05276489 C-114.79174298 109.11669206 -113.23129099 110.18384536 -111.67332458 111.25460815 C-110.97151566 111.73245758 -110.26970673 112.21030701 -109.54663086 112.70263672 C-108.93218613 113.12342499 -108.31774139 113.54421326 -107.68467712 113.97775269 C-105.86099084 115.16955183 -105.86099084 115.16955183 -103 116 C-102.6757605 115.02075562 -102.6757605 115.02075562 -102.3449707 114.02172852 C-100.51039898 109.90001964 -98.02827961 106.36462836 -95.48046875 102.65234375 C-94.91818069 101.8242067 -94.35589264 100.99606964 -93.77656555 100.14283752 C-92.55673756 98.34668799 -91.33491331 96.55189293 -90.11132812 94.75830078 C-86.8171982 89.92830367 -83.53903859 85.08750707 -80.26171875 80.24609375 C-79.58225189 79.24270966 -78.90278503 78.23932556 -78.20272827 77.20553589 C-69.67730569 64.59486067 -61.32806706 51.86828937 -52.98510742 39.13647461 C-50.22043448 34.91973199 -47.44557991 30.70990064 -44.66015625 26.50683594 C-43.52606106 24.7943522 -42.39466987 23.08007544 -41.265625 21.36425781 C-39.55243145 18.76674282 -37.82499678 16.17925764 -36.09375 13.59375 C-35.5843689 12.81672729 -35.07498779 12.03970459 -34.5501709 11.23913574 C-26.63552045 -0.48218607 -13.65119876 -8.4071407 0 0 Z " fill="#000000" transform="translate(474,322)"/>
</svg>
